<svg width="24" height="24" viewBox="0 0 24 24" fill="none" xmlns="http://www.w3.org/2000/svg">
<g id="3d_rotation_24px">
<path id="icon/action/3d_rotation_24px" fill-rule="evenodd" clip-rule="evenodd" d="M11.3451 0.0299988L12.0051 0C18.295 0 23.4451 4.84 23.9451 10.99H22.4451C22.0951 7.23001 19.7551 4.06 16.4851 2.51001L15.1552 3.84L11.3451 0.0299988ZM8.41504 14.96C8.2251 14.96 8.04504 14.93 7.89514 14.88C7.73511 14.82 7.6051 14.75 7.49512 14.64C7.38513 14.54 7.29504 14.42 7.23511 14.27C7.17505 14.13 7.14514 13.97 7.14514 13.8H5.84509C5.84509 14.16 5.91504 14.48 6.05505 14.75C6.19507 15.02 6.38513 15.25 6.61511 15.44C6.8551 15.62 7.12512 15.76 7.43506 15.85C7.73511 15.95 8.05505 16 8.39514 16C8.76514 16 9.11511 15.95 9.42505 15.85C9.74512 15.75 10.0251 15.6 10.2551 15.41C10.4851 15.22 10.675 14.98 10.8051 14.69C10.9351 14.4 11.0051 14.08 11.0051 13.72C11.0051 13.53 10.9851 13.34 10.9351 13.16C10.8851 12.98 10.8151 12.81 10.7051 12.65C10.6051 12.49 10.4651 12.35 10.3051 12.22C10.1351 12.09 9.93506 11.99 9.69507 11.91C9.89514 11.82 10.0651 11.71 10.2151 11.58C10.3651 11.45 10.4851 11.31 10.5851 11.16C10.6851 11.01 10.7551 10.86 10.8051 10.7C10.8551 10.54 10.8751 10.38 10.8751 10.22C10.8751 9.85999 10.8151 9.54001 10.6951 9.26001C10.5751 8.98001 10.4052 8.75 10.1851 8.57001C9.98511 8.38 9.71509 8.23999 9.41504 8.14001C9.1051 8.04999 8.76514 8 8.39514 8C8.03503 8 7.70508 8.04999 7.39514 8.16C7.09509 8.26999 6.82507 8.42001 6.6051 8.60999C6.39514 8.79999 6.2251 9.01999 6.09509 9.28C5.9751 9.54001 5.91504 9.82001 5.91504 10.13H7.21509C7.21509 9.95999 7.24512 9.81 7.30505 9.67999C7.36511 9.54999 7.44507 9.42999 7.55505 9.34C7.66504 9.25 7.78503 9.17001 7.93506 9.12C8.08508 9.07001 8.23511 9.04001 8.41504 9.04001C8.81506 9.04001 9.11511 9.14001 9.30505 9.35001C9.49512 9.54999 9.59509 9.84 9.59509 10.21C9.59509 10.39 9.56506 10.55 9.51514 10.7C9.46509 10.85 9.37512 10.97 9.26514 11.07C9.15515 11.17 9.01514 11.25 8.8551 11.31C8.69507 11.37 8.49512 11.4 8.27515 11.4H7.50513V12.43H8.27515C8.49512 12.43 8.69507 12.45 8.87512 12.5C9.05505 12.55 9.20508 12.63 9.32507 12.73C9.44507 12.84 9.54504 12.97 9.61511 13.13C9.68506 13.29 9.71509 13.48 9.71509 13.7C9.71509 14.11 9.59509 14.42 9.36511 14.63C9.13513 14.86 8.81506 14.96 8.41504 14.96ZM7.52502 21.48C4.255 19.94 1.91504 16.76 1.55505 13H0.0550537C0.565063 19.16 5.71509 24 12.005 24L12.665 23.97L8.8551 20.16L7.52502 21.48ZM15.825 8.26999C16.265 8.45001 16.645 8.70999 16.965 9.04001C17.285 9.37 17.535 9.76999 17.705 10.24C17.875 10.71 17.965 11.23 17.965 11.81V12.21C17.965 12.79 17.875 13.31 17.705 13.78C17.535 14.24 17.285 14.64 16.965 14.97C16.645 15.3 16.255 15.55 15.8051 15.73C15.355 15.91 14.845 16 14.295 16H11.995V8H14.355C14.895 8 15.385 8.09 15.825 8.26999ZM16.5751 12.2C16.5751 12.62 16.525 12.99 16.4351 13.33C16.335 13.66 16.1951 13.95 16.005 14.18C15.8151 14.41 15.5751 14.59 15.295 14.71C15.005 14.83 14.675 14.89 14.3051 14.89H13.395V9.12H14.365C15.085 9.12 15.635 9.35001 16.005 9.81C16.385 10.27 16.5751 10.93 16.5751 11.8V12.2Z" fill="black" fill-opacity="0.54"/>
</g>
</svg>
