<svg width="24" height="24" viewBox="0 0 24 24" fill="none" xmlns="http://www.w3.org/2000/svg">
<g id="access_alarms_24px">
<path id="icon/device/access_alarms_24px" fill-rule="evenodd" clip-rule="evenodd" d="M22 5.8L17.4 1.9L16.1 3.4L20.7 7.3L22 5.8ZM7.89999 3.5L6.60001 2L2 5.8L3.29999 7.3L7.89999 3.5ZM11 8.1H12.5V13.4L16.5 15.8L15.7 17L11 14.1V8.1ZM12 4.1C7 4.1 3 8.1 3 13.1C3 18.1 7 22.1 12 22.1C17 22.1 21 18.1 21 13.1C21 8.1 17 4.1 12 4.1ZM5 13.1C5 17 8.10001 20.1 12 20.1C15.9 20.1 19 17 19 13.1C19 9.2 15.9 6.1 12 6.1C8.10001 6.1 5 9.2 5 13.1Z" fill="black" fill-opacity="0.54"/>
</g>
</svg>
