<svg width="24" height="24" viewBox="0 0 24 24" fill="none" xmlns="http://www.w3.org/2000/svg">
<g id="accessible_24px">
<path id="icon/action/accessible_24px" fill-rule="evenodd" clip-rule="evenodd" d="M12 2C10.8954 2 10 2.89542 10 4C10 5.10458 10.8954 6 12 6C13.1046 6 14 5.10458 14 4C14 2.89542 13.1046 2 12 2ZM19 13V11C17.46 11.02 15.91 10.25 14.9301 9.17001L13.64 7.74002C13.47 7.55002 13.26 7.40002 13.03 7.29001C13.025 7.29001 13.0225 7.28751 13.02 7.285C13.0176 7.2825 13.015 7.28 13.01 7.28H13C12.65 7.08002 12.25 6.98001 11.8101 7.02002C10.76 7.11002 10 8.04001 10 9.09003V15C10 16.1 10.9 17 12 17H17V22H19V16.5C19 15.4 18.1 14.5 17 14.5H14V11.05C15.29 12.12 17.25 12.99 19 13ZM7 17C7 18.66 8.33997 20 10 20C11.3101 20 12.42 19.16 12.83 18H14.9C14.4399 20.28 12.42 22 10 22C7.23999 22 5 19.76 5 17C5 14.58 6.71997 12.56 9 12.1V14.17C7.83997 14.59 7 15.69 7 17Z" fill="black" fill-opacity="0.54"/>
</g>
</svg>
