<svg width="24" height="24" viewBox="0 0 24 24" fill="none" xmlns="http://www.w3.org/2000/svg">
<g id="accessible_forward_24px">
<path id="icon/action/accessible_forward_24px" fill-rule="evenodd" clip-rule="evenodd" d="M17.5 2.26999C16.3954 2.26999 15.5 3.16541 15.5 4.26999C15.5 5.37457 16.3954 6.26999 17.5 6.26999C18.6046 6.26999 19.5 5.37457 19.5 4.26999C19.5 3.16541 18.6046 2.26999 17.5 2.26999ZM14.5 16.73H12.5C12.5 18.38 11.15 19.73 9.5 19.73C7.84998 19.73 6.5 18.38 6.5 16.73C6.5 15.08 7.84998 13.73 9.5 13.73V11.73C6.73999 11.73 4.5 13.97 4.5 16.73C4.5 19.49 6.73999 21.73 9.5 21.73C12.26 21.73 14.5 19.49 14.5 16.73ZM15.64 13.23H17.5C18.6 13.23 19.5 14.13 19.5 15.23V20.73H17.5V15.73H12.52C11.0599 15.73 10.0699 14.16 10.6699 12.83L12.5 8.72998H10.2899L9.64001 10.26L7.71997 9.72998L8.39001 7.92999C8.71997 7.19998 9.44995 6.72998 10.26 6.72998H15.46C16.9399 6.72998 17.9199 8.22998 17.3099 9.55997L15.64 13.23Z" fill="black" fill-opacity="0.54"/>
</g>
</svg>
