<svg width="24" height="24" viewBox="0 0 24 24" fill="none" xmlns="http://www.w3.org/2000/svg">
<g id="accessibility_new_24px">
<path id="icon/action/accessibility_new_24px" fill-rule="evenodd" clip-rule="evenodd" d="M14 4C14 5.10001 13.1 6 12 6C10.9 6 10 5.10001 10 4C10 2.89999 10.9 2 12 2C13.1 2 14 2.89999 14 4ZM12 7C14.83 7 17.89 6.70001 20.5 6L21 8C19.14 8.5 17 8.82999 15 9V22H13V16H11V22H9V9C7 8.82999 4.85999 8.5 3 8L3.5 6C6.10999 6.70001 9.17004 7 12 7Z" fill="black" fill-opacity="0.54"/>
</g>
</svg>
