<svg width="24" height="24" viewBox="0 0 24 24" fill="none" xmlns="http://www.w3.org/2000/svg">
<g id="account_box_24px">
<path id="icon/action/account_box_24px" fill-rule="evenodd" clip-rule="evenodd" d="M5 3H19C20.1 3 21 3.89999 21 5V19C21 20.1 20.1 21 19 21H5C3.89001 21 3 20.1 3 19V5C3 3.89999 3.89001 3 5 3ZM19 5H5V19H19V5ZM12 12C10.35 12 9 10.65 9 9C9 7.35001 10.35 6 12 6C13.65 6 15 7.35001 15 9C15 10.65 13.65 12 12 12ZM11 9C11 8.45001 11.45 8 12 8C12.55 8 13 8.45001 13 9C13 9.54999 12.55 10 12 10C11.45 10 11 9.54999 11 9ZM6 18V16.47C6 13.97 9.96997 12.89 12 12.89C14.03 12.89 18 13.97 18 16.47V18H6ZM12 14.88C13.3101 14.88 15 15.44 15.6901 16H8.31006C8.99011 15.44 10.6901 14.88 12 14.88Z" fill="black" fill-opacity="0.54"/>
</g>
</svg>
