<svg width="41" height="12" viewBox="0 0 41 12" fill="none" xmlns="http://www.w3.org/2000/svg">
<path id="Action" d="M6.58301 8.68262H2.72754L1.9209 11H0.123047L3.88281 1.04688H5.43457L9.20117 11H7.39648L6.58301 8.68262ZM3.21289 7.28809H6.09766L4.65527 3.15918L3.21289 7.28809ZM13.3639 9.81055C13.7786 9.81055 14.1227 9.68978 14.3961 9.44824C14.6695 9.20671 14.8154 8.9082 14.8336 8.55273H16.399C16.3808 9.01302 16.2372 9.44368 15.9684 9.84473C15.6995 10.2412 15.3349 10.5557 14.8746 10.7881C14.4143 11.0205 13.9176 11.1367 13.3844 11.1367C12.3499 11.1367 11.5296 10.8018 10.9234 10.1318C10.3173 9.46191 10.0143 8.53678 10.0143 7.35645V7.18555C10.0143 6.0599 10.315 5.15983 10.9166 4.48535C11.5182 3.80632 12.3385 3.4668 13.3775 3.4668C14.2571 3.4668 14.9726 3.72428 15.524 4.23926C16.08 4.74967 16.3717 5.42188 16.399 6.25586H14.8336C14.8154 5.83203 14.6695 5.4834 14.3961 5.20996C14.1272 4.93652 13.7831 4.7998 13.3639 4.7998C12.8261 4.7998 12.4114 4.99577 12.1197 5.3877C11.8281 5.77507 11.6799 6.36523 11.6754 7.1582V7.4248C11.6754 8.22689 11.8189 8.82617 12.1061 9.22266C12.3977 9.61458 12.817 9.81055 13.3639 9.81055ZM19.885 1.80566V3.60352H21.1906V4.83398H19.885V8.96289C19.885 9.24544 19.9396 9.45052 20.049 9.57812C20.163 9.70117 20.3635 9.7627 20.6506 9.7627C20.842 9.7627 21.0357 9.73991 21.2316 9.69434V10.9795C20.8534 11.0843 20.4888 11.1367 20.1379 11.1367C18.8618 11.1367 18.2238 10.4326 18.2238 9.02441V4.83398H17.007V3.60352H18.2238V1.80566H19.885ZM24.3826 11H22.7215V3.60352H24.3826V11ZM22.6189 1.68262C22.6189 1.42741 22.6987 1.21549 22.8582 1.04688C23.0223 0.878255 23.2547 0.793945 23.5555 0.793945C23.8563 0.793945 24.0887 0.878255 24.2527 1.04688C24.4168 1.21549 24.4988 1.42741 24.4988 1.68262C24.4988 1.93327 24.4168 2.1429 24.2527 2.31152C24.0887 2.47559 23.8563 2.55762 23.5555 2.55762C23.2547 2.55762 23.0223 2.47559 22.8582 2.31152C22.6987 2.1429 22.6189 1.93327 22.6189 1.68262ZM26.0365 7.2334C26.0365 6.50879 26.1801 5.8571 26.4672 5.27832C26.7543 4.69499 27.1576 4.24837 27.6771 3.93848C28.1967 3.62402 28.7937 3.4668 29.4682 3.4668C30.4662 3.4668 31.2751 3.78809 31.8949 4.43066C32.5193 5.07324 32.8565 5.92546 32.9066 6.9873L32.9135 7.37695C32.9135 8.10612 32.7722 8.75781 32.4896 9.33203C32.2117 9.90625 31.8106 10.3506 31.2865 10.665C30.767 10.9795 30.1654 11.1367 29.4818 11.1367C28.4382 11.1367 27.602 10.7904 26.973 10.0977C26.3487 9.40039 26.0365 8.47298 26.0365 7.31543V7.2334ZM27.6977 7.37695C27.6977 8.13802 27.8549 8.73503 28.1693 9.16797C28.4838 9.59635 28.9213 9.81055 29.4818 9.81055C30.0424 9.81055 30.4776 9.5918 30.7875 9.1543C31.102 8.7168 31.2592 8.0765 31.2592 7.2334C31.2592 6.486 31.0974 5.89355 30.7738 5.45605C30.4548 5.01855 30.0196 4.7998 29.4682 4.7998C28.9258 4.7998 28.4952 5.01628 28.1762 5.44922C27.8572 5.8776 27.6977 6.52018 27.6977 7.37695ZM36.0098 3.60352L36.0576 4.45801C36.6045 3.7972 37.3223 3.4668 38.2109 3.4668C39.7513 3.4668 40.5352 4.34863 40.5625 6.1123V11H38.9014V6.20801C38.9014 5.73861 38.7988 5.39225 38.5938 5.16895C38.3932 4.94108 38.0628 4.82715 37.6025 4.82715C36.9326 4.82715 36.4336 5.13021 36.1055 5.73633V11H34.4443V3.60352H36.0098Z" fill="#5F6368"/>
</svg>
