<svg width="24" height="24" viewBox="0 0 24 24" fill="none" xmlns="http://www.w3.org/2000/svg">
<g id="airline_seat_recline_extra_24px">
<path id="icon/notification/airline_seat_recline_extra_24px" fill-rule="evenodd" clip-rule="evenodd" d="M5.34998 6.13969C4.44995 5.49969 4.22998 4.25969 4.85999 3.34969C5.48999 2.44969 6.73999 2.22969 7.65002 2.85969C8.55005 3.49969 8.77002 4.73969 8.14001 5.64969C7.5 6.54969 6.26001 6.76969 5.34998 6.13969ZM16 19.4997H8.93005C7.44995 19.4997 6.18994 18.4197 5.96997 16.9597L4 7.49969H2L3.98999 17.2597C4.37 19.6997 6.46997 21.4997 8.93994 21.4997H16V19.4997ZM11.35 15.4997H16.23L22 19.9997L20.5 21.4997L16.6799 18.4997H9.82996C8.39001 18.4997 7.16003 17.4797 6.88 16.0597L5.53003 10.1397C5.31995 8.91969 6.14001 7.74969 7.37 7.52969H7.39001C7.71997 7.46969 8.05994 7.49969 8.38 7.58969C8.65002 7.66969 8.91003 7.78969 9.14001 7.96969L10.78 9.23969C12.03 10.2197 13.84 10.7997 15.47 10.4897V12.6197C13.6 12.9397 11.9 12.2897 10.3199 11.3997L11.35 15.4997Z" fill="black" fill-opacity="0.54"/>
</g>
</svg>
