<svg width="24" height="24" viewBox="0 0 24 24" fill="none" xmlns="http://www.w3.org/2000/svg">
<g id="airline_seat_flat_angled_24px">
<path id="icon/notification/airline_seat_flat_angled_24px" fill-rule="evenodd" clip-rule="evenodd" d="M4.70068 5.05C5.12073 4.85 5.56067 4.75 6.00073 4.75C7.12073 4.75 8.19067 5.38 8.71069 6.45C9.42078 7.94 8.79077 9.73 7.30078 10.45C6.88074 10.65 6.44067 10.75 6.00073 10.75C4.88074 10.75 3.81067 10.12 3.30078 9.05C2.58069 7.55 3.21069 5.76 4.70068 5.05ZM6.90076 7.31C6.70068 6.9 6.31067 6.75 6.00073 6.75C5.85071 6.75 5.71069 6.79 5.57068 6.85C5.24072 7.01 5.11072 7.27 5.06067 7.41C5.01074 7.56 4.94067 7.85 5.11072 8.19C5.30066 8.6 5.70068 8.75 6.00073 8.75C6.15076 8.75 6.29077 8.71 6.43066 8.65C6.92078 8.41 7.14075 7.81 6.90076 7.31ZM19.1608 11.27L12.4707 8.86L11.7708 10.76L20.3607 13.87L20.3707 13.85C20.5608 13.35 20.5308 12.8 20.3108 12.32C20.0907 11.83 19.6808 11.46 19.1608 11.27ZM10.0007 15.44L14.0007 16.88V17.25H10.0007V15.44ZM11.2806 6.3L9.20068 11.96L21.5607 16.43L22.2507 14.54C23.0206 12.45 21.9407 10.15 19.8407 9.39L11.2806 6.3ZM1.50073 12.39L2.19067 10.5L21.2107 17.36L20.5208 19.25L16.0007 17.62V19.25H8.00073V14.73L1.50073 12.39Z" fill="black" fill-opacity="0.54"/>
</g>
</svg>
