<svg width="24" height="24" viewBox="0 0 24 24" fill="none" xmlns="http://www.w3.org/2000/svg">
<g id="airline_seat_recline_normal_24px">
<path id="icon/notification/airline_seat_recline_normal_24px" fill-rule="evenodd" clip-rule="evenodd" d="M7.58997 5.6625C6.81006 4.8825 6.81006 3.6125 7.58997 2.8325C8.37 2.0525 9.64001 2.0525 10.42 2.8325C11.2 3.6125 11.2 4.8825 10.42 5.6625C9.63 6.4525 8.37 6.4525 7.58997 5.6625ZM6 16.2525V7.25249H4V16.2525C4 19.0125 6.23999 21.2525 9 21.2525H15V19.2525H9C7.33997 19.2525 6 17.9125 6 16.2525ZM14.9301 15.2525L20 20.3225L18.5699 21.7525L15.0699 18.2525H10C8.33997 18.2525 7 16.9125 7 15.2525V9.50249C7 8.2625 8.01001 7.25249 9.25 7.25249H9.28003C9.62 7.25249 9.94995 7.34249 10.24 7.4825C10.5 7.60249 10.74 7.77249 10.9301 7.9825L12.33 9.53249C13.39 10.7025 15.34 11.5925 17 11.5725V13.7325C15.1 13.7325 12.9 12.7225 11.5 11.5725V15.2525H14.9301Z" fill="black" fill-opacity="0.54"/>
</g>
</svg>
