<svg width="24" height="24" viewBox="0 0 24 24" fill="none" xmlns="http://www.w3.org/2000/svg">
<g id="airline_seat_flat_24px">
<path id="icon/notification/airline_seat_flat_24px" fill-rule="evenodd" clip-rule="evenodd" d="M5 12.5C5.77991 12.5 6.54993 12.2 7.14001 11.6C8.29993 10.41 8.27991 8.52 7.09998 7.36C6.51001 6.79 5.75 6.5 5 6.5C4.21997 6.5 3.44995 6.8 2.85999 7.4C1.69995 8.59 1.71997 10.48 2.90002 11.64C3.48999 12.21 4.25 12.5 5 12.5ZM4.29004 8.8C4.47998 8.61 4.72998 8.5 5 8.5C5.26001 8.5 5.51001 8.6 5.70007 8.78C6.1001 9.17 6.1001 9.79 5.72009 10.19C5.52002 10.39 5.27002 10.5 5 10.5C4.73999 10.5 4.48999 10.4 4.30005 10.22C3.90002 9.82 3.90002 9.2 4.29004 8.8ZM9 6.5H18C20.21 6.5 22 8.29 22 10.5V12.5H9V6.5ZM11 10.5V8.5H18C19.1 8.5 20 9.4 20 10.5H11ZM8 17.5V15.5H2V13.5H22V15.5H16V17.5H8Z" fill="black" fill-opacity="0.54"/>
</g>
</svg>
