<svg width="24" height="24" viewBox="0 0 24 24" fill="none" xmlns="http://www.w3.org/2000/svg">
<g id="alarm_add_24px">
<path id="icon/action/alarm_add_24px" fill-rule="evenodd" clip-rule="evenodd" d="M6.66333 1.90521L7.94458 3.44101L3.33716 7.28461L2.05603 5.74881L6.66333 1.90521ZM17.3365 1.90582L21.9438 5.74942L20.6627 7.28522L16.0553 3.44162L17.3365 1.90582ZM3 13.0948C3 8.12482 7.03003 4.09482 12 4.09482C16.97 4.09482 21 8.12482 21 13.0948C21 18.0648 16.97 22.0948 12 22.0948C7.03003 22.0948 3 18.0648 3 13.0948ZM12 20.0948C8.14001 20.0948 5 16.9548 5 13.0948C5 9.23483 8.14001 6.09482 12 6.09482C15.86 6.09482 19 9.23483 19 13.0948C19 16.9548 15.86 20.0948 12 20.0948ZM11 12.0948V9.09482H13V12.0948H16V14.0948H13V17.0948H11V14.0948H8V12.0948H11Z" fill="black" fill-opacity="0.54"/>
</g>
</svg>
