<svg width="24" height="24" viewBox="0 0 24 24" fill="none" xmlns="http://www.w3.org/2000/svg">
<g id="alarm_off_24px">
<path id="icon/action/alarm_off_24px" fill-rule="evenodd" clip-rule="evenodd" d="M8.16296 3.44501L7.703 3.82501L6.28296 2.405L6.88293 1.905L8.16296 3.44501ZM17.5596 1.90601L22.1669 5.7496L20.8857 7.2854L16.2783 3.4418L17.5596 1.90601ZM10.2629 6.38501C10.8829 6.20499 11.543 6.095 12.223 6.095C16.083 6.095 19.223 9.23502 19.223 13.095C19.223 13.775 19.113 14.435 18.933 15.055L20.493 16.615C20.963 15.535 21.223 14.345 21.223 13.095C21.223 8.125 17.193 4.095 12.223 4.095C10.973 4.095 9.78296 4.35501 8.69299 4.815L10.2629 6.38501ZM1.83301 3.60501L3.24304 2.19501L21.623 20.585L20.213 21.995L18.113 19.895C16.533 21.265 14.473 22.095 12.223 22.095C7.25305 22.095 3.22302 18.065 3.22302 13.095C3.22302 10.845 4.05298 8.785 5.42297 7.20502L4.62305 6.405L3.56299 7.285L2.28296 5.745L3.203 4.97501L1.83301 3.60501ZM12.223 20.095C8.36304 20.095 5.22302 16.955 5.22302 13.095C5.22302 11.395 5.83301 9.83499 6.84302 8.625L16.693 18.475C15.483 19.485 13.923 20.095 12.223 20.095Z" fill="black" fill-opacity="0.54"/>
</g>
</svg>
