<svg width="31" height="12" viewBox="0 0 31 12" fill="none" xmlns="http://www.w3.org/2000/svg">
<path id="Alert" d="M6.58301 8.68262H2.72754L1.9209 11H0.123047L3.88281 1.04688H5.43457L9.20117 11H7.39648L6.58301 8.68262ZM3.21289 7.28809H6.09766L4.65527 3.15918L3.21289 7.28809ZM12.0924 11H10.4312V0.5H12.0924V11ZM17.3146 11.1367C16.2619 11.1367 15.4074 10.8063 14.7512 10.1455C14.0995 9.48014 13.7736 8.59603 13.7736 7.49316V7.28809C13.7736 6.5498 13.9149 5.89128 14.1975 5.3125C14.4846 4.72917 14.8856 4.27572 15.4006 3.95215C15.9156 3.62858 16.4898 3.4668 17.1232 3.4668C18.1304 3.4668 18.9074 3.78809 19.4543 4.43066C20.0057 5.07324 20.2814 5.98242 20.2814 7.1582V7.82812H15.4484C15.4986 8.4388 15.7014 8.92188 16.0568 9.27734C16.4169 9.63281 16.868 9.81055 17.4104 9.81055C18.1714 9.81055 18.7912 9.50293 19.2697 8.8877L20.1652 9.74219C19.869 10.1842 19.4725 10.5283 18.9758 10.7744C18.4836 11.016 17.9299 11.1367 17.3146 11.1367ZM17.1164 4.7998C16.6607 4.7998 16.2915 4.95931 16.009 5.27832C15.731 5.59733 15.5533 6.04167 15.4758 6.61133H18.6408V6.48828C18.6044 5.93229 18.4562 5.51302 18.1965 5.23047C17.9367 4.94336 17.5767 4.7998 17.1164 4.7998ZM25.5994 5.12109C25.3807 5.08464 25.1551 5.06641 24.9227 5.06641C24.1616 5.06641 23.6489 5.35807 23.3846 5.94141V11H21.7234V3.60352H23.3094L23.3504 4.43066C23.7514 3.78809 24.3074 3.4668 25.0184 3.4668C25.2553 3.4668 25.4513 3.4987 25.6063 3.5625L25.5994 5.12109ZM29.2221 1.80566V3.60352H30.5277V4.83398H29.2221V8.96289C29.2221 9.24544 29.2768 9.45052 29.3861 9.57812C29.5001 9.70117 29.7006 9.7627 29.9877 9.7627C30.1791 9.7627 30.3728 9.73991 30.5688 9.69434V10.9795C30.1905 11.0843 29.8259 11.1367 29.475 11.1367C28.199 11.1367 27.5609 10.4326 27.5609 9.02441V4.83398H26.3441V3.60352H27.5609V1.80566H29.2221Z" fill="#5F6368"/>
</svg>
