<svg width="24" height="24" viewBox="0 0 24 24" fill="none" xmlns="http://www.w3.org/2000/svg">
<g id="all_inbox_24px">
<path id="icon/action/all_inbox_24px" fill-rule="evenodd" clip-rule="evenodd" d="M19 3H5C3.90002 3 3 3.89999 3 5V12C3 13.1 3.90002 14 5 14H19C20.1 14 21 13.1 21 12V5C21 3.89999 20.1 3 19 3ZM5 10H8.13C8.33997 10.78 8.80005 11.47 9.40002 12H5V10ZM14.6 12H19V10H15.87C15.66 10.78 15.2 11.47 14.6 12ZM19 8H14V9C14 10.07 13.0699 11 12 11C10.9301 11 10 10.07 10 9V8H5V5H19V8ZM14 15H17H21V19C21 20.1 20.1 21 19 21H5C3.90002 21 3 20.1 3 19V15H10V16C10 16.47 10.1899 16.9 10.48 17.25C10.85 17.7 11.4 18 12 18C12.6 18 13.15 17.7 13.52 17.25C13.8101 16.9 14 16.47 14 16V15ZM5 17H8.13C8.14417 17.0638 8.16833 17.1225 8.19189 17.1798C8.20166 17.2034 8.21118 17.2267 8.21997 17.25C8.45996 17.93 8.87 18.53 9.40002 19H5V17ZM14.6 19H19V17H15.87C15.8558 17.0634 15.8319 17.1219 15.8085 17.1788C15.7986 17.2027 15.7888 17.2263 15.78 17.25C15.5499 17.93 15.14 18.53 14.6 19Z" fill="black" fill-opacity="0.54"/>
</g>
</svg>
