<svg width="24" height="24" viewBox="0 0 24 24" fill="none" xmlns="http://www.w3.org/2000/svg">
<g id="android_24px">
<path id="icon/action/android_24px" fill-rule="evenodd" clip-rule="evenodd" d="M16.83 0.859985L15.53 2.16C17.03 3.25 18 5.01001 18 7H6C6 5.01001 6.96997 3.26001 8.44995 2.17001L7.14001 0.859985C6.93994 0.660004 6.93994 0.350006 7.14001 0.149994C7.33997 -0.0499878 7.65002 -0.0499878 7.84998 0.149994L9.33997 1.63C10.14 1.23001 11.04 1 12 1C12.95 1 13.85 1.23001 14.64 1.63L16.12 0.149994C16.3199 -0.0499878 16.63 -0.0499878 16.83 0.149994C17.03 0.350006 17.03 0.660004 16.83 0.859985ZM2 9.5C2 8.67001 2.67004 8 3.5 8C4.32996 8 5 8.67001 5 9.5V16.5C5 17.33 4.32996 18 3.5 18C2.67004 18 2 17.33 2 16.5V9.5ZM7 19C6.44995 19 6 18.55 6 18V8H18V18C18 18.55 17.55 19 17 19H16V22.5C16 23.33 15.33 24 14.5 24C13.67 24 13 23.33 13 22.5V19H11V22.5C11 23.33 10.33 24 9.5 24C8.67004 24 8 23.33 8 22.5V19H7ZM20.5 8C19.67 8 19 8.67001 19 9.5V16.5C19 17.33 19.67 18 20.5 18C21.33 18 22 17.33 22 16.5V9.5C22 8.67001 21.33 8 20.5 8ZM10 5H9V4H10V5ZM14 5H15V4H14V5Z" fill="black" fill-opacity="0.54"/>
</g>
</svg>
