<svg width="24" height="24" viewBox="0 0 24 24" fill="none" xmlns="http://www.w3.org/2000/svg">
<g id="arrow_drop_down_circle_24px">
<path id="icon/navigation/arrow_drop_down_circle_24px" fill-rule="evenodd" clip-rule="evenodd" d="M12 2C6.47998 2 2 6.48001 2 12C2 17.52 6.47998 22 12 22C17.52 22 22 17.52 22 12C22 6.48001 17.52 2 12 2ZM12 4C16.41 4 20 7.59 20 12C20 16.41 16.41 20 12 20C7.58997 20 4 16.41 4 12C4 7.59 7.58997 4 12 4ZM8 11L12 15L16 11H8Z" fill="black" fill-opacity="0.54"/>
</g>
</svg>
