<svg width="24" height="24" viewBox="0 0 24 24" fill="none" xmlns="http://www.w3.org/2000/svg">
<g id="assistant_24px">
<path id="icon/image/assistant_24px" fill-rule="evenodd" clip-rule="evenodd" d="M19 1.5H5C3.90002 1.5 3 2.39999 3 3.5V17.5C3 18.6 3.90002 19.5 5 19.5H9L12 22.5L15 19.5H19C20.1 19.5 21 18.6 21 17.5V3.5C21 2.39999 20.1 1.5 19 1.5ZM19 17.5H14.17L13.58 18.09L12 19.67L10.41 18.08L9.82996 17.5H5V3.5H19V17.5ZM13.88 12.38L12 16.5L10.12 12.38L6 10.5L10.12 8.62L12 4.5L13.88 8.62L18 10.5L13.88 12.38Z" fill="black" fill-opacity="0.54"/>
</g>
</svg>
