<svg width="24" height="24" viewBox="0 0 24 24" fill="none" xmlns="http://www.w3.org/2000/svg">
<g id="backup_24px">
<path id="icon/action/backup_24px" fill-rule="evenodd" clip-rule="evenodd" d="M19.35 10.04C18.67 6.59 15.64 4 12 4C9.10999 4 6.59998 5.64001 5.34998 8.04001C2.33997 8.35999 0 10.91 0 14C0 17.31 2.68994 20 6 20H19C21.76 20 24 17.76 24 15C24 12.36 21.95 10.22 19.35 10.04ZM19 18H6C3.79004 18 2 16.21 2 14C2 11.95 3.53003 10.24 5.56006 10.03L6.63 9.92001L7.13 8.97C8.07996 7.14001 9.93994 6 12 6C14.62 6 16.88 7.85999 17.39 10.43L17.6899 11.93L19.22 12.04C20.78 12.14 22 13.45 22 15C22 16.65 20.65 18 19 18ZM10.55 13H8L12 9L16 13H13.45V16H10.55V13Z" fill="black" fill-opacity="0.54"/>
</g>
</svg>
