<svg width="24" height="24" viewBox="0 0 24 24" fill="none" xmlns="http://www.w3.org/2000/svg">
<g id="beach_access_24px">
<path id="icon/places/beach_access_24px" fill-rule="evenodd" clip-rule="evenodd" d="M13.1157 3.00119C10.5356 3.00119 7.95569 3.9812 5.97571 5.9512L5.9657 5.96118C2.01562 9.91119 2.01562 16.3212 5.9657 20.2712L20.2656 5.96118C18.2957 3.99118 15.7057 3.00119 13.1157 3.00119ZM20.9968 19.5704L19.5685 20.9988L13.1268 14.5571L14.5552 13.1288L20.9968 19.5704ZM4.99573 13.1212C4.99573 14.6112 5.39575 16.0312 6.13574 17.2712L7.52576 15.8912C6.3457 14.2412 5.64575 12.3612 5.45569 10.4512C5.15576 11.3012 4.99573 12.1912 4.99573 13.1212ZM8.97571 14.4312C7.62573 12.3812 7.11572 9.93121 7.5957 7.6012C8.17566 7.4812 8.75574 7.4212 9.3457 7.4212C11.1456 7.4212 12.8956 7.97119 14.4257 8.9812L8.97571 14.4312ZM13.1157 5.00119C12.1857 5.00119 11.2957 5.16119 10.4457 5.46118C12.3557 5.65118 14.2257 6.3512 15.8757 7.53119L17.2656 6.1412C16.0256 5.40118 14.6057 5.00119 13.1157 5.00119Z" fill="black" fill-opacity="0.54"/>
</g>
</svg>
