<svg width="24" height="24" viewBox="0 0 24 24" fill="none" xmlns="http://www.w3.org/2000/svg">
<g id="beenhere_24px">
<path id="icon/maps/beenhere_24px" fill-rule="evenodd" clip-rule="evenodd" d="M19 1H5C3.90002 1 3.01001 1.89999 3.01001 3L3 15.93C3 16.62 3.34998 17.23 3.88 17.59L12 23L20.11 17.59C20.64 17.23 20.99 16.62 20.99 15.93L21 3C21 1.89999 20.1 1 19 1ZM12 20.6L5 15.94V3H19V15.93L12 20.6ZM7.40997 10.59L9.98999 13.18L16.58 6.57999L18 8L10 16L6 12L7.40997 10.59Z" fill="black" fill-opacity="0.54"/>
</g>
</svg>
