<svg width="24" height="24" viewBox="0 0 24 24" fill="none" xmlns="http://www.w3.org/2000/svg">
<g id="brightness_7_24px">
<path id="icon/image/brightness_7_24px" fill-rule="evenodd" clip-rule="evenodd" d="M20 8.69V4H15.3099L12 0.690002L8.68994 4H4V8.69L0.689941 12L4 15.31V20H8.68994L12 23.31L15.3099 20H20V15.31L23.3099 12L20 8.69ZM17.9999 14.48V18H14.4799L11.9999 20.48L9.5199 18H5.99988V14.48L3.5199 12L5.99988 9.51999V6H9.5199L11.9999 3.51999L14.4799 6H17.9999V9.51999L20.4799 12L17.9999 14.48ZM6.5 12C6.5 8.97 8.96997 6.5 12 6.5C15.03 6.5 17.5 8.97 17.5 12C17.5 15.03 15.03 17.5 12 17.5C8.96997 17.5 6.5 15.03 6.5 12ZM12 15.5C10.0699 15.5 8.5 13.93 8.5 12C8.5 10.07 10.0699 8.5 12 8.5C13.9301 8.5 15.5 10.07 15.5 12C15.5 13.93 13.9301 15.5 12 15.5ZM10 12C10 10.8954 10.8954 10 12 10C13.1046 10 14 10.8954 14 12C14 13.1046 13.1046 14 12 14C10.8954 14 10 13.1046 10 12Z" fill="black" fill-opacity="0.54"/>
</g>
</svg>
