<svg width="24" height="24" viewBox="0 0 24 24" fill="none" xmlns="http://www.w3.org/2000/svg">
<g id="brightness_high_24px">
<path id="icon/device/brightness_high_24px" fill-rule="evenodd" clip-rule="evenodd" d="M20 8.69V4H15.31L12 0.69L8.69 4H4V8.69L0.689999 12L4 15.31V20H8.69L12 23.31L15.31 20H20V15.31L23.31 12L20 8.69ZM18 14.48V18H14.48L12 20.48L9.52 18H6V14.48L3.52 12L6 9.52V6H9.52L12 3.52L14.48 6H18V9.52L20.48 12L18 14.48ZM6 12C6 8.69 8.69 6 12 6C15.31 6 18 8.69 18 12C18 15.31 15.31 18 12 18C8.69 18 6 15.31 6 12ZM12 16C9.79 16 8 14.21 8 12C8 9.79 9.79 8 12 8C14.21 8 16 9.79 16 12C16 14.21 14.21 16 12 16ZM9.5 12C9.5 10.6193 10.6193 9.5 12 9.5C13.3807 9.5 14.5 10.6193 14.5 12C14.5 13.3807 13.3807 14.5 12 14.5C10.6193 14.5 9.5 13.3807 9.5 12Z" fill="black" fill-opacity="0.54"/>
</g>
</svg>
