<svg width="24" height="24" viewBox="0 0 24 24" fill="none" xmlns="http://www.w3.org/2000/svg">
<g id="brightness_3_24px">
<path id="icon/image/brightness_3_24px" fill-rule="evenodd" clip-rule="evenodd" d="M5.5 2.45999C6.45001 2.16 7.45001 2 8.5 2C14.02 2 18.5 6.48001 18.5 12C18.5 17.52 14.02 22 8.5 22C7.45001 22 6.45001 21.84 5.5 21.54C9.56 20.27 12.5 16.48 12.5 12C12.5 7.51999 9.56 3.73001 5.5 2.45999ZM16.5 12C16.5 8.92001 14.75 6.23999 12.2 4.91C13.66 6.91 14.5 9.37 14.5 12C14.5 14.63 13.66 17.09 12.2 19.09C14.75 17.76 16.5 15.08 16.5 12Z" fill="black" fill-opacity="0.54"/>
</g>
</svg>
