<svg width="24" height="24" viewBox="0 0 24 24" fill="none" xmlns="http://www.w3.org/2000/svg">
<g id="brightness_auto_24px">
<path id="icon/device/brightness_auto_24px" fill-rule="evenodd" clip-rule="evenodd" d="M20 8.69V4H15.31L12 0.69L8.69 4H4V8.69L0.690002 12L4 15.31V20H8.69L12 23.31L15.31 20H20V15.31L23.31 12L20 8.69ZM7.8 16L11 7H13L16.2 16H14.3L13.6 14H10.4L9.7 16H7.8ZM12 9L10.85 12.65H13.15L12 9ZM18 18V14.48L20.48 12L18 9.52V6H14.48L12 3.52L9.52 6H6.00001V9.52L3.52 12L6.00001 14.48V18H9.52L12 20.48L14.48 18H18Z" fill="black" fill-opacity="0.54"/>
</g>
</svg>
