<svg width="24" height="24" viewBox="0 0 24 24" fill="none" xmlns="http://www.w3.org/2000/svg">
<g id="brightness_4_24px">
<path id="icon/image/brightness_4_24px" fill-rule="evenodd" clip-rule="evenodd" d="M20 8.69V4H15.3099L12 0.690002L8.68994 4H4V8.69L0.689941 12L4 15.31V20H8.68994L12 23.31L15.3099 20H20V15.31L23.3099 12L20 8.69ZM17.9999 14.48V18H14.4799L11.9999 20.48L9.5199 18H5.99988V14.48L3.5199 12L5.99988 9.51999V6H9.5199L11.9999 3.51999L14.4799 6H17.9999V9.51999L20.4799 12L17.9999 14.48ZM10.21 7.45999C10.84 7.17001 11.5499 7 12.2899 7C15.0499 7 17.2899 9.23999 17.2899 12C17.2899 14.76 15.0499 17 12.2899 17C11.5499 17 10.84 16.83 10.21 16.54C11.9299 15.75 13.13 14.01 13.13 12C13.13 9.98999 11.9299 8.25 10.21 7.45999Z" fill="black" fill-opacity="0.54"/>
</g>
</svg>
