<svg width="24" height="24" viewBox="0 0 24 24" fill="none" xmlns="http://www.w3.org/2000/svg">
<g id="brightness_2_24px">
<path id="icon/image/brightness_2_24px" fill-rule="evenodd" clip-rule="evenodd" d="M4.5 3.35001C5.96997 2.5 7.67999 2 9.5 2C15.02 2 19.5 6.48001 19.5 12C19.5 17.52 15.02 22 9.5 22C7.67999 22 5.96997 21.5 4.5 20.65C7.48999 18.92 9.5 15.7 9.5 12C9.5 8.29999 7.48999 5.07999 4.5 3.35001ZM17.5 12C17.5 7.59 13.91 4 9.5 4C9.15997 4 8.82001 4.01999 8.48999 4.07001C10.4 6.23001 11.5 9.04999 11.5 12C11.5 14.95 10.4 17.77 8.48999 19.93C8.82001 19.98 9.15997 20 9.5 20C13.91 20 17.5 16.41 17.5 12Z" fill="black" fill-opacity="0.54"/>
</g>
</svg>
