<svg width="24" height="24" viewBox="0 0 24 24" fill="none" xmlns="http://www.w3.org/2000/svg">
<g id="brightness_5_24px">
<path id="icon/image/brightness_5_24px" fill-rule="evenodd" clip-rule="evenodd" d="M20 4V8.69L23.3099 12L20 15.31V20H15.3099L12 23.31L8.68994 20H4V15.31L0.689941 12L4 8.69V4H8.68994L12 0.690002L15.3099 4H20ZM17.9999 18V14.48L20.4799 12L17.9999 9.51999V6H14.4799L11.9999 3.51999L9.5199 6H5.99988V9.51999L3.5199 12L5.99988 14.48V18H9.5199L11.9999 20.48L14.4799 18H17.9999ZM12 6.5C8.96997 6.5 6.5 8.97 6.5 12C6.5 15.03 8.96997 17.5 12 17.5C15.03 17.5 17.5 15.03 17.5 12C17.5 8.97 15.03 6.5 12 6.5ZM8.5 12C8.5 13.93 10.0699 15.5 12 15.5C13.9301 15.5 15.5 13.93 15.5 12C15.5 10.07 13.9301 8.5 12 8.5C10.0699 8.5 8.5 10.07 8.5 12Z" fill="black" fill-opacity="0.54"/>
</g>
</svg>
