<svg width="24" height="24" viewBox="0 0 24 24" fill="none" xmlns="http://www.w3.org/2000/svg">
<g id="broken_image_24px">
<path id="icon/image/broken_image_24px" fill-rule="evenodd" clip-rule="evenodd" d="M19 3H5C3.90002 3 3 3.89999 3 5V19C3 20.1 3.90002 21 5 21H19C20.1 21 21 20.1 21 19V5C21 3.89999 20.1 3 19 3ZM19 19H5V14.42L5.98999 15.41L9.98999 11.41L13.99 15.41L17.99 11.42L19 12.43V19ZM17.99 8.57999L19 9.59V5H5V11.59L5.98999 12.59L9.98999 8.59L13.99 12.59L17.99 8.57999Z" fill="black" fill-opacity="0.54"/>
</g>
</svg>
