<svg width="24" height="24" viewBox="0 0 24 24" fill="none" xmlns="http://www.w3.org/2000/svg">
<g id="brush_24px">
<path id="icon/image/brush_24px" fill-rule="evenodd" clip-rule="evenodd" d="M19.1688 3C18.9088 3 18.6588 3.10001 18.4587 3.29001L9.49878 12.25L12.2488 15L21.2087 6.04001C21.5988 5.64999 21.5988 5.01999 21.2087 4.63L19.8688 3.29001C19.6688 3.09 19.4188 3 19.1688 3ZM7.49878 16C8.04883 16 8.49878 16.45 8.49878 17C8.49878 18.1 7.59875 19 6.49878 19C6.32874 19 6.16882 18.98 5.99878 18.95C6.30884 18.4 6.49878 17.74 6.49878 17C6.49878 16.45 6.94873 16 7.49878 16ZM4.49878 17C4.49878 15.34 5.83875 14 7.49878 14C9.15881 14 10.4988 15.34 10.4988 17C10.4988 19.21 8.70874 21 6.49878 21C4.98877 21 3.41882 20.22 2.49878 19C3.33875 19 4.49878 18.31 4.49878 17Z" fill="black" fill-opacity="0.54"/>
</g>
</svg>
