<svg width="24" height="24" viewBox="0 0 24 24" fill="none" xmlns="http://www.w3.org/2000/svg">
<g id="call_end_24px">
<path id="icon/communication/call_end_24px" fill-rule="evenodd" clip-rule="evenodd" d="M0.289978 12.24C3.34003 9.35001 7.46002 7.57001 12 7.57001C16.54 7.57001 20.66 9.35001 23.71 12.24C23.89 12.42 24 12.67 24 12.95C24 13.23 23.89 13.48 23.71 13.66L21.23 16.14C21.05 16.32 20.8 16.43 20.52 16.43C20.25 16.43 20 16.32 19.82 16.15C19.03 15.41 18.13 14.79 17.15 14.3C16.82 14.14 16.59 13.8 16.59 13.4V10.3C15.15 9.82001 13.6 9.57001 12 9.57001C10.4 9.57001 8.84998 9.82001 7.40002 10.29V13.39C7.40002 13.78 7.16998 14.13 6.84003 14.29C5.85999 14.78 4.96997 15.41 4.17999 16.14C4 16.32 3.75 16.42 3.47998 16.42C3.20001 16.42 2.95001 16.31 2.77002 16.13L0.289978 13.65C0.109985 13.48 0 13.23 0 12.95C0 12.67 0.109985 12.42 0.289978 12.24ZM5.40002 11.09V12.79C4.75 13.16 4.12 13.58 3.53003 14.06L2.46002 12.99C3.37 12.24 4.36005 11.61 5.40002 11.09ZM18.59 11.09L18.6 11.0948V12.8C19.27 13.18 19.9 13.6 20.48 14.07L21.55 13C20.6329 12.2424 19.6463 11.6041 18.6 11.0948V11.09H18.59Z" fill="black" fill-opacity="0.54"/>
</g>
</svg>
