<svg width="24" height="24" viewBox="0 0 24 24" fill="none" xmlns="http://www.w3.org/2000/svg">
<g id="camera_front_24px">
<path id="icon/image/camera_front_24px" fill-rule="evenodd" clip-rule="evenodd" d="M7 0H17C18.1 0 19 0.899994 19 2V16C19 17.1 18.1 18 17 18H10H7C5.90002 18 5 17.1 5 16V2C5 0.899994 5.90002 0 7 0ZM10 18L13 21L10 24V22H5V20H10V18ZM11.99 8C13.1 8 14 7.10001 14 6C14 4.89999 13.1 4 11.99 4C10.88 4 10 4.89999 10 6C10 7.10001 10.89 8 11.99 8ZM19 20H14V22H19V20ZM17 16H7V14H17V16ZM12 10C13.67 10 17 10.83 17 12.5V2H7V12.5C7 10.83 10.33 10 12 10Z" fill="black" fill-opacity="0.54"/>
</g>
</svg>
