<svg width="24" height="24" viewBox="0 0 24 24" fill="none" xmlns="http://www.w3.org/2000/svg">
<g id="camera_rear_24px">
<path id="icon/image/camera_rear_24px" fill-rule="evenodd" clip-rule="evenodd" d="M7 0H17C18.1 0 19 0.899994 19 2V16C19 17.1 18.1 18 17 18H10H7C5.90002 18 5 17.1 5 16V2C5 0.899994 5.90002 0 7 0ZM10 18L13 21L10 24V22H5V20H10V18ZM14 20H19V22H14V20ZM17 16H7V2H17V16ZM13.99 5C14 6.10001 13.1 7 12 7C10.89 7 10 6.10001 10 5C10 3.89999 10.89 3 11.99 3C13.09 3 13.99 3.89999 13.99 5Z" fill="black" fill-opacity="0.54"/>
</g>
</svg>
