<svg width="24" height="24" viewBox="0 0 24 24" fill="none" xmlns="http://www.w3.org/2000/svg">
<g id="cancel_presentation_24px">
<path id="icon/communication/cancel_presentation_24px" fill-rule="evenodd" clip-rule="evenodd" d="M21 3H3C1.90002 3 1 3.89999 1 5V19C1 20.1 1.90002 21 3 21H21C22.1 21 23 20.1 23 19V5C23 3.89999 22.1 3 21 3ZM21 5V19H3V5H21ZM12 13.36L9.40997 15.95L8 14.54L10.59 11.95L8 9.36002L9.40997 7.95001L12 10.54L14.59 7.95001L16 9.36002L13.41 11.95L16 14.54L14.59 15.95L12 13.36Z" fill="black" fill-opacity="0.54"/>
</g>
</svg>
