<svg width="24" height="24" viewBox="0 0 24 24" fill="none" xmlns="http://www.w3.org/2000/svg">
<g id="cell_wifi_24px">
<path id="icon/communication/cell_wifi_24px" fill-rule="evenodd" clip-rule="evenodd" d="M4.255 6.72125L2.96503 5.43124C6.86505 1.52124 13.205 1.52124 17.1151 5.43124L15.825 6.72125C12.635 3.53125 7.44501 3.53125 4.255 6.72125ZM5.03503 21.5013L21.035 5.47125V21.5013H17.035V19.5013H19.035V10.2812L17.035 12.2812V9.48126L5.03503 21.5013ZM17.035 12.2812L9.815 19.5013H17.035V12.2812ZM8.10504 10.5713L10.035 12.5013L11.965 10.5713C10.895 9.51123 9.17505 9.51123 8.10504 10.5713ZM6.82501 9.29123L5.53503 8.00122C8.01501 5.52124 12.0551 5.52124 14.535 8.00122L13.255 9.29123C11.475 7.52124 8.59503 7.52124 6.82501 9.29123Z" fill="black" fill-opacity="0.54"/>
</g>
</svg>
