<svg width="24" height="24" viewBox="0 0 24 24" fill="none" xmlns="http://www.w3.org/2000/svg">
<g id="child_care_24px">
<path id="icon/places/child_care_24px" fill-rule="evenodd" clip-rule="evenodd" d="M20.13 8.17001C21.58 8.60001 22.6899 9.82999 22.9399 11.34C22.98 11.55 23 11.77 23 12C23 12.23 22.98 12.45 22.9399 12.66C22.6899 14.18 21.58 15.4 20.14 15.83C19.62 16.93 18.87 17.92 17.97 18.72C16.38 20.14 14.29 21 12 21C9.70996 21 7.62 20.14 6.04004 18.72C5.14001 17.92 4.39001 16.94 3.87 15.83C2.42004 15.4 1.31006 14.17 1.06006 12.66C1.02002 12.45 1 12.23 1 12C1 11.77 1.02002 11.55 1.06006 11.34C1.31006 9.82001 2.42004 8.60001 3.87 8.17001C4.39001 7.06 5.14001 6.07001 6.06006 5.26001C7.64001 3.85001 9.71997 3 12 3C14.28 3 16.36 3.85001 17.9399 5.26001C18.85 6.07001 19.6 7.04999 20.13 8.17001ZM9.5 9.25C8.80969 9.25 8.25 9.80963 8.25 10.5C8.25 11.1904 8.80969 11.75 9.5 11.75C10.1903 11.75 10.75 11.1904 10.75 10.5C10.75 9.80963 10.1903 9.25 9.5 9.25ZM14.5 9.25C13.8097 9.25 13.25 9.80963 13.25 10.5C13.25 11.1904 13.8097 11.75 14.5 11.75C15.1903 11.75 15.75 11.1904 15.75 10.5C15.75 9.80963 15.1903 9.25 14.5 9.25ZM19 14C18.9348 14 18.8738 13.9915 18.8115 13.9828L18.8087 13.9824C18.7764 13.9779 18.7438 13.9734 18.71 13.97C18.51 14.64 18.22 15.26 17.85 15.83C16.6 17.74 14.45 19 12 19C9.55005 19 7.40002 17.74 6.15002 15.83C5.78003 15.26 5.48999 14.64 5.29004 13.97C5.25623 13.9734 5.22363 13.9779 5.19128 13.9824L5.18848 13.9828C5.12622 13.9915 5.06519 14 5 14C3.90002 14 3 13.1 3 12C3 10.9 3.90002 10 5 10C5.06519 10 5.12622 10.0085 5.18848 10.0172L5.19128 10.0176C5.22363 10.0221 5.25623 10.0266 5.29004 10.03C5.48999 9.35999 5.78003 8.73999 6.15002 8.17001C7.40002 6.26001 9.55005 5 12 5C14.45 5 16.6 6.26001 17.85 8.17001C18.22 8.73999 18.51 9.35999 18.71 10.03C18.7438 10.0266 18.7764 10.0221 18.8087 10.0176L18.8115 10.0172C18.8738 10.0085 18.9348 10 19 10C20.1 10 21 10.9 21 12C21 13.1 20.1 14 19 14ZM16.5 14C15.74 15.77 14.01 17 12 17C9.98999 17 8.26001 15.77 7.5 14H16.5Z" fill="black" fill-opacity="0.54"/>
</g>
</svg>
