<svg width="24" height="24" viewBox="0 0 24 24" fill="none" xmlns="http://www.w3.org/2000/svg">
<g id="child_friendly_24px">
<path id="icon/places/child_friendly_24px" fill-rule="evenodd" clip-rule="evenodd" d="M13.5 10V2C17.92 2 21.5 5.57999 21.5 10H13.5ZM15.5 4.34V8H19.16C18.55 6.29001 17.2 4.94 15.5 4.34ZM6.93994 11L5.98999 9H2.5V11H4.71997C4.71997 11 6.60999 15.07 6.83997 15.42C5.73999 16.01 5 17.17 5 18.5C5 20.43 6.56995 22 8.5 22C10.26 22 11.72 20.7 11.96 19H14.04C14.28 20.7 15.74 22 17.5 22C19.4301 22 21 20.43 21 18.5C21 17.46 20.54 16.53 19.8199 15.89C20.87 14.54 21.5 12.84 21.5 11H6.93994ZM7 18.5C7 19.33 7.67004 20 8.5 20C9.32996 20 10 19.33 10 18.5C10 17.67 9.32996 17 8.5 17C7.67004 17 7 17.67 7 18.5ZM17.5 20C16.67 20 16 19.33 16 18.5C16 17.67 16.67 17 17.5 17C18.33 17 19 17.67 19 18.5C19 19.33 18.33 20 17.5 20ZM17.95 15.03L18.24 14.66C18.64 14.15 18.95 13.59 19.16 13H7.87C7.99438 13.2527 8.10608 13.4841 8.20227 13.6834C8.36108 14.0125 8.47766 14.2541 8.54004 14.36L8.97998 15.03C10.16 15.2 11.16 15.96 11.66 17H14.34C14.9 15.82 16.11 15 17.5 15C17.65 15 17.8099 15.01 17.95 15.03Z" fill="black" fill-opacity="0.54"/>
</g>
</svg>
