<svg width="24" height="24" viewBox="0 0 24 24" fill="none" xmlns="http://www.w3.org/2000/svg">
<g id="cloud_queue_24px">
<path id="icon/file/cloud_queue_24px" fill-rule="evenodd" clip-rule="evenodd" d="M12 4C15.64 4 18.67 6.59 19.35 10.04C21.95 10.22 24 12.36 24 15C24 17.76 21.76 20 19 20H6C2.69 20 0 17.31 0 14C0 10.91 2.34003 8.36 5.34998 8.04C6.59998 5.64 9.10999 4 12 4ZM6 18H19C20.66 18 22 16.66 22 15C22 13.34 20.66 12 19 12H17.5V11.5C17.5 8.46 15.04 6 12 6C9.47998 6 7.37 7.69 6.71002 10H6C3.78998 10 2 11.79 2 14C2 16.21 3.78998 18 6 18Z" fill="black" fill-opacity="0.54"/>
</g>
</svg>
