<svg width="24" height="24" viewBox="0 0 24 24" fill="none" xmlns="http://www.w3.org/2000/svg">
<g id="colorize_24px">
<path id="icon/image/colorize_24px" fill-rule="evenodd" clip-rule="evenodd" d="M17.6694 3C17.4094 3 17.1594 3.10001 16.9594 3.29001L13.8394 6.41L11.9094 4.5L10.4994 5.91L11.9194 7.32999L2.99939 16.25V21H7.74939L16.6694 12.08L18.0894 13.5L19.4994 12.09L17.5794 10.17L20.6994 7.04999C21.0994 6.64999 21.0994 6.01999 20.7094 5.63L18.3694 3.29001C18.1694 3.10001 17.9194 3 17.6694 3ZM17.6594 5.41L18.5793 6.33002L15.8893 9.01999L14.9694 8.10001L17.6594 5.41ZM4.99939 17.08L6.91937 19L14.9794 10.94L13.0594 9.01999L4.99939 17.08Z" fill="black" fill-opacity="0.54"/>
</g>
</svg>
