<svg width="101" height="12" viewBox="0 0 101 12" fill="none" xmlns="http://www.w3.org/2000/svg">
<path id="Communication" d="M8.60645 7.75977C8.50618 8.82161 8.11426 9.65104 7.43066 10.248C6.74707 10.8405 5.83789 11.1367 4.70312 11.1367C3.91016 11.1367 3.21061 10.9499 2.60449 10.5762C2.00293 10.1979 1.53809 9.66243 1.20996 8.96973C0.881836 8.27702 0.710938 7.47266 0.697266 6.55664V5.62695C0.697266 4.68815 0.863607 3.861 1.19629 3.14551C1.52897 2.43001 2.00521 1.87858 2.625 1.49121C3.24935 1.10384 3.9694 0.910156 4.78516 0.910156C5.88346 0.910156 6.76758 1.20866 7.4375 1.80566C8.10742 2.40267 8.49707 3.24577 8.60645 4.33496H6.88379C6.80176 3.61947 6.59212 3.10449 6.25488 2.79004C5.9222 2.47103 5.43229 2.31152 4.78516 2.31152C4.0332 2.31152 3.45443 2.58724 3.04883 3.13867C2.64779 3.68555 2.44271 4.48991 2.43359 5.55176V6.43359C2.43359 7.50911 2.625 8.32943 3.00781 8.89453C3.39518 9.45964 3.96029 9.74219 4.70312 9.74219C5.38216 9.74219 5.89258 9.58952 6.23438 9.28418C6.57617 8.97884 6.79264 8.4707 6.88379 7.75977H8.60645ZM9.83652 7.2334C9.83652 6.50879 9.98008 5.8571 10.2672 5.27832C10.5543 4.69499 10.9576 4.24837 11.4771 3.93848C11.9967 3.62402 12.5937 3.4668 13.2682 3.4668C14.2662 3.4668 15.0751 3.78809 15.6949 4.43066C16.3193 5.07324 16.6565 5.92546 16.7066 6.9873L16.7135 7.37695C16.7135 8.10612 16.5722 8.75781 16.2896 9.33203C16.0117 9.90625 15.6106 10.3506 15.0865 10.665C14.567 10.9795 13.9654 11.1367 13.2818 11.1367C12.2382 11.1367 11.402 10.7904 10.773 10.0977C10.1487 9.40039 9.83652 8.47298 9.83652 7.31543V7.2334ZM11.4977 7.37695C11.4977 8.13802 11.6549 8.73503 11.9693 9.16797C12.2838 9.59635 12.7213 9.81055 13.2818 9.81055C13.8424 9.81055 14.2776 9.5918 14.5875 9.1543C14.902 8.7168 15.0592 8.0765 15.0592 7.2334C15.0592 6.486 14.8974 5.89355 14.5738 5.45605C14.2548 5.01855 13.8196 4.7998 13.2682 4.7998C12.7258 4.7998 12.2952 5.01628 11.9762 5.44922C11.6572 5.8776 11.4977 6.52018 11.4977 7.37695ZM19.8303 3.60352L19.8781 4.37598C20.3977 3.76986 21.1086 3.4668 22.0109 3.4668C22.9999 3.4668 23.6766 3.84505 24.0412 4.60156C24.579 3.84505 25.3355 3.4668 26.3107 3.4668C27.1265 3.4668 27.7326 3.69238 28.1291 4.14355C28.5301 4.59473 28.7352 5.26009 28.7443 6.13965V11H27.0832V6.1875C27.0832 5.7181 26.9807 5.37402 26.7756 5.15527C26.5705 4.93652 26.231 4.82715 25.757 4.82715C25.3788 4.82715 25.0689 4.92969 24.8273 5.13477C24.5904 5.33529 24.424 5.59961 24.3283 5.92773L24.3352 11H22.674V6.13281C22.6512 5.26237 22.2069 4.82715 21.341 4.82715C20.6757 4.82715 20.204 5.09831 19.926 5.64062V11H18.2648V3.60352H19.8303ZM32.1619 3.60352L32.2098 4.37598C32.7293 3.76986 33.4402 3.4668 34.3426 3.4668C35.3315 3.4668 36.0083 3.84505 36.3729 4.60156C36.9106 3.84505 37.6671 3.4668 38.6424 3.4668C39.4581 3.4668 40.0643 3.69238 40.4607 4.14355C40.8618 4.59473 41.0669 5.26009 41.076 6.13965V11H39.4148V6.1875C39.4148 5.7181 39.3123 5.37402 39.1072 5.15527C38.9021 4.93652 38.5626 4.82715 38.0887 4.82715C37.7104 4.82715 37.4005 4.92969 37.159 5.13477C36.922 5.33529 36.7557 5.59961 36.66 5.92773L36.6668 11H35.0057V6.13281C34.9829 5.26237 34.5385 4.82715 33.6727 4.82715C33.0073 4.82715 32.5356 5.09831 32.2576 5.64062V11H30.5965V3.60352H32.1619ZM47.4125 10.2754C46.9249 10.8496 46.2322 11.1367 45.3344 11.1367C44.5323 11.1367 43.9239 10.902 43.5092 10.4326C43.099 9.96322 42.8939 9.28418 42.8939 8.39551V3.60352H44.5551V8.375C44.5551 9.3138 44.9447 9.7832 45.724 9.7832C46.5307 9.7832 47.0753 9.49382 47.3578 8.91504V3.60352H49.0189V11H47.4535L47.4125 10.2754ZM52.4023 3.60352L52.4502 4.45801C52.9971 3.7972 53.7148 3.4668 54.6035 3.4668C56.1439 3.4668 56.9277 4.34863 56.9551 6.1123V11H55.2939V6.20801C55.2939 5.73861 55.1914 5.39225 54.9863 5.16895C54.7858 4.94108 54.4554 4.82715 53.9951 4.82715C53.3252 4.82715 52.8262 5.13021 52.498 5.73633V11H50.8369V3.60352H52.4023ZM60.5709 11H58.9098V3.60352H60.5709V11ZM58.8072 1.68262C58.8072 1.42741 58.887 1.21549 59.0465 1.04688C59.2105 0.878255 59.443 0.793945 59.7437 0.793945C60.0445 0.793945 60.277 0.878255 60.441 1.04688C60.6051 1.21549 60.6871 1.42741 60.6871 1.68262C60.6871 1.93327 60.6051 2.1429 60.441 2.31152C60.277 2.47559 60.0445 2.55762 59.7437 2.55762C59.443 2.55762 59.2105 2.47559 59.0465 2.31152C58.887 2.1429 58.8072 1.93327 58.8072 1.68262ZM65.5744 9.81055C65.9891 9.81055 66.3332 9.68978 66.6066 9.44824C66.8801 9.20671 67.0259 8.9082 67.0441 8.55273H68.6096C68.5913 9.01302 68.4478 9.44368 68.1789 9.84473C67.91 10.2412 67.5454 10.5557 67.0852 10.7881C66.6249 11.0205 66.1281 11.1367 65.5949 11.1367C64.5604 11.1367 63.7401 10.8018 63.134 10.1318C62.5279 9.46191 62.2248 8.53678 62.2248 7.35645V7.18555C62.2248 6.0599 62.5256 5.15983 63.1271 4.48535C63.7287 3.80632 64.549 3.4668 65.5881 3.4668C66.4676 3.4668 67.1831 3.72428 67.7346 4.23926C68.2906 4.74967 68.5822 5.42188 68.6096 6.25586H67.0441C67.0259 5.83203 66.8801 5.4834 66.6066 5.20996C66.3378 4.93652 65.9937 4.7998 65.5744 4.7998C65.0367 4.7998 64.6219 4.99577 64.3303 5.3877C64.0386 5.77507 63.8905 6.36523 63.8859 7.1582V7.4248C63.8859 8.22689 64.0295 8.82617 64.3166 9.22266C64.6083 9.61458 65.0275 9.81055 65.5744 9.81055ZM74.4334 11C74.3605 10.8587 74.2967 10.6286 74.242 10.3096C73.7133 10.861 73.0662 11.1367 72.3006 11.1367C71.5577 11.1367 70.9516 10.9248 70.4822 10.501C70.0128 10.0771 69.7781 9.55306 69.7781 8.92871C69.7781 8.1403 70.0698 7.53646 70.6531 7.11719C71.241 6.69336 72.0796 6.48145 73.1687 6.48145H74.1873V5.99609C74.1873 5.61328 74.0802 5.30794 73.866 5.08008C73.6518 4.84766 73.326 4.73145 72.8885 4.73145C72.5102 4.73145 72.2003 4.82715 71.9588 5.01855C71.7172 5.2054 71.5965 5.44466 71.5965 5.73633H69.9353C69.9353 5.33073 70.0698 4.95247 70.3387 4.60156C70.6075 4.24609 70.9721 3.9681 71.4324 3.76758C71.8973 3.56706 72.4145 3.4668 72.9842 3.4668C73.8501 3.4668 74.5405 3.68555 75.0555 4.12305C75.5704 4.55599 75.8348 5.16667 75.8484 5.95508V9.29102C75.8484 9.95638 75.9419 10.4873 76.1287 10.8838V11H74.4334ZM72.6082 9.80371C72.9363 9.80371 73.2439 9.72396 73.5311 9.56445C73.8227 9.40495 74.0415 9.19076 74.1873 8.92188V7.52734H73.2918C72.6766 7.52734 72.214 7.63444 71.9041 7.84863C71.5942 8.06283 71.4393 8.36589 71.4393 8.75781C71.4393 9.07682 71.5441 9.33203 71.7537 9.52344C71.9679 9.71029 72.2527 9.80371 72.6082 9.80371ZM79.8197 1.80566V3.60352H81.1254V4.83398H79.8197V8.96289C79.8197 9.24544 79.8744 9.45052 79.9838 9.57812C80.0977 9.70117 80.2982 9.7627 80.5854 9.7627C80.7768 9.7627 80.9704 9.73991 81.1664 9.69434V10.9795C80.7881 11.0843 80.4236 11.1367 80.0727 11.1367C78.7966 11.1367 78.1586 10.4326 78.1586 9.02441V4.83398H76.9418V3.60352H78.1586V1.80566H79.8197ZM84.3174 11H82.6562V3.60352H84.3174V11ZM82.5537 1.68262C82.5537 1.42741 82.6335 1.21549 82.793 1.04688C82.957 0.878255 83.1895 0.793945 83.4902 0.793945C83.791 0.793945 84.0234 0.878255 84.1875 1.04688C84.3516 1.21549 84.4336 1.42741 84.4336 1.68262C84.4336 1.93327 84.3516 2.1429 84.1875 2.31152C84.0234 2.47559 83.791 2.55762 83.4902 2.55762C83.1895 2.55762 82.957 2.47559 82.793 2.31152C82.6335 2.1429 82.5537 1.93327 82.5537 1.68262ZM85.9713 7.2334C85.9713 6.50879 86.1148 5.8571 86.402 5.27832C86.6891 4.69499 87.0924 4.24837 87.6119 3.93848C88.1314 3.62402 88.7285 3.4668 89.4029 3.4668C90.401 3.4668 91.2099 3.78809 91.8297 4.43066C92.454 5.07324 92.7913 5.92546 92.8414 6.9873L92.8482 7.37695C92.8482 8.10612 92.707 8.75781 92.4244 9.33203C92.1464 9.90625 91.7454 10.3506 91.2213 10.665C90.7018 10.9795 90.1002 11.1367 89.4166 11.1367C88.373 11.1367 87.5367 10.7904 86.9078 10.0977C86.2835 9.40039 85.9713 8.47298 85.9713 7.31543V7.2334ZM87.6324 7.37695C87.6324 8.13802 87.7896 8.73503 88.1041 9.16797C88.4186 9.59635 88.8561 9.81055 89.4166 9.81055C89.9771 9.81055 90.4124 9.5918 90.7223 9.1543C91.0367 8.7168 91.1939 8.0765 91.1939 7.2334C91.1939 6.486 91.0322 5.89355 90.7086 5.45605C90.3896 5.01855 89.9544 4.7998 89.4029 4.7998C88.8606 4.7998 88.4299 5.01628 88.1109 5.44922C87.7919 5.8776 87.6324 6.52018 87.6324 7.37695ZM95.9445 3.60352L95.9924 4.45801C96.5393 3.7972 97.257 3.4668 98.1457 3.4668C99.6861 3.4668 100.47 4.34863 100.497 6.1123V11H98.8361V6.20801C98.8361 5.73861 98.7336 5.39225 98.5285 5.16895C98.328 4.94108 97.9976 4.82715 97.5373 4.82715C96.8674 4.82715 96.3684 5.13021 96.0402 5.73633V11H94.3791V3.60352H95.9445Z" fill="#5F6368"/>
</svg>
