<svg width="24" height="24" viewBox="0 0 24 24" fill="none" xmlns="http://www.w3.org/2000/svg">
<g id="control_camera_24px">
<path id="icon/av/control_camera_24px" fill-rule="evenodd" clip-rule="evenodd" d="M8.46002 5.54001L10.23 7.29999L12 5.54001L13.77 7.29999L15.54 5.54001L12 2L8.46002 5.54001ZM5.53998 8.45999L2 12L5.53998 15.54L7.29999 13.77L5.53998 12L7.29999 10.23L5.53998 8.45999ZM12 18.46L10.23 16.7L8.46002 18.46L12 22L15.54 18.46L13.77 16.7L12 18.46ZM16.7 10.23L18.46 8.45999L22 12L18.46 15.54L16.7 13.77L18.46 12L16.7 10.23ZM9 12C9 10.3431 10.3431 9 12 9C13.6569 9 15 10.3431 15 12C15 13.6569 13.6569 15 12 15C10.3431 15 9 13.6569 9 12Z" fill="black" fill-opacity="0.54"/>
</g>
</svg>
