<svg width="24" height="24" viewBox="0 0 24 24" fill="none" xmlns="http://www.w3.org/2000/svg">
<g id="control_point_duplicate_24px">
<path id="icon/image/control_point_duplicate_24px" fill-rule="evenodd" clip-rule="evenodd" d="M15 3C10.04 3 6 7.04001 6 12C6 16.96 10.04 21 15 21C19.96 21 24 16.96 24 12C24 7.04001 19.96 3 15 3ZM6.01001 5.67999C3.64001 6.79999 2 9.20999 2 12C2 14.79 3.64001 17.2 6.01001 18.32V20.48C2.52002 19.24 0 15.91 0 12C0 8.09 2.52002 4.75998 6.01001 3.51999V5.67999ZM16 8V11H19V13H16V16H14V13H11V11H14V8H16ZM8 12C8 15.86 11.14 19 15 19C18.86 19 22 15.86 22 12C22 8.14001 18.86 5 15 5C11.14 5 8 8.14001 8 12Z" fill="black" fill-opacity="0.54"/>
</g>
</svg>
