<svg width="51" height="12" viewBox="0 0 51 12" fill="none" xmlns="http://www.w3.org/2000/svg">
<path id="Content" d="M8.60645 7.75977C8.50618 8.82161 8.11426 9.65104 7.43066 10.248C6.74707 10.8405 5.83789 11.1367 4.70312 11.1367C3.91016 11.1367 3.21061 10.9499 2.60449 10.5762C2.00293 10.1979 1.53809 9.66243 1.20996 8.96973C0.881836 8.27702 0.710938 7.47266 0.697266 6.55664V5.62695C0.697266 4.68815 0.863607 3.861 1.19629 3.14551C1.52897 2.43001 2.00521 1.87858 2.625 1.49121C3.24935 1.10384 3.9694 0.910156 4.78516 0.910156C5.88346 0.910156 6.76758 1.20866 7.4375 1.80566C8.10742 2.40267 8.49707 3.24577 8.60645 4.33496H6.88379C6.80176 3.61947 6.59212 3.10449 6.25488 2.79004C5.9222 2.47103 5.43229 2.31152 4.78516 2.31152C4.0332 2.31152 3.45443 2.58724 3.04883 3.13867C2.64779 3.68555 2.44271 4.48991 2.43359 5.55176V6.43359C2.43359 7.50911 2.625 8.32943 3.00781 8.89453C3.39518 9.45964 3.96029 9.74219 4.70312 9.74219C5.38216 9.74219 5.89258 9.58952 6.23438 9.28418C6.57617 8.97884 6.79264 8.4707 6.88379 7.75977H8.60645ZM9.83652 7.2334C9.83652 6.50879 9.98008 5.8571 10.2672 5.27832C10.5543 4.69499 10.9576 4.24837 11.4771 3.93848C11.9967 3.62402 12.5937 3.4668 13.2682 3.4668C14.2662 3.4668 15.0751 3.78809 15.6949 4.43066C16.3193 5.07324 16.6565 5.92546 16.7066 6.9873L16.7135 7.37695C16.7135 8.10612 16.5722 8.75781 16.2896 9.33203C16.0117 9.90625 15.6106 10.3506 15.0865 10.665C14.567 10.9795 13.9654 11.1367 13.2818 11.1367C12.2382 11.1367 11.402 10.7904 10.773 10.0977C10.1487 9.40039 9.83652 8.47298 9.83652 7.31543V7.2334ZM11.4977 7.37695C11.4977 8.13802 11.6549 8.73503 11.9693 9.16797C12.2838 9.59635 12.7213 9.81055 13.2818 9.81055C13.8424 9.81055 14.2776 9.5918 14.5875 9.1543C14.902 8.7168 15.0592 8.0765 15.0592 7.2334C15.0592 6.486 14.8974 5.89355 14.5738 5.45605C14.2548 5.01855 13.8196 4.7998 13.2682 4.7998C12.7258 4.7998 12.2952 5.01628 11.9762 5.44922C11.6572 5.8776 11.4977 6.52018 11.4977 7.37695ZM19.8098 3.60352L19.8576 4.45801C20.4045 3.7972 21.1223 3.4668 22.0109 3.4668C23.5513 3.4668 24.3352 4.34863 24.3625 6.1123V11H22.7014V6.20801C22.7014 5.73861 22.5988 5.39225 22.3937 5.16895C22.1932 4.94108 21.8628 4.82715 21.4025 4.82715C20.7326 4.82715 20.2336 5.13021 19.9055 5.73633V11H18.2443V3.60352H19.8098ZM28.2928 1.80566V3.60352H29.5984V4.83398H28.2928V8.96289C28.2928 9.24544 28.3475 9.45052 28.4568 9.57812C28.5708 9.70117 28.7713 9.7627 29.0584 9.7627C29.2498 9.7627 29.4435 9.73991 29.6395 9.69434V10.9795C29.2612 11.0843 28.8966 11.1367 28.5457 11.1367C27.2697 11.1367 26.6316 10.4326 26.6316 9.02441V4.83398H25.4148V3.60352H26.6316V1.80566H28.2928ZM34.2807 11.1367C33.2279 11.1367 32.3734 10.8063 31.7172 10.1455C31.0655 9.48014 30.7396 8.59603 30.7396 7.49316V7.28809C30.7396 6.5498 30.8809 5.89128 31.1635 5.3125C31.4506 4.72917 31.8516 4.27572 32.3666 3.95215C32.8816 3.62858 33.4558 3.4668 34.0893 3.4668C35.0964 3.4668 35.8734 3.78809 36.4203 4.43066C36.9717 5.07324 37.2475 5.98242 37.2475 7.1582V7.82812H32.4145C32.4646 8.4388 32.6674 8.92188 33.0229 9.27734C33.3829 9.63281 33.834 9.81055 34.3764 9.81055C35.1374 9.81055 35.7572 9.50293 36.2357 8.8877L37.1312 9.74219C36.835 10.1842 36.4385 10.5283 35.9418 10.7744C35.4496 11.016 34.8959 11.1367 34.2807 11.1367ZM34.0824 4.7998C33.6267 4.7998 33.2576 4.95931 32.975 5.27832C32.697 5.59733 32.5193 6.04167 32.4418 6.61133H35.6068V6.48828C35.5704 5.93229 35.4223 5.51302 35.1625 5.23047C34.9027 4.94336 34.5427 4.7998 34.0824 4.7998ZM40.2344 3.60352L40.2822 4.45801C40.8291 3.7972 41.5469 3.4668 42.4355 3.4668C43.9759 3.4668 44.7598 4.34863 44.7871 6.1123V11H43.126V6.20801C43.126 5.73861 43.0234 5.39225 42.8184 5.16895C42.6178 4.94108 42.2874 4.82715 41.8271 4.82715C41.1572 4.82715 40.6582 5.13021 40.3301 5.73633V11H38.6689V3.60352H40.2344ZM48.7174 1.80566V3.60352H50.023V4.83398H48.7174V8.96289C48.7174 9.24544 48.7721 9.45052 48.8814 9.57812C48.9954 9.70117 49.1959 9.7627 49.483 9.7627C49.6744 9.7627 49.8681 9.73991 50.0641 9.69434V10.9795C49.6858 11.0843 49.3212 11.1367 48.9703 11.1367C47.6943 11.1367 47.0563 10.4326 47.0563 9.02441V4.83398H45.8395V3.60352H47.0563V1.80566H48.7174Z" fill="#5F6368"/>
</svg>
