<svg width="24" height="24" viewBox="0 0 24 24" fill="none" xmlns="http://www.w3.org/2000/svg">
<g id="cut_24px">
<path id="icon/content/cut_24px" fill-rule="evenodd" clip-rule="evenodd" d="M9.64001 7.64001C9.87 7.14001 10 6.59 10 6C10 3.79001 8.20999 2 6 2C3.79001 2 2 3.79001 2 6C2 8.20999 3.79001 10 6 10C6.59 10 7.14001 9.87 7.64001 9.64001L10 12L7.64001 14.36C7.14001 14.13 6.59 14 6 14C3.79001 14 2 15.79 2 18C2 20.21 3.79001 22 6 22C8.20999 22 10 20.21 10 18C10 17.41 9.87 16.86 9.64001 16.36L12 14L19 21H22V20L9.64001 7.64001ZM6 8C4.89999 8 4 7.10999 4 6C4 4.89001 4.89999 4 6 4C7.10001 4 8 4.89001 8 6C8 7.10999 7.10001 8 6 8ZM4 18C4 19.11 4.89999 20 6 20C7.10001 20 8 19.11 8 18C8 16.89 7.10001 16 6 16C4.89999 16 4 16.89 4 18ZM12 12.5C11.72 12.5 11.5 12.28 11.5 12C11.5 11.72 11.72 11.5 12 11.5C12.28 11.5 12.5 11.72 12.5 12C12.5 12.28 12.28 12.5 12 12.5ZM13 9L19 3H22V4L15 11L13 9Z" fill="black" fill-opacity="0.54"/>
</g>
</svg>
