<svg width="42" height="12" viewBox="0 0 42 12" fill="none" xmlns="http://www.w3.org/2000/svg">
<path id="Device" d="M0.0117188 11V1.04688H2.95117C3.83073 1.04688 4.61003 1.24284 5.28906 1.63477C5.97266 2.02669 6.5013 2.58268 6.875 3.30273C7.2487 4.02279 7.43555 4.84766 7.43555 5.77734V6.27637C7.43555 7.21973 7.24642 8.04915 6.86816 8.76465C6.49447 9.48014 5.95898 10.0316 5.26172 10.4189C4.56901 10.8063 3.77376 11 2.87598 11H0.0117188ZM1.74121 2.44141V9.61914H2.86914C3.77604 9.61914 4.47103 9.33659 4.9541 8.77148C5.44173 8.20182 5.6901 7.38607 5.69922 6.32422V5.77051C5.69922 4.69043 5.46452 3.86556 4.99512 3.2959C4.52572 2.72624 3.8444 2.44141 2.95117 2.44141H1.74121ZM12.4049 11.1367C11.3521 11.1367 10.4977 10.8063 9.84141 10.1455C9.18971 9.48014 8.86387 8.59603 8.86387 7.49316V7.28809C8.86387 6.5498 9.00514 5.89128 9.28769 5.3125C9.5748 4.72917 9.97585 4.27572 10.4908 3.95215C11.0058 3.62858 11.58 3.4668 12.2135 3.4668C13.2206 3.4668 13.9977 3.78809 14.5445 4.43066C15.096 5.07324 15.3717 5.98242 15.3717 7.1582V7.82812H10.5387C10.5888 8.4388 10.7916 8.92188 11.1471 9.27734C11.5071 9.63281 11.9583 9.81055 12.5006 9.81055C13.2617 9.81055 13.8814 9.50293 14.36 8.8877L15.2555 9.74219C14.9592 10.1842 14.5628 10.5283 14.066 10.7744C13.5738 11.016 13.0201 11.1367 12.4049 11.1367ZM12.2066 4.7998C11.7509 4.7998 11.3818 4.95931 11.0992 5.27832C10.8212 5.59733 10.6435 6.04167 10.566 6.61133H13.7311V6.48828C13.6946 5.93229 13.5465 5.51302 13.2867 5.23047C13.027 4.94336 12.6669 4.7998 12.2066 4.7998ZM19.3293 8.89453L20.8947 3.60352H22.6105L20.0471 11H18.6047L16.0207 3.60352H17.7434L19.3293 8.89453ZM25.5701 11H23.909V3.60352H25.5701V11ZM23.8064 1.68262C23.8064 1.42741 23.8862 1.21549 24.0457 1.04688C24.2098 0.878255 24.4422 0.793945 24.743 0.793945C25.0438 0.793945 25.2762 0.878255 25.4402 1.04688C25.6043 1.21549 25.6863 1.42741 25.6863 1.68262C25.6863 1.93327 25.6043 2.1429 25.4402 2.31152C25.2762 2.47559 25.0438 2.55762 24.743 2.55762C24.4422 2.55762 24.2098 2.47559 24.0457 2.31152C23.8862 2.1429 23.8064 1.93327 23.8064 1.68262ZM30.5736 9.81055C30.9883 9.81055 31.3324 9.68978 31.6059 9.44824C31.8793 9.20671 32.0251 8.9082 32.0434 8.55273H33.6088C33.5906 9.01302 33.447 9.44368 33.1781 9.84473C32.9092 10.2412 32.5447 10.5557 32.0844 10.7881C31.6241 11.0205 31.1273 11.1367 30.5941 11.1367C29.5596 11.1367 28.7393 10.8018 28.1332 10.1318C27.5271 9.46191 27.224 8.53678 27.224 7.35645V7.18555C27.224 6.0599 27.5248 5.15983 28.1264 4.48535C28.7279 3.80632 29.5482 3.4668 30.5873 3.4668C31.4669 3.4668 32.1824 3.72428 32.7338 4.23926C33.2898 4.74967 33.5814 5.42188 33.6088 6.25586H32.0434C32.0251 5.83203 31.8793 5.4834 31.6059 5.20996C31.337 4.93652 30.9929 4.7998 30.5736 4.7998C30.0359 4.7998 29.6212 4.99577 29.3295 5.3877C29.0378 5.77507 28.8897 6.36523 28.8852 7.1582V7.4248C28.8852 8.22689 29.0287 8.82617 29.3158 9.22266C29.6075 9.61458 30.0268 9.81055 30.5736 9.81055ZM38.2705 11.1367C37.2178 11.1367 36.3633 10.8063 35.707 10.1455C35.0553 9.48014 34.7295 8.59603 34.7295 7.49316V7.28809C34.7295 6.5498 34.8708 5.89128 35.1533 5.3125C35.4404 4.72917 35.8415 4.27572 36.3564 3.95215C36.8714 3.62858 37.4456 3.4668 38.0791 3.4668C39.0863 3.4668 39.8633 3.78809 40.4102 4.43066C40.9616 5.07324 41.2373 5.98242 41.2373 7.1582V7.82812H36.4043C36.4544 8.4388 36.6572 8.92188 37.0127 9.27734C37.3727 9.63281 37.8239 9.81055 38.3662 9.81055C39.1273 9.81055 39.7471 9.50293 40.2256 8.8877L41.1211 9.74219C40.8249 10.1842 40.4284 10.5283 39.9316 10.7744C39.4395 11.016 38.8857 11.1367 38.2705 11.1367ZM38.0723 4.7998C37.6165 4.7998 37.2474 4.95931 36.9648 5.27832C36.6868 5.59733 36.5091 6.04167 36.4316 6.61133H39.5967V6.48828C39.5602 5.93229 39.4121 5.51302 39.1523 5.23047C38.8926 4.94336 38.5326 4.7998 38.0723 4.7998Z" fill="#5F6368"/>
</svg>
