<svg width="24" height="24" viewBox="0 0 24 24" fill="none" xmlns="http://www.w3.org/2000/svg">
<g id="directions_boat_24px">
<path id="icon/maps/directions_boat_24px" fill-rule="evenodd" clip-rule="evenodd" d="M9.0011 1H15.0011V4H18.0011C19.1011 4 20.0011 4.89999 20.0011 6V10.62L21.2811 11.04C21.5411 11.12 21.7611 11.3 21.8811 11.54C22.0011 11.78 22.0211 12.06 21.9412 12.32L20.0511 19H20.0011C18.4011 19 16.9811 18.12 16.0011 17C15.0211 18.12 13.6011 19 12.0011 19C10.4011 19 8.98108 18.12 8.0011 17C7.02112 18.12 5.60107 19 4.0011 19H3.95105L2.05115 12.32C1.96106 12.06 1.99109 11.78 2.11108 11.54C2.23108 11.3 2.45105 11.12 2.71106 11.04L4.0011 10.62V6C4.0011 4.89999 4.90112 4 6.0011 4H9.0011V1ZM13.0011 3V4H11.0011V3H13.0011ZM12.0011 10.11L17.3811 11.88L19.7711 12.66L18.6511 16.63C18.1111 16.33 17.7111 15.92 17.5111 15.69L16.0011 13.96L14.4911 15.68C14.1511 16.08 13.2111 17 12.0011 17C10.791 17 9.85107 16.08 9.51111 15.68L8.0011 13.96L6.49109 15.68C6.29102 15.91 5.89111 16.31 5.35107 16.61L4.22107 12.65L6.62109 11.86L12.0011 10.11ZM6.0011 9.97V6H18.0011V9.97L12.0011 8L6.0011 9.97ZM12.0011 20.96C13.3911 20.96 14.7811 20.53 16.0011 19.68C17.2211 20.53 18.6111 21 20.0011 21H22.0011V23H20.0011C18.6211 23 17.2611 22.66 16.0011 22.01C14.7411 22.66 13.3711 22.98 12.0011 22.98C10.6311 22.98 9.26111 22.65 8.0011 22.01C6.74109 22.65 5.3811 23 4.0011 23H2.0011V21H4.0011C5.39111 21 6.78113 20.53 8.0011 19.68C9.22107 20.53 10.6111 20.96 12.0011 20.96Z" fill="black" fill-opacity="0.54"/>
</g>
</svg>
