<svg width="24" height="24" viewBox="0 0 24 24" fill="none" xmlns="http://www.w3.org/2000/svg">
<g id="directions_bike_24px">
<path id="icon/maps/directions_bike_24px" fill-rule="evenodd" clip-rule="evenodd" d="M17.5 3.75C17.5 4.85001 16.6 5.75 15.5 5.75C14.4 5.75 13.5 4.85001 13.5 3.75C13.5 2.64999 14.4 1.75 15.5 1.75C16.6 1.75 17.5 2.64999 17.5 3.75ZM0 17.25C0 14.45 2.19995 12.25 5 12.25C7.80005 12.25 10 14.45 10 17.25C10 20.05 7.80005 22.25 5 22.25C2.19995 22.25 0 20.05 0 17.25ZM5 20.75C3.09998 20.75 1.5 19.15 1.5 17.25C1.5 15.35 3.09998 13.75 5 13.75C6.90002 13.75 8.5 15.35 8.5 17.25C8.5 19.15 6.90002 20.75 5 20.75ZM19.1 11.25C17 11.25 15.2999 10.45 14 9.14999L13.2 8.35001L10.7999 10.75L13 13.05V19.25H11V14.25L7.79993 11.45C7.3999 11.15 7.19995 10.65 7.19995 10.05C7.19995 9.54999 7.3999 9.04999 7.79993 8.64999L10.6 5.85001C10.8999 5.45001 11.3999 5.25 12 5.25C12.6 5.25 13.1 5.45001 13.6 5.85001L15.5 7.75C16.3999 8.64999 17.6 9.25 19.1 9.25V11.25ZM19 12.25C16.2 12.25 14 14.45 14 17.25C14 20.05 16.2 22.25 19 22.25C21.8 22.25 24 20.05 24 17.25C24 14.45 21.8 12.25 19 12.25ZM15.5 17.25C15.5 19.15 17.1 20.75 19 20.75C20.9 20.75 22.5 19.15 22.5 17.25C22.5 15.35 20.9 13.75 19 13.75C17.1 13.75 15.5 15.35 15.5 17.25Z" fill="black" fill-opacity="0.54"/>
</g>
</svg>
