<svg width="24" height="24" viewBox="0 0 24 24" fill="none" xmlns="http://www.w3.org/2000/svg">
<g id="directions_24px">
<path id="icon/maps/directions_24px" fill-rule="evenodd" clip-rule="evenodd" d="M22.4275 10.5931L13.4175 1.58313C12.6675 0.83313 11.3474 0.82312 10.5874 1.58313L1.5874 10.5831C0.807495 11.3631 0.807495 12.6231 1.5874 13.4031L10.5874 22.4031C10.9774 22.7931 11.4874 22.9831 11.9974 22.9831C12.5074 22.9831 13.0175 22.7931 13.4075 22.4031L22.3975 13.4131C23.1875 12.6531 23.1974 11.3931 22.4275 10.5931ZM12.0074 20.9931L3.00745 11.9931L12.0074 2.99313L21.0074 11.9931L12.0074 20.9931ZM7.99744 15.0031V11.0031C7.99744 10.4532 8.44739 10.0031 8.99744 10.0031H13.9974V7.50314L17.4974 11.0031L13.9974 14.5031V12.0031H9.99744V15.0031H7.99744Z" fill="black" fill-opacity="0.54"/>
</g>
</svg>
