<svg width="24" height="24" viewBox="0 0 24 24" fill="none" xmlns="http://www.w3.org/2000/svg">
<g id="domain_disabled_24px">
<path id="icon/communication/domain_disabled_24px" fill-rule="evenodd" clip-rule="evenodd" d="M2.25494 0.845001L0.844971 2.255L2.84497 4.255V20.155H18.745L21.745 23.155L23.155 21.745L2.25494 0.845001ZM6.84497 18.155H4.84497V16.155H6.84497V18.155ZM4.84497 14.155H6.84497V12.155H4.84497V14.155ZM4.84497 10.155V8.155H6.84497V10.155H4.84497ZM8.84497 18.155H10.845V16.155H8.84497V18.155ZM8.84497 14.155V12.155H10.845V14.155H8.84497ZM12.845 16.155V18.155H16.745L14.745 16.155H12.845ZM8.84497 4.155H10.845V6.155H10.395L12.845 8.60501V8.155H20.845V16.605L22.845 18.605V6.155H12.845V2.155H6.39496L8.84497 4.60501V4.155ZM18.845 10.155H16.845V12.155H18.845V10.155Z" fill="black" fill-opacity="0.54"/>
</g>
</svg>
