<svg width="24" height="24" viewBox="0 0 24 24" fill="none" xmlns="http://www.w3.org/2000/svg">
<g id="donut_large_24px">
<path id="icon/action/donut_large_24px" fill-rule="evenodd" clip-rule="evenodd" d="M5.02502 12C5.02502 15.52 7.63501 18.43 11.025 18.92V21.95C5.97498 21.45 2.02502 17.19 2.02502 12C2.02502 6.81001 5.97498 2.55 11.025 2.05V5.08C7.63501 5.57 5.02502 8.48 5.02502 12ZM13.025 5.08C16.0851 5.52 18.505 7.94 18.9451 11H21.975C21.505 6.28001 17.745 2.52 13.025 2.05V5.08ZM18.9451 13C18.505 16.06 16.0851 18.48 13.025 18.92V21.95C17.745 21.48 21.505 17.72 21.975 13H18.9451Z" fill="black" fill-opacity="0.54"/>
</g>
</svg>
