<svg width="24" height="24" viewBox="0 0 24 24" fill="none" xmlns="http://www.w3.org/2000/svg">
<g id="donut_small_24px">
<path id="icon/action/donut_small_24px" fill-rule="evenodd" clip-rule="evenodd" d="M2.02502 12C2.02502 17.19 5.97498 21.45 11.025 21.95V14.82C9.86499 14.4 9.02502 13.3 9.02502 12C9.02502 10.7 9.86499 9.60001 11.025 9.18V2.05C5.97498 2.55 2.02502 6.81001 2.02502 12ZM21.975 11H14.845C14.535 10.15 13.875 9.49001 13.025 9.18V2.05C17.745 2.52 21.505 6.28001 21.975 11ZM19.4451 9C18.625 7 17.025 5.4 15.025 4.58V8.01C15.395 8.29 15.735 8.63 16.015 9H19.4451ZM9.02502 8.02V4.58C6.06506 5.76 4.02502 8.65 4.02502 12C4.02502 15.35 6.06506 18.24 9.02502 19.43V15.99C7.79504 15.06 7.02502 13.59 7.02502 12C7.02502 10.41 7.79504 8.94 9.02502 8.02ZM13.025 14.82V21.95C17.745 21.48 21.505 17.72 21.975 13H14.845C14.535 13.85 13.875 14.51 13.025 14.82ZM16.015 15C15.735 15.38 15.395 15.71 15.025 15.99V19.42C17.025 18.6 18.625 17 19.4451 15H16.015Z" fill="black" fill-opacity="0.54"/>
</g>
</svg>
