<svg width="37" height="12" viewBox="0 0 37 12" fill="none" xmlns="http://www.w3.org/2000/svg">
<path id="Editor" d="M5.8291 6.55664H1.74121V9.61914H6.51953V11H0.0117188V1.04688H6.47168V2.44141H1.74121V5.18945H5.8291V6.55664ZM7.46934 7.24707C7.46934 6.10775 7.73366 5.19401 8.2623 4.50586C8.79095 3.81315 9.49961 3.4668 10.3883 3.4668C11.1721 3.4668 11.8056 3.74023 12.2887 4.28711V0.5H13.9498V11H12.4459L12.3639 10.2344C11.8671 10.8359 11.204 11.1367 10.3746 11.1367C9.50872 11.1367 8.8069 10.7881 8.26914 10.0908C7.73594 9.39355 7.46934 8.44564 7.46934 7.24707ZM9.13047 7.39062C9.13047 8.14258 9.27402 8.73047 9.56113 9.1543C9.8528 9.57357 10.2652 9.7832 10.7984 9.7832C11.4775 9.7832 11.9742 9.48014 12.2887 8.87402V5.71582C11.9833 5.12337 11.4911 4.82715 10.8121 4.82715C10.2743 4.82715 9.85964 5.04134 9.56797 5.46973C9.2763 5.89355 9.13047 6.53385 9.13047 7.39062ZM17.5998 11H15.9387V3.60352H17.5998V11ZM15.8361 1.68262C15.8361 1.42741 15.9159 1.21549 16.0754 1.04688C16.2395 0.878255 16.4719 0.793945 16.7727 0.793945C17.0734 0.793945 17.3059 0.878255 17.4699 1.04688C17.634 1.21549 17.716 1.42741 17.716 1.68262C17.716 1.93327 17.634 2.1429 17.4699 2.31152C17.3059 2.47559 17.0734 2.55762 16.7727 2.55762C16.4719 2.55762 16.2395 2.47559 16.0754 2.31152C15.9159 2.1429 15.8361 1.93327 15.8361 1.68262ZM21.6463 1.80566V3.60352H22.952V4.83398H21.6463V8.96289C21.6463 9.24544 21.701 9.45052 21.8104 9.57812C21.9243 9.70117 22.1248 9.7627 22.4119 9.7627C22.6033 9.7627 22.797 9.73991 22.993 9.69434V10.9795C22.6147 11.0843 22.2501 11.1367 21.8992 11.1367C20.6232 11.1367 19.9852 10.4326 19.9852 9.02441V4.83398H18.7684V3.60352H19.9852V1.80566H21.6463ZM23.8607 7.2334C23.8607 6.50879 24.0043 5.8571 24.2914 5.27832C24.5785 4.69499 24.9818 4.24837 25.5014 3.93848C26.0209 3.62402 26.6179 3.4668 27.2924 3.4668C28.2904 3.4668 29.0993 3.78809 29.7191 4.43066C30.3435 5.07324 30.6807 5.92546 30.7309 6.9873L30.7377 7.37695C30.7377 8.10612 30.5964 8.75781 30.3139 9.33203C30.0359 9.90625 29.6348 10.3506 29.1107 10.665C28.5912 10.9795 27.9896 11.1367 27.3061 11.1367C26.2624 11.1367 25.4262 10.7904 24.7973 10.0977C24.1729 9.40039 23.8607 8.47298 23.8607 7.31543V7.2334ZM25.5219 7.37695C25.5219 8.13802 25.6791 8.73503 25.9936 9.16797C26.308 9.59635 26.7455 9.81055 27.3061 9.81055C27.8666 9.81055 28.3018 9.5918 28.6117 9.1543C28.9262 8.7168 29.0834 8.0765 29.0834 7.2334C29.0834 6.486 28.9216 5.89355 28.598 5.45605C28.279 5.01855 27.8438 4.7998 27.2924 4.7998C26.7501 4.7998 26.3194 5.01628 26.0004 5.44922C25.6814 5.8776 25.5219 6.52018 25.5219 7.37695ZM36.165 5.12109C35.9463 5.08464 35.7207 5.06641 35.4883 5.06641C34.7272 5.06641 34.2145 5.35807 33.9502 5.94141V11H32.2891V3.60352H33.875L33.916 4.43066C34.3171 3.78809 34.873 3.4668 35.584 3.4668C35.821 3.4668 36.0169 3.4987 36.1719 3.5625L36.165 5.12109Z" fill="#5F6368"/>
</svg>
