<svg width="24" height="24" viewBox="0 0 24 24" fill="none" xmlns="http://www.w3.org/2000/svg">
<g id="edit_attributes_24px">
<path id="icon/maps/edit_attributes_24px" fill-rule="evenodd" clip-rule="evenodd" d="M17.63 7H6.37C3.95996 7 2 9.23999 2 12C2 14.76 3.95996 17 6.37 17H17.63C20.04 17 22 14.76 22 12C22 9.23999 20.04 7 17.63 7ZM17.63 15H6.37C5.08997 15 4 13.63 4 12C4 10.37 5.08997 9 6.37 9H17.63C18.91 9 20 10.37 20 12C20 13.63 18.91 15 17.63 15ZM5.37 11.19L7.23999 13.06L10.76 9.54001L11.4601 10.24L7.23999 14.46L4.67004 11.89L5.37 11.19Z" fill="black" fill-opacity="0.54"/>
</g>
</svg>
