<svg width="24" height="24" viewBox="0 0 24 24" fill="none" xmlns="http://www.w3.org/2000/svg">
<g id="event_busy_24px">
<path id="icon/notification/event_busy_24px" fill-rule="evenodd" clip-rule="evenodd" d="M18 4H19C20.1 4 21 4.9 21 6V20C21 21.1 20.1 22 19 22H5C3.90002 22 3 21.1 3 20V6C3 4.9 3.90002 4 5 4H6V2H8V4H16V2H18V4ZM5 20H19V10H5V20ZM5 8V6H19V8H5ZM9.29004 18.47L8.22998 17.41L10.6699 14.97L8.22998 12.53L9.29004 11.47L11.73 13.91L14.1699 11.47L15.23 12.53L12.79 14.97L15.23 17.41L14.1699 18.47L11.73 16.03L9.29004 18.47Z" fill="black" fill-opacity="0.54"/>
</g>
</svg>
