<svg width="24" height="24" viewBox="0 0 24 24" fill="none" xmlns="http://www.w3.org/2000/svg">
<g id="exposure_plus_2_24px">
<path id="icon/image/exposure_plus_2_24px" fill-rule="evenodd" clip-rule="evenodd" d="M18.91 13.72L16.05 16.79H22V18.5H13.37V17.01L17.54 12.46C17.9 12.08 18.1901 11.73 18.42 11.43C18.66 11.13 18.84 10.85 18.98 10.6C19.12 10.35 19.21 10.12 19.27 9.89999C19.3201 9.67999 19.35 9.47 19.35 9.25C19.35 8.96001 19.3 8.69 19.22 8.44C19.13 8.19 19.01 7.97 18.85 7.78999C18.6901 7.61 18.49 7.46001 18.26 7.36C18.03 7.25999 17.76 7.21001 17.4501 7.21001C17.09 7.21001 16.76 7.27 16.49 7.39C16.22 7.50999 15.99 7.67 15.8101 7.88C15.64 8.09 15.5 8.34 15.41 8.63C15.33 8.89999 15.29 9.19 15.28 9.5H13.14C13.15 8.97 13.24 8.47 13.42 8C13.61 7.5 13.89 7.07001 14.26 6.7C14.62 6.33 15.08 6.03 15.62 5.82001C16.16 5.61 16.78 5.5 17.47 5.5C18.11 5.5 18.6801 5.58 19.1901 5.74001C19.6801 5.91 20.11 6.14 20.4501 6.45C20.79 6.75 21.05 7.12 21.23 7.56C21.41 8 21.5 8.49001 21.5 9.02C21.5 9.41 21.4401 9.81 21.3101 10.2C21.1801 10.59 21 10.98 20.77 11.37C20.54 11.76 20.27 12.15 19.9501 12.54C19.63 12.93 19.29 13.33 18.91 13.72ZM6 7.5H8V11.5H12V13.5H8V17.5H6V13.5H2V11.5H6V7.5Z" fill="black" fill-opacity="0.54"/>
</g>
</svg>
