<svg width="22" height="12" viewBox="0 0 22 12" fill="none" xmlns="http://www.w3.org/2000/svg">
<path id="File" d="M5.74707 6.78223H1.74121V11H0.0117188V1.04688H6.33496V2.44141H1.74121V5.40137H5.74707V6.78223ZM9.46543 11H7.8043V3.60352H9.46543V11ZM7.70176 1.68262C7.70176 1.42741 7.78151 1.21549 7.94102 1.04688C8.10508 0.878255 8.3375 0.793945 8.63828 0.793945C8.93906 0.793945 9.17148 0.878255 9.33555 1.04688C9.49961 1.21549 9.58164 1.42741 9.58164 1.68262C9.58164 1.93327 9.49961 2.1429 9.33555 2.31152C9.17148 2.47559 8.93906 2.55762 8.63828 2.55762C8.3375 2.55762 8.10508 2.47559 7.94102 2.31152C7.78151 2.1429 7.70176 1.93327 7.70176 1.68262ZM13.1975 11H11.5363V0.5H13.1975V11ZM18.4197 11.1367C17.367 11.1367 16.5125 10.8063 15.8563 10.1455C15.2046 9.48014 14.8787 8.59603 14.8787 7.49316V7.28809C14.8787 6.5498 15.02 5.89128 15.3025 5.3125C15.5896 4.72917 15.9907 4.27572 16.5057 3.95215C17.0206 3.62858 17.5949 3.4668 18.2283 3.4668C19.2355 3.4668 20.0125 3.78809 20.5594 4.43066C21.1108 5.07324 21.3865 5.98242 21.3865 7.1582V7.82812H16.5535C16.6036 8.4388 16.8064 8.92188 17.1619 9.27734C17.5219 9.63281 17.9731 9.81055 18.5154 9.81055C19.2765 9.81055 19.8963 9.50293 20.3748 8.8877L21.2703 9.74219C20.9741 10.1842 20.5776 10.5283 20.0809 10.7744C19.5887 11.016 19.035 11.1367 18.4197 11.1367ZM18.2215 4.7998C17.7658 4.7998 17.3966 4.95931 17.1141 5.27832C16.8361 5.59733 16.6583 6.04167 16.5809 6.61133H19.7459V6.48828C19.7094 5.93229 19.5613 5.51302 19.3016 5.23047C19.0418 4.94336 18.6818 4.7998 18.2215 4.7998Z" fill="#5F6368"/>
</svg>
