<svg width="24" height="24" viewBox="0 0 24 24" fill="none" xmlns="http://www.w3.org/2000/svg">
<g id="filter_vintage_24px">
<path id="icon/image/filter_vintage_24px" fill-rule="evenodd" clip-rule="evenodd" d="M18.7001 12.4C18.42 12.24 18.13 12.11 17.8401 12C18.13 11.89 18.42 11.76 18.7001 11.6C20.62 10.49 21.6901 8.48 21.7001 6.41C20.79 5.89 19.75 5.61 18.6901 5.61C17.67 5.61 16.64 5.87 15.7001 6.41C15.42 6.57 15.16 6.75999 14.92 6.95C14.9701 6.64 15 6.32 15 6C15 3.78 13.79 1.85 12 0.809998C10.2101 1.85 9 3.78 9 6C9 6.32 9.03003 6.64 9.08008 6.95C8.84009 6.75 8.58008 6.56 8.30005 6.39999C7.36011 5.86 6.33008 5.6 5.31006 5.6C4.26001 5.6 3.21008 5.88 2.30005 6.39999C2.30005 8.47 3.37 10.48 5.30005 11.59C5.58008 11.75 5.87 11.88 6.16003 11.99C5.87 12.1 5.58008 12.23 5.30005 12.39C3.38 13.5 2.31006 15.51 2.30005 17.58C3.21008 18.1 4.25 18.38 5.31006 18.38C6.33008 18.38 7.36011 18.12 8.30005 17.58C8.58008 17.42 8.84009 17.23 9.08008 17.04C9.03003 17.36 9 17.68 9 18C9 20.22 10.2101 22.15 12 23.19C13.79 22.15 15 20.22 15 18C15 17.68 14.9701 17.36 14.92 17.05C15.16 17.25 15.42 17.43 15.7001 17.59C16.64 18.13 17.67 18.39 18.6901 18.39C19.74 18.39 20.79 18.11 21.7001 17.59C21.6901 15.52 20.62 13.51 18.7001 12.4ZM16.16 8.52C16.37 8.35 16.54 8.23 16.7001 8.15C17.3101 7.8 18 7.61 18.7001 7.61C18.97 7.61 19.23 7.64 19.49 7.69C19.1801 8.6 18.55 9.38 17.7101 9.87C17.54 9.97 17.35 10.05 17.13 10.14L15.75 10.66C15.5801 10.2 15.3401 9.79 15.03 9.42L16.16 8.52ZM13 5.99999C13 5.03 12.63 4.09 12 3.37C11.37 4.09 11 5.02 11 5.99999C11 6.18999 11.02 6.41 11.0601 6.63L11.29 8.06999C11.52 8.02999 11.76 7.99999 12 7.99999C12.24 7.99999 12.48 8.02999 12.72 8.06999L12.95 6.63C12.98 6.41 13 6.18999 13 5.99999ZM4.51001 7.68C4.77002 7.62 5.04004 7.6 5.31006 7.6C6 7.6 6.69006 7.78 7.30005 8.14C7.44995 8.23 7.62 8.34 7.79004 8.49L8.94006 9.45C8.64001 9.81 8.41003 10.21 8.23999 10.65L6.85999 10.13C6.65002 10.04 6.45996 9.95 6.30005 9.86C5.43005 9.36 4.81006 8.59 4.51001 7.68ZM7.30005 15.84C7.45996 15.76 7.63 15.64 7.83997 15.47L8.96997 14.57C8.66003 14.21 8.41003 13.79 8.25 13.33L6.87 13.85C6.65002 13.94 6.45996 14.02 6.29004 14.12C5.44995 14.61 4.82007 15.39 4.51001 16.3C4.77002 16.35 5.03003 16.38 5.30005 16.38C6 16.38 6.69006 16.19 7.30005 15.84ZM12 20.63C11.37 19.91 11 18.97 11 18C11 17.8 11.02 17.59 11.0601 17.35L11.28 15.93C11.51 15.97 11.75 16 12 16C12.24 16 12.48 15.97 12.71 15.93L12.9399 17.37C12.98 17.59 13 17.81 13 18C13 18.98 12.63 19.91 12 20.63ZM16.7001 15.85C17.3101 16.21 18 16.39 18.6901 16.39C18.9501 16.39 19.2201 16.37 19.4901 16.3C19.1801 15.39 18.5601 14.61 17.7101 14.12C17.55 14.03 17.3601 13.94 17.14 13.86L15.76 13.34C15.6001 13.79 15.3601 14.19 15.0601 14.55L16.2101 15.51C16.3601 15.63 16.52 15.75 16.7001 15.85Z" fill="black" fill-opacity="0.54"/>
</g>
</svg>
