<svg width="24" height="24" viewBox="0 0 24 24" fill="none" xmlns="http://www.w3.org/2000/svg">
<g id="find_in_page_24px">
<path id="icon/action/find_in_page_24px" fill-rule="evenodd" clip-rule="evenodd" d="M14 2H6C4.90002 2 4.01001 2.9 4.01001 4L4 20C4 21.1 4.89001 22 5.98999 22H18C19.1 22 20 21.1 20 20V8L14 2ZM6 4H13L18 9V17.58L16.16 15.74C17.4399 13.8 17.23 11.17 15.52 9.46C14.55 8.49 13.28 8 12 8C10.72 8 9.44995 8.49 8.46997 9.46C6.52002 11.41 6.52002 14.57 8.46997 16.51C9.43994 17.48 10.72 17.97 12 17.97C12.96 17.97 13.92 17.69 14.75 17.14L17.6 20H6V4ZM12 15.98C12.8 15.98 13.55 15.66 14.11 15.1C14.6801 14.54 14.99 13.79 14.99 12.99C14.99 12.19 14.67 11.44 14.11 10.88C13.55 10.31 12.8 10 12 10C11.2 10 10.45 10.31 9.89001 10.88C9.32007 11.44 9.01001 12.19 9.01001 12.99C9.01001 13.79 9.32996 14.54 9.89001 15.1C10.45 15.67 11.2 15.98 12 15.98Z" fill="black" fill-opacity="0.54"/>
</g>
</svg>
