<svg width="24" height="24" viewBox="0 0 24 24" fill="none" xmlns="http://www.w3.org/2000/svg">
<g id="find_replace_24px">
<path id="icon/action/find_replace_24px" fill-rule="evenodd" clip-rule="evenodd" d="M13.7949 6.715C12.885 5.815 11.635 5.255 10.255 5.255C7.83496 5.255 5.81494 6.975 5.35498 9.255H3.33496C3.82495 5.865 6.72498 3.255 10.255 3.255C12.1849 3.255 13.9349 4.035 15.205 5.305L17.255 3.255V9.255H11.255L13.7949 6.715ZM17.175 11.255C17.015 12.425 16.5551 13.495 15.895 14.395L20.745 19.255L19.255 20.745L14.395 15.895C13.235 16.745 11.8051 17.255 10.255 17.255C8.32495 17.255 6.57495 16.475 5.30505 15.205L3.255 17.255V11.255H9.255L6.71497 13.795C7.625 14.695 8.875 15.255 10.255 15.255C12.675 15.255 14.6949 13.535 15.155 11.255H17.175Z" fill="black" fill-opacity="0.54"/>
</g>
</svg>
