<svg width="24" height="24" viewBox="0 0 24 24" fill="none" xmlns="http://www.w3.org/2000/svg">
<g id="fingerprint_24px">
<path id="icon/action/fingerprint_24px" fill-rule="evenodd" clip-rule="evenodd" d="M17.8151 4.47C17.735 4.47 17.655 4.45 17.585 4.41C15.665 3.42 14.005 3 12.015 3C10.035 3 8.15503 3.47 6.44495 4.41C6.20496 4.54 5.90503 4.45 5.76501 4.21C5.63501 3.97 5.72498 3.66 5.96497 3.53C7.82495 2.52 9.86499 2 12.015 2C14.145 2 16.005 2.47 18.045 3.52C18.295 3.65 18.385 3.95 18.255 4.19C18.165 4.37 17.995 4.47 17.8151 4.47ZM3.505 9.72C3.40503 9.72 3.30493 9.69 3.21497 9.63C2.98499 9.47 2.93494 9.16 3.09497 8.93C4.08496 7.53 5.34497 6.43 6.84497 5.66C9.98499 4.04 14.005 4.03 17.155 5.65C18.655 6.42 19.915 7.51 20.905 8.9C21.0649 9.12 21.015 9.44 20.785 9.6C20.5549 9.76 20.245 9.71 20.085 9.48C19.1849 8.22 18.045 7.23 16.6949 6.54C13.825 5.07 10.155 5.07 7.29504 6.55C5.93494 7.25 4.79504 8.25 3.89502 9.51C3.81494 9.65 3.66504 9.72 3.505 9.72ZM9.40503 21.64C9.495 21.74 9.625 21.79 9.755 21.79C9.88501 21.79 10.015 21.74 10.125 21.64C10.3149 21.44 10.3149 21.13 10.125 20.93C9.35498 20.15 8.91492 19.66 8.27502 18.51C7.66492 17.43 7.34497 16.1 7.34497 14.66C7.34497 12.24 9.43494 10.27 12.005 10.27C14.575 10.27 16.6649 12.24 16.6649 14.66C16.6649 14.94 16.885 15.16 17.1649 15.16C17.4449 15.16 17.6649 14.94 17.6649 14.66C17.6649 11.69 15.125 9.27 12.005 9.27C8.88501 9.27 6.34497 11.69 6.34497 14.66C6.34497 16.27 6.70496 17.77 7.39502 19C8.06494 20.21 8.53491 20.77 9.40503 21.64ZM16.9249 19.94C15.735 19.94 14.6849 19.64 13.825 19.05C12.335 18.04 11.4449 16.4 11.4449 14.66C11.4449 14.38 11.6649 14.16 11.9449 14.16C12.225 14.16 12.4449 14.38 12.4449 14.66C12.4449 16.07 13.1649 17.4 14.3849 18.22C15.095 18.7 15.9249 18.93 16.9249 18.93C17.1649 18.93 17.5649 18.9 17.965 18.83C18.235 18.78 18.495 18.96 18.5449 19.24C18.595 19.51 18.4149 19.77 18.1349 19.82C17.5649 19.93 17.0649 19.94 16.9249 19.94ZM14.785 21.98C14.8251 21.99 14.875 22 14.915 22C15.125 22 15.3351 21.85 15.385 21.62C15.4551 21.36 15.3051 21.08 15.035 21.01C13.625 20.62 12.715 20.1 11.765 19.16C10.5551 17.96 9.89502 16.36 9.89502 14.65C9.89502 13.58 10.8251 12.71 11.975 12.71C13.125 12.71 14.0551 13.58 14.0551 14.65C14.0551 16.27 15.4351 17.59 17.135 17.59C18.8351 17.59 20.215 16.27 20.215 14.65C20.215 10.33 16.515 6.82 11.965 6.82C8.73499 6.82 5.78503 8.63 4.45508 11.42C4.005 12.37 3.77502 13.46 3.77502 14.66C3.77502 16.01 4.01501 17.31 4.505 18.62C4.59497 18.87 4.88501 19.01 5.14502 18.91C5.40503 18.82 5.53503 18.53 5.43506 18.27C4.83508 16.67 4.76501 15.44 4.76501 14.66C4.76501 13.62 4.96497 12.67 5.35498 11.86C6.52502 9.41 9.125 7.83 11.965 7.83C15.965 7.83 19.215 10.89 19.215 14.66C19.215 15.73 18.285 16.6 17.135 16.6C15.985 16.6 15.0551 15.73 15.0551 14.66C15.0551 13.04 13.675 11.72 11.975 11.72C10.275 11.72 8.89502 13.04 8.89502 14.66C8.89502 16.64 9.66504 18.49 11.0651 19.88C12.155 20.95 13.1951 21.54 14.785 21.98Z" fill="black" fill-opacity="0.54"/>
</g>
</svg>
