<svg width="24" height="24" viewBox="0 0 24 24" fill="none" xmlns="http://www.w3.org/2000/svg">
<g id="format_color_reset_24px">
<path id="icon/editor/format_color_reset_24px" fill-rule="evenodd" clip-rule="evenodd" d="M12 6.19501C13.53 8.19501 15.08 10.625 15.71 12.435L17.94 14.665C17.97 14.395 18 14.115 18 13.835C18 9.85501 12 3.035 12 3.035C12 3.035 10.82 4.38501 9.5 6.22501L10.94 7.66501C11.28 7.155 11.64 6.66501 12 6.19501ZM5.41 4.97501L4 6.38501L7.32001 9.70502C6.54999 11.165 6 12.625 6 13.835C6 17.145 8.69 19.835 12 19.835C13.52 19.835 14.9 19.265 15.95 18.335L18.58 20.965L20 19.555L5.41 4.97501ZM8 13.835C8 16.045 9.79001 17.835 12 17.835C12.96 17.835 13.83 17.475 14.53 16.915L8.81 11.195C8.32001 12.215 8 13.145 8 13.835Z" fill="black" fill-opacity="0.54"/>
</g>
</svg>
