<svg width="24" height="24" viewBox="0 0 24 24" fill="none" xmlns="http://www.w3.org/2000/svg">
<g id="format_paint_24px">
<path id="icon/editor/format_paint_24px" fill-rule="evenodd" clip-rule="evenodd" d="M17.5 3V4H20.5V12H12.5V21C12.5 21.55 12.05 22 11.5 22H9.5C8.95001 22 8.5 21.55 8.5 21V10H18.5V6H17.5V7C17.5 7.54999 17.05 8 16.5 8H4.5C3.95001 8 3.5 7.54999 3.5 7V3C3.5 2.45001 3.95001 2 4.5 2H16.5C17.05 2 17.5 2.45001 17.5 3ZM5.5 6H15.5V4H5.5V6Z" fill="black" fill-opacity="0.54"/>
</g>
</svg>
