<svg width="24" height="24" viewBox="0 0 24 24" fill="none" xmlns="http://www.w3.org/2000/svg">
<g id="gesture_24px">
<path id="icon/content/gesture_24px" fill-rule="evenodd" clip-rule="evenodd" d="M6.38 5.68002C6.07001 5.55002 5.37003 6.19 4.67001 6.90002L2.92001 5.19C3.14001 4.92001 3.44 4.62 3.80002 4.26001C4.05002 4.01001 5.20001 3.01001 6.52002 3.01001C7.39001 3.01001 9.03 3.70001 9.03 5.87C9.03 7.23001 8.51001 8.01001 7.73001 9.15002C7.28 9.81 6.23001 11.58 5.88 12.67C5.52002 13.76 5.79001 14.59 6.24002 14.59C6.65225 14.59 7.06448 14.0937 7.31812 13.7884L7.35001 13.75C7.58002 13.51 9.06003 11.76 9.64001 11.03C10.4 10.1 12.33 8.19 14.58 8.19C17.52 8.19 18.46 10.74 18.61 12.39H21.08V14.89H18.62C18.22 19.66 15.56 20.99 13.93 20.99C12.16 20.99 10.72 19.6 10.72 17.9C10.72 16.2 12.32 13.17 16.1 12.53C16.0929 12.4797 16.0862 12.4284 16.0794 12.3766C15.9807 11.6239 15.8649 10.74 14.34 10.74C13.09 10.74 11.47 12.69 10.26 14.18L10.2474 14.1956C9.14334 15.5583 8.26596 16.6412 7.20001 16.95C6.30002 17.22 5.31003 17.05 4.56003 16.49C3.70001 15.85 3.22 14.79 3.22 13.51C3.22 11.4026 5.19937 8.49881 5.87576 7.50653C5.97607 7.35938 6.04773 7.25424 6.08002 7.20001C6.38 6.71002 6.88 5.88 6.38 5.68002ZM13.22 17.84C13.22 18.3 13.65 18.56 13.96 18.56C14.66 18.56 15.79 17.77 16.09 15.08C13.95 15.64 13.22 17.24 13.22 17.84Z" fill="black" fill-opacity="0.54"/>
</g>
</svg>
