<svg width="24" height="24" viewBox="0 0 24 24" fill="none" xmlns="http://www.w3.org/2000/svg">
<g id="grid_off_24px">
<path id="icon/image/grid_off_24px" fill-rule="evenodd" clip-rule="evenodd" d="M0.565002 1.97918L1.97498 0.569763L23.435 22.0208L22.025 23.4302L20.015 21.4211H4.565C3.46503 21.4211 2.565 20.5215 2.565 19.4219V3.97834L0.565002 1.97918ZM8.565 3.42857V4.3182L10.565 6.31737V3.42857H14.565V7.42691H11.675L13.675 9.42607H14.565V10.3157L16.565 12.3149V9.42607H20.565V13.4244H17.675L19.675 15.4236H20.565V16.3132L22.565 18.3124V3.42857C22.565 2.32903 21.665 1.42941 20.565 1.42941H5.67499L7.67499 3.42857H8.565ZM16.565 3.42857H20.565V7.42691H16.565V3.42857ZM10.565 11.975L12.015 13.4244H10.565V11.975ZM6.01501 7.42691L4.565 5.97751V7.42691H6.01501ZM8.565 19.4219H4.565V15.4236H8.565V19.4219ZM4.565 13.4244H8.565V9.97584L8.01501 9.42607H4.565V13.4244ZM14.565 19.4219H10.565V15.4236H14.015L14.565 15.9733V19.4219ZM16.565 17.9725V19.4219H18.015L16.565 17.9725Z" fill="black" fill-opacity="0.54"/>
</g>
</svg>
