<svg width="61" height="12" viewBox="0 0 61 12" fill="none" xmlns="http://www.w3.org/2000/svg">
<path id="Hardware" d="M7.91406 11H6.19141V6.57715H1.74121V11H0.0117188V1.04688H1.74121V5.18945H6.19141V1.04688H7.91406V11ZM14.3736 11C14.3007 10.8587 14.2369 10.6286 14.1822 10.3096C13.6536 10.861 13.0064 11.1367 12.2408 11.1367C11.498 11.1367 10.8919 10.9248 10.4225 10.501C9.95306 10.0771 9.71836 9.55306 9.71836 8.92871C9.71836 8.1403 10.01 7.53646 10.5934 7.11719C11.1812 6.69336 12.0198 6.48145 13.109 6.48145H14.1275V5.99609C14.1275 5.61328 14.0204 5.30794 13.8062 5.08008C13.5921 4.84766 13.2662 4.73145 12.8287 4.73145C12.4505 4.73145 12.1406 4.82715 11.899 5.01855C11.6575 5.2054 11.5367 5.44466 11.5367 5.73633H9.87559C9.87559 5.33073 10.01 4.95247 10.2789 4.60156C10.5478 4.24609 10.9124 3.9681 11.3727 3.76758C11.8375 3.56706 12.3548 3.4668 12.9244 3.4668C13.7903 3.4668 14.4807 3.68555 14.9957 4.12305C15.5107 4.55599 15.775 5.16667 15.7887 5.95508V9.29102C15.7887 9.95638 15.8821 10.4873 16.0689 10.8838V11H14.3736ZM12.5484 9.80371C12.8766 9.80371 13.1842 9.72396 13.4713 9.56445C13.763 9.40495 13.9817 9.19076 14.1275 8.92188V7.52734H13.232C12.6168 7.52734 12.1542 7.63444 11.8443 7.84863C11.5344 8.06283 11.3795 8.36589 11.3795 8.75781C11.3795 9.07682 11.4843 9.33203 11.6939 9.52344C11.9081 9.71029 12.193 9.80371 12.5484 9.80371ZM21.551 5.12109C21.3322 5.08464 21.1066 5.06641 20.8742 5.06641C20.1132 5.06641 19.6005 5.35807 19.3361 5.94141V11H17.675V3.60352H19.2609L19.302 4.43066C19.703 3.78809 20.259 3.4668 20.9699 3.4668C21.2069 3.4668 21.4029 3.4987 21.5578 3.5625L21.551 5.12109ZM22.3025 7.24707C22.3025 6.10775 22.5669 5.19401 23.0955 4.50586C23.6242 3.81315 24.3328 3.4668 25.2215 3.4668C26.0053 3.4668 26.6388 3.74023 27.1219 4.28711V0.5H28.783V11H27.2791L27.1971 10.2344C26.7003 10.8359 26.0372 11.1367 25.2078 11.1367C24.3419 11.1367 23.6401 10.7881 23.1023 10.0908C22.5691 9.39355 22.3025 8.44564 22.3025 7.24707ZM23.9637 7.39062C23.9637 8.14258 24.1072 8.73047 24.3943 9.1543C24.686 9.57357 25.0984 9.7832 25.6316 9.7832C26.3107 9.7832 26.8074 9.48014 27.1219 8.87402V5.71582C26.8165 5.12337 26.3243 4.82715 25.6453 4.82715C25.1076 4.82715 24.6928 5.04134 24.4012 5.46973C24.1095 5.89355 23.9637 6.53385 23.9637 7.39062ZM37.1635 8.70996L38.3393 3.60352H39.9594L37.9428 11H36.5756L34.9896 5.9209L33.4311 11H32.0639L30.0404 3.60352H31.6605L32.8568 8.65527L34.3744 3.60352H35.6254L37.1635 8.70996ZM45.6396 11C45.5667 10.8587 45.5029 10.6286 45.4482 10.3096C44.9196 10.861 44.2725 11.1367 43.5068 11.1367C42.764 11.1367 42.1579 10.9248 41.6885 10.501C41.2191 10.0771 40.9844 9.55306 40.9844 8.92871C40.9844 8.1403 41.276 7.53646 41.8594 7.11719C42.4473 6.69336 43.2858 6.48145 44.375 6.48145H45.3936V5.99609C45.3936 5.61328 45.2865 5.30794 45.0723 5.08008C44.8581 4.84766 44.5322 4.73145 44.0947 4.73145C43.7165 4.73145 43.4066 4.82715 43.165 5.01855C42.9235 5.2054 42.8027 5.44466 42.8027 5.73633H41.1416C41.1416 5.33073 41.276 4.95247 41.5449 4.60156C41.8138 4.24609 42.1784 3.9681 42.6387 3.76758C43.1035 3.56706 43.6208 3.4668 44.1904 3.4668C45.0563 3.4668 45.7467 3.68555 46.2617 4.12305C46.7767 4.55599 47.041 5.16667 47.0547 5.95508V9.29102C47.0547 9.95638 47.1481 10.4873 47.335 10.8838V11H45.6396ZM43.8145 9.80371C44.1426 9.80371 44.4502 9.72396 44.7373 9.56445C45.029 9.40495 45.2477 9.19076 45.3936 8.92188V7.52734H44.498C43.8828 7.52734 43.4202 7.63444 43.1104 7.84863C42.8005 8.06283 42.6455 8.36589 42.6455 8.75781C42.6455 9.07682 42.7503 9.33203 42.96 9.52344C43.1742 9.71029 43.459 9.80371 43.8145 9.80371ZM52.817 5.12109C52.5982 5.08464 52.3727 5.06641 52.1402 5.06641C51.3792 5.06641 50.8665 5.35807 50.6021 5.94141V11H48.941V3.60352H50.527L50.568 4.43066C50.969 3.78809 51.525 3.4668 52.2359 3.4668C52.4729 3.4668 52.6689 3.4987 52.8238 3.5625L52.817 5.12109ZM57.1369 11.1367C56.0842 11.1367 55.2297 10.8063 54.5734 10.1455C53.9217 9.48014 53.5959 8.59603 53.5959 7.49316V7.28809C53.5959 6.5498 53.7372 5.89128 54.0197 5.3125C54.3068 4.72917 54.7079 4.27572 55.2229 3.95215C55.7378 3.62858 56.312 3.4668 56.9455 3.4668C57.9527 3.4668 58.7297 3.78809 59.2766 4.43066C59.828 5.07324 60.1037 5.98242 60.1037 7.1582V7.82812H55.2707C55.3208 8.4388 55.5236 8.92188 55.8791 9.27734C56.2391 9.63281 56.6903 9.81055 57.2326 9.81055C57.9937 9.81055 58.6135 9.50293 59.092 8.8877L59.9875 9.74219C59.6913 10.1842 59.2948 10.5283 58.798 10.7744C58.3059 11.016 57.7521 11.1367 57.1369 11.1367ZM56.9387 4.7998C56.4829 4.7998 56.1138 4.95931 55.8312 5.27832C55.5533 5.59733 55.3755 6.04167 55.298 6.61133H58.4631V6.48828C58.4266 5.93229 58.2785 5.51302 58.0187 5.23047C57.759 4.94336 57.399 4.7998 56.9387 4.7998Z" fill="#5F6368"/>
</svg>
