<svg width="24" height="24" viewBox="0 0 24 24" fill="none" xmlns="http://www.w3.org/2000/svg">
<g id="hdr_off_24px">
<path id="icon/image/hdr_off_24px" fill-rule="evenodd" clip-rule="evenodd" d="M1.94495 3.005L3.005 1.945L22.0549 20.995L20.995 22.055L13.3949 14.455H9.995V11.055L8.495 9.555V14.455H6.995V11.955H4.995V14.455H3.495V8.455H4.995V10.455H6.995V8.455H7.3949L1.94495 3.005ZM13.4949 9.955V10.315L14.9949 11.815V9.955C14.9949 9.155 14.2949 8.455 13.4949 8.455H11.6349L13.1349 9.955H13.4949ZM17.995 12.455V14.455H17.635L16.495 13.315V8.455H19.995C20.795 8.455 21.495 9.155 21.495 9.955V10.955C21.495 11.555 21.095 12.055 20.595 12.355L21.495 14.455H19.995L19.095 12.455H17.995ZM19.995 9.955H17.995V10.955H19.995V9.955Z" fill="black" fill-opacity="0.54"/>
</g>
</svg>
