<svg width="24" height="24" viewBox="0 0 24 24" fill="none" xmlns="http://www.w3.org/2000/svg">
<g id="hdr_strong_24px">
<path id="icon/image/hdr_strong_24px" fill-rule="evenodd" clip-rule="evenodd" d="M17 6C13.6899 6 11 8.69 11 12C11 15.31 13.6899 18 17 18C20.3101 18 23 15.31 23 12C23 8.69 20.3101 6 17 6ZM5 8C2.79004 8 1 9.79 1 12C1 14.21 2.79004 16 5 16C7.20996 16 9 14.21 9 12C9 9.79 7.20996 8 5 8ZM3 12C3 13.1 3.90002 14 5 14C6.09998 14 7 13.1 7 12C7 10.9 6.09998 10 5 10C3.90002 10 3 10.9 3 12Z" fill="black" fill-opacity="0.54"/>
</g>
</svg>
