<svg width="24" height="24" viewBox="0 0 24 24" fill="none" xmlns="http://www.w3.org/2000/svg">
<g id="healing_24px">
<path id="icon/image/healing_24px" fill-rule="evenodd" clip-rule="evenodd" d="M17.745 12L21.725 8.01999C22.115 7.62999 22.115 6.99999 21.725 6.60999L17.385 2.26999C17.1983 2.08274 16.9446 1.97751 16.6801 1.97751C16.4156 1.97751 16.1619 2.08274 15.975 2.26999L11.995 6.24999L8.01505 2.26999C7.81509 2.07999 7.56509 1.98 7.30508 1.98C7.05508 1.98 6.79507 2.07999 6.60501 2.26999L2.26505 6.60999C1.87503 6.99999 1.87503 7.62999 2.26505 8.01999L6.24503 12L2.26505 15.98C1.87503 16.37 1.87503 17 2.26505 17.39L6.60501 21.73C6.99503 22.12 7.62503 22.12 8.01505 21.73L11.995 17.75L15.975 21.73C16.1751 21.93 16.4251 22.02 16.6851 22.02C16.9451 22.02 17.1951 21.92 17.3951 21.73L21.735 17.39C22.125 17 22.125 16.37 21.735 15.98L17.745 12ZM12.015 8.97999C12.5651 8.97999 13.015 9.42999 13.015 9.97999C13.015 10.53 12.5651 10.98 12.015 10.98C11.465 10.98 11.015 10.53 11.015 9.97999C11.015 9.42999 11.465 8.97999 12.015 8.97999ZM3.67508 7.32L7.30508 10.94L10.9251 7.30999L7.30508 3.68999L3.67508 7.32ZM10.015 12.98C9.465 12.98 9.01505 12.53 9.01505 11.98C9.01505 11.43 9.465 10.98 10.015 10.98C10.5651 10.98 11.015 11.43 11.015 11.98C11.015 12.53 10.5651 12.98 10.015 12.98ZM11.015 13.98C11.015 14.53 11.465 14.98 12.015 14.98C12.5651 14.98 13.015 14.53 13.015 13.98C13.015 13.43 12.5651 12.98 12.015 12.98C11.465 12.98 11.015 13.43 11.015 13.98ZM14.015 10.98C14.5651 10.98 15.015 11.43 15.015 11.98C15.015 12.53 14.5651 12.98 14.015 12.98C13.465 12.98 13.015 12.53 13.015 11.98C13.015 11.43 13.465 10.98 14.015 10.98ZM13.0451 16.7L16.6751 20.32L20.2951 16.69L16.6751 13.07L13.0451 16.7Z" fill="black" fill-opacity="0.54"/>
</g>
</svg>
