<svg width="24" height="24" viewBox="0 0 24 24" fill="none" xmlns="http://www.w3.org/2000/svg">
<g id="hearing_24px">
<path id="icon/av/hearing_24px" fill-rule="evenodd" clip-rule="evenodd" d="M7.64001 3.03L6.21997 1.61C4.22998 3.60001 3 6.35001 3 9.39C3 12.43 4.22998 15.18 6.21997 17.17L7.63 15.76C6.01001 14.13 5 11.88 5 9.39C5 6.89999 6.01001 4.64999 7.64001 3.03ZM17 20.39C16.71 20.39 16.44 20.33 16.24 20.24C15.53 19.87 15.03 19.36 14.53 17.86C14.0247 16.3143 13.0775 15.5834 12.1653 14.8795L12.14 14.86L12.1302 14.8524C11.3432 14.2448 10.5271 13.6147 9.82001 12.33C9.28998 11.37 9 10.32 9 9.39C9 6.59 11.2 4.39 14 4.39C16.8 4.39 19 6.59 19 9.39H21C21 5.46001 17.93 2.39 14 2.39C10.07 2.39 7 5.46001 7 9.39C7 10.65 7.38 12.04 8.07001 13.29C8.97998 14.94 10.05 15.77 10.92 16.44C11.73 17.06 12.31 17.51 12.63 18.49C13.23 20.31 14 21.33 15.36 22.04C15.87 22.27 16.43 22.39 17 22.39C19.21 22.39 21 20.6 21 18.39H19C19 19.49 18.1 20.39 17 20.39ZM14 11.89C12.62 11.89 11.5 10.77 11.5 9.39C11.5 8.00999 12.62 6.89 14 6.89C15.38 6.89 16.5 8.00999 16.5 9.39C16.5 10.77 15.38 11.89 14 11.89Z" fill="black" fill-opacity="0.54"/>
</g>
</svg>
