<svg width="24" height="24" viewBox="0 0 24 24" fill="none" xmlns="http://www.w3.org/2000/svg">
<g id="highlight_off_24px">
<path id="icon/action/highlight_off_24px" fill-rule="evenodd" clip-rule="evenodd" d="M12 2C6.46997 2 2 6.47 2 12C2 17.53 6.46997 22 12 22C17.53 22 22 17.53 22 12C22 6.47 17.53 2 12 2ZM14.59 8L12 10.59L9.41003 8L8 9.41L10.59 12L8 14.59L9.41003 16L12 13.41L14.59 16L16 14.59L13.41 12L16 9.41L14.59 8ZM4 12C4 16.41 7.58997 20 12 20C16.41 20 20 16.41 20 12C20 7.59 16.41 4 12 4C7.58997 4 4 7.59 4 12Z" fill="black" fill-opacity="0.54"/>
</g>
</svg>
