<svg width="24" height="24" viewBox="0 0 24 24" fill="none" xmlns="http://www.w3.org/2000/svg">
<g id="hot_tub_24px">
<path id="icon/places/hot_tub_24px" fill-rule="evenodd" clip-rule="evenodd" d="M17.42 6.70999C17.99 7.32999 18.24 8.12 18.0901 8.91L17.98 9.5H19.89L19.9501 9.07001C20.16 7.70999 19.6801 6.35999 18.65 5.35999L18.5801 5.29001C18.01 4.67001 17.76 3.88 17.91 3.09L18 2.5H16.11L16.05 2.92999C15.85 4.29001 16.3201 5.64001 17.35 6.64999L17.42 6.70999ZM5 5.5C5 4.39542 5.89539 3.5 7 3.5C8.10461 3.5 9 4.39542 9 5.5C9 6.60458 8.10461 7.5 7 7.5C5.89539 7.5 5 6.60458 5 5.5ZM10.33 10.78C10.5601 11.04 10.84 11.28 11.15 11.5H22V19.5C22 20.6 21.1 21.5 20 21.5H4C2.90002 21.5 2 20.6 2 19.5V11.5H5V10.75C5 9.51001 6.01001 8.5 7.25 8.5H7.28003C7.62 8.5 7.94995 8.59 8.23999 8.73001C8.5 8.85001 8.73999 9.01999 8.93005 9.23001L10.33 10.78ZM7 19.5H5V13.5H7V19.5ZM9 19.5H11V13.5H9V19.5ZM15 13.5V19.5H13V13.5H15ZM19 19.5V13.5H17V19.5H19ZM14.0901 8.91C14.24 8.12 13.99 7.32999 13.42 6.70999L13.35 6.64999C12.3201 5.64001 11.85 4.29001 12.05 2.92999L12.11 2.5H14L13.91 3.09C13.76 3.88 14.01 4.67001 14.5801 5.29001L14.65 5.35999C15.6801 6.35999 16.16 7.70999 15.9501 9.07001L15.89 9.5H13.98L14.0901 8.91Z" fill="black" fill-opacity="0.54"/>
</g>
</svg>
