<svg width="24" height="24" viewBox="0 0 24 24" fill="none" xmlns="http://www.w3.org/2000/svg">
<g id="hotel_24px">
<path id="icon/maps/hotel_24px" fill-rule="evenodd" clip-rule="evenodd" d="M19 6.5H11V14.5H3V4.5H1V19.5H3V16.5H21V19.5H23V10.5C23 8.28998 21.21 6.5 19 6.5ZM10 10.5C10 12.16 8.65997 13.5 7 13.5C5.34003 13.5 4 12.16 4 10.5C4 8.84003 5.34003 7.5 7 7.5C8.65997 7.5 10 8.84003 10 10.5ZM8 10.5C8 9.95001 7.54999 9.5 7 9.5C6.45001 9.5 6 9.95001 6 10.5C6 11.05 6.45001 11.5 7 11.5C7.54999 11.5 8 11.05 8 10.5ZM13 14.5H21V10.5C21 9.40002 20.1 8.5 19 8.5H13V14.5Z" fill="black" fill-opacity="0.54"/>
</g>
</svg>
