<svg width="24" height="24" viewBox="0 0 24 24" fill="none" xmlns="http://www.w3.org/2000/svg">
<g id="how_to_reg_24px">
<path id="icon/content/how_to_reg_24px" fill-rule="evenodd" clip-rule="evenodd" d="M14.5 7.75C14.5 9.95999 12.71 11.75 10.5 11.75C8.29001 11.75 6.5 9.95999 6.5 7.75C6.5 5.54001 8.29001 3.75 10.5 3.75C12.71 3.75 14.5 5.54001 14.5 7.75ZM12.5 7.75C12.5 6.64999 11.6 5.75 10.5 5.75C9.39999 5.75 8.5 6.64999 8.5 7.75C8.5 8.85001 9.39999 9.75 10.5 9.75C11.6 9.75 12.5 8.85001 12.5 7.75ZM4.5 17.75C4.70001 17.12 7.07001 16.07 9.45999 15.81L11.5 13.81C11.11 13.77 10.82 13.75 10.5 13.75C7.82999 13.75 2.5 15.09 2.5 17.75V19.75H11.5L9.5 17.75H4.5ZM14.97 17.42L20.1 12.25L21.5 13.66L14.97 20.25L11.5 16.75L12.9 15.34L14.97 17.42Z" fill="black" fill-opacity="0.54"/>
</g>
</svg>
