<svg width="24" height="24" viewBox="0 0 24 24" fill="none" xmlns="http://www.w3.org/2000/svg">
<g id="how_to_vote_24px">
<path id="icon/content/how_to_vote_24px" fill-rule="evenodd" clip-rule="evenodd" d="M11.34 15.0206C11.73 15.4106 12.36 15.4106 12.75 15.0206L19.11 8.66061C19.5 8.27063 19.5 7.64062 19.11 7.25061L14.16 2.30063C13.78 1.90063 13.15 1.90063 12.76 2.29062L6.39001 8.66061C6 9.05063 6 9.68063 6.39001 10.0706L11.34 15.0206ZM17.32 13.0006H18L21 16.0006V20.0006C21 21.1106 20.1 22.0006 19 22.0006H4.98999C3.89001 22.0006 3 21.1006 3 20.0006V16.0006L6 13.0006H6.82999L8.82999 15.0006H6.78L5 17.0006H19L17.23 15.0006H15.32L17.32 13.0006ZM5 20.0006H19V19.0006H5V20.0006ZM17 7.95062L13.46 4.41061L8.51001 9.36063L12.05 12.9006L17 7.95062Z" fill="black" fill-opacity="0.54"/>
</g>
</svg>
