<svg width="39" height="13" viewBox="0 0 39 13" fill="none" xmlns="http://www.w3.org/2000/svg">
<path id="Image" d="M1.83691 10H0.114258V0.046875H1.83691V10ZM5.51426 2.60352L5.56211 3.37598C6.08164 2.76986 6.79258 2.4668 7.69492 2.4668C8.68385 2.4668 9.36061 2.84505 9.7252 3.60156C10.263 2.84505 11.0195 2.4668 11.9947 2.4668C12.8105 2.4668 13.4166 2.69238 13.8131 3.14355C14.2141 3.59473 14.4192 4.26009 14.4283 5.13965V10H12.7672V5.1875C12.7672 4.7181 12.6646 4.37402 12.4596 4.15527C12.2545 3.93652 11.915 3.82715 11.441 3.82715C11.0628 3.82715 10.7529 3.92969 10.5113 4.13477C10.2743 4.33529 10.108 4.59961 10.0123 4.92773L10.0191 10H8.35801V5.13281C8.33522 4.26237 7.89089 3.82715 7.025 3.82715C6.35964 3.82715 5.88796 4.09831 5.60996 4.64062V10H3.94883V2.60352H5.51426ZM20.7033 10C20.6304 9.85872 20.5666 9.62858 20.5119 9.30957C19.9833 9.861 19.3361 10.1367 18.5705 10.1367C17.8277 10.1367 17.2215 9.9248 16.7521 9.50098C16.2827 9.07715 16.048 8.55306 16.048 7.92871C16.048 7.1403 16.3397 6.53646 16.923 6.11719C17.5109 5.69336 18.3495 5.48145 19.4387 5.48145H20.4572V4.99609C20.4572 4.61328 20.3501 4.30794 20.1359 4.08008C19.9217 3.84766 19.5959 3.73145 19.1584 3.73145C18.7801 3.73145 18.4702 3.82715 18.2287 4.01855C17.9872 4.2054 17.8664 4.44466 17.8664 4.73633H16.2053C16.2053 4.33073 16.3397 3.95247 16.6086 3.60156C16.8775 3.24609 17.2421 2.9681 17.7023 2.76758C18.1672 2.56706 18.6844 2.4668 19.2541 2.4668C20.12 2.4668 20.8104 2.68555 21.3254 3.12305C21.8404 3.55599 22.1047 4.16667 22.1184 4.95508V8.29102C22.1184 8.95638 22.2118 9.4873 22.3986 9.88379V10H20.7033ZM18.8781 8.80371C19.2062 8.80371 19.5139 8.72396 19.801 8.56445C20.0926 8.40495 20.3114 8.19076 20.4572 7.92188V6.52734H19.5617C18.9465 6.52734 18.4839 6.63444 18.174 6.84863C17.8641 7.06283 17.7092 7.36589 17.7092 7.75781C17.7092 8.07682 17.814 8.33203 18.0236 8.52344C18.2378 8.71029 18.5227 8.80371 18.8781 8.80371ZM23.7176 6.24707C23.7176 5.09863 23.9865 4.18262 24.5242 3.49902C25.0665 2.81087 25.7843 2.4668 26.6775 2.4668C27.5206 2.4668 28.1837 2.76074 28.6668 3.34863L28.742 2.60352H30.2391V9.77441C30.2391 10.7451 29.936 11.5107 29.3299 12.0713C28.7283 12.6318 27.9148 12.9121 26.8895 12.9121C26.3471 12.9121 25.8162 12.7982 25.2967 12.5703C24.7817 12.347 24.3898 12.0531 24.1209 11.6885L24.907 10.6904C25.4174 11.2965 26.0464 11.5996 26.7938 11.5996C27.3452 11.5996 27.7804 11.4492 28.0994 11.1484C28.4184 10.8522 28.5779 10.4147 28.5779 9.83594V9.33691C28.0994 9.87012 27.4614 10.1367 26.6639 10.1367C25.798 10.1367 25.0893 9.79264 24.5379 9.10449C23.991 8.41634 23.7176 7.46387 23.7176 6.24707ZM25.3719 6.39062C25.3719 7.13346 25.5223 7.71908 25.823 8.14746C26.1284 8.57129 26.5499 8.7832 27.0877 8.7832C27.7576 8.7832 28.2544 8.49609 28.5779 7.92188V4.66797C28.2635 4.10742 27.7713 3.82715 27.1014 3.82715C26.5545 3.82715 26.1284 4.04362 25.823 4.47656C25.5223 4.90951 25.3719 5.54753 25.3719 6.39062ZM35.3588 10.1367C34.3061 10.1367 33.4516 9.80632 32.7953 9.14551C32.1436 8.48014 31.8178 7.59603 31.8178 6.49316V6.28809C31.8178 5.5498 31.959 4.89128 32.2416 4.3125C32.5287 3.72917 32.9298 3.27572 33.4447 2.95215C33.9597 2.62858 34.5339 2.4668 35.1674 2.4668C36.1745 2.4668 36.9516 2.78809 37.4984 3.43066C38.0499 4.07324 38.3256 4.98242 38.3256 6.1582V6.82812H33.4926C33.5427 7.4388 33.7455 7.92188 34.101 8.27734C34.461 8.63281 34.9122 8.81055 35.4545 8.81055C36.2156 8.81055 36.8354 8.50293 37.3139 7.8877L38.2094 8.74219C37.9131 9.18424 37.5167 9.52832 37.0199 9.77441C36.5277 10.016 35.974 10.1367 35.3588 10.1367ZM35.1605 3.7998C34.7048 3.7998 34.3357 3.95931 34.0531 4.27832C33.7751 4.59733 33.5974 5.04167 33.5199 5.61133H36.685V5.48828C36.6485 4.93229 36.5004 4.51302 36.2406 4.23047C35.9809 3.94336 35.6208 3.7998 35.1605 3.7998Z" fill="#5F6368"/>
</svg>
