<svg width="24" height="24" viewBox="0 0 24 24" fill="none" xmlns="http://www.w3.org/2000/svg">
<g id="import_contacts_24px">
<path id="icon/communication/import_contacts_24px" fill-rule="evenodd" clip-rule="evenodd" d="M17.5 3.5C18.67 3.5 19.89 3.64999 21 4C21.75 4.25 22.4 4.54999 23 5V19.6C23 19.85 22.75 20.1 22.5 20.1C22.4 20.1 22.35 20.1 22.25 20.05C20.85 19.3 19.15 19 17.5 19C15.8 19 13.35 19.65 12 20.5C10.55 19.4 8.45001 19 6.5 19C5.04999 19 3.09998 19.45 1.75 20.1C1.70001 20.1 1.66248 20.1125 1.625 20.125C1.58752 20.1375 1.54999 20.15 1.5 20.15C1.25 20.15 1 19.9 1 19.65V5C2.45001 3.89999 4.54999 3.5 6.5 3.5C8.45001 3.5 10.55 3.89999 12 5C13.45 3.89999 15.55 3.5 17.5 3.5ZM17.5 17C18.7 17 19.9 17.15 21 17.5V6C19.9 5.64999 18.7 5.5 17.5 5.5C15.8 5.5 13.35 6.14999 12 7V18.5C13.35 17.65 15.8 17 17.5 17Z" fill="black" fill-opacity="0.54"/>
</g>
</svg>
