<svg width="24" height="24" viewBox="0 0 24 24" fill="none" xmlns="http://www.w3.org/2000/svg">
<g id="insert_link_24px">
<path id="icon/editor/insert_link_24px" fill-rule="evenodd" clip-rule="evenodd" d="M3.89999 12C3.89999 10.29 5.28999 8.89999 7 8.89999H11V7H7C4.24001 7 2 9.24001 2 12C2 14.76 4.24001 17 7 17H11V15.1H7C5.28999 15.1 3.89999 13.71 3.89999 12ZM8 13H16V11H8V13ZM13 7H17C19.76 7 22 9.24001 22 12C22 14.76 19.76 17 17 17H13V15.1H17C18.71 15.1 20.1 13.71 20.1 12C20.1 10.29 18.71 8.89999 17 8.89999H13V7Z" fill="black" fill-opacity="0.54"/>
</g>
</svg>
