<svg width="24" height="24" viewBox="0 0 24 24" fill="none" xmlns="http://www.w3.org/2000/svg">
<g id="invert_colors_off_24px">
<path id="icon/communication/invert_colors_off_24px" fill-rule="evenodd" clip-rule="evenodd" d="M11.94 4.70999V8.76001L19.34 16.16C20.49 13.28 19.93 9.88 17.59 7.55002L11.94 1.88L8.5 5.32001L9.90997 6.73001L11.94 4.70999ZM4.33997 3.98001L2.92999 5.39001L5.71002 8.17001C3.16998 11.31 3.35999 15.92 6.27997 18.85C7.83997 20.41 9.89001 21.19 11.94 21.19C13.72 21.19 15.5 20.6 16.96 19.42L19.66 22.12L21.07 20.71L4.33997 3.98001ZM7.70001 17.44C8.83002 18.58 10.34 19.2 11.94 19.2V14.4L7.15002 9.61002C6.37 10.64 5.94 11.88 5.94 13.2C5.94 14.8 6.56 16.3 7.70001 17.44Z" fill="black" fill-opacity="0.54"/>
</g>
</svg>
