<svg width="24" height="24" viewBox="0 0 24 24" fill="none" xmlns="http://www.w3.org/2000/svg">
<g id="keyboard_voice_24px">
<path id="icon/hardware/keyboard_voice_24px" fill-rule="evenodd" clip-rule="evenodd" d="M12 14.5C13.66 14.5 14.99 13.16 14.99 11.5L15 5.5C15 3.84 13.66 2.5 12 2.5C10.34 2.5 9 3.84 9 5.5V11.5C9 13.16 10.34 14.5 12 14.5ZM10.8 5.40002C10.8 4.74002 11.34 4.20001 12 4.20001C12.66 4.20001 13.2 4.74002 13.2 5.40002L13.19 11.6C13.19 12.26 12.66 12.8 12 12.8C11.34 12.8 10.8 12.26 10.8 11.6V5.40002ZM12 16.6C14.76 16.6 17.3 14.5 17.3 11.5H19C19 14.92 16.28 17.74 13 18.22V21.5H11V18.22C7.72 17.73 5 14.91 5 11.5H6.70001C6.70001 14.5 9.23999 16.6 12 16.6Z" fill="black" fill-opacity="0.54"/>
</g>
</svg>
