<svg width="24" height="24" viewBox="0 0 24 24" fill="none" xmlns="http://www.w3.org/2000/svg">
<g id="label_off_24px">
<path id="icon/action/label_off_24px" fill-rule="evenodd" clip-rule="evenodd" d="M2 4.22L3.57996 5.8C3.21997 6.14999 3 6.64999 3 7.18999V17.19C3 18.29 3.90002 19.18 5 19.18L16 19.19C16.28 19.19 16.55 19.12 16.79 19.01L18.97 21.19L20.38 19.78L3.41003 2.81L2 4.22ZM16 7.18999L19.55 12.19L17.92 14.48L19.35 15.91L22 12.19L17.63 6.02999C17.27 5.52 16.67 5.18999 16 5.18999L8.63 5.2L10.63 7.18999H16ZM5 17.19H14.97L5 7.22V17.19Z" fill="black" fill-opacity="0.54"/>
</g>
</svg>
