<svg width="24" height="24" viewBox="0 0 24 24" fill="none" xmlns="http://www.w3.org/2000/svg">
<g id="layers_clear_24px">
<path id="icon/maps/layers_clear_24px" fill-rule="evenodd" clip-rule="evenodd" d="M3.34009 1.89502L1.93005 3.30499L6.15002 7.52502L2.93005 10.035L11.9301 17.035L14.03 15.405L15.4501 16.825L11.92 19.575L4.55005 13.845L2.93005 15.105L11.9301 22.105L16.88 18.255L20.66 22.035L22.0701 20.625L3.34009 1.89502ZM17.67 10.035L11.9301 5.56506L10.7601 6.47504L9.34009 5.05505L11.9301 3.03503L20.9301 10.035L17.2101 12.925L15.78 11.505L17.67 10.035ZM19.3 13.835L20.9301 15.105L20.0601 15.785L18.63 14.355L19.3 13.835ZM6.19006 10.035L11.9301 14.505L12.6001 13.975L7.58008 8.95502L6.19006 10.035Z" fill="black" fill-opacity="0.54"/>
</g>
</svg>
