<svg width="24" height="24" viewBox="0 0 24 24" fill="none" xmlns="http://www.w3.org/2000/svg">
<g id="leak_remove_24px">
<path id="icon/image/leak_remove_24px" fill-rule="evenodd" clip-rule="evenodd" d="M2.93005 4.34L4.34009 2.93L21.0701 19.66L19.66 21.07L16.8201 18.23C16.26 19.04 15.9301 20.01 15.9301 21.07H13.9301C13.9301 19.46 14.4801 17.98 15.39 16.8L13.9601 15.37C12.6901 16.93 11.9301 18.91 11.9301 21.07H9.93005C9.93005 18.36 10.92 15.88 12.55 13.96L10.04 11.45C8.13 13.08 5.65002 14.07 2.93005 14.07V12.07C5.09009 12.07 7.07007 11.31 8.63 10.04L7.20007 8.61C6.02002 9.52 4.54004 10.07 2.93005 10.07V8.07C3.99011 8.07 4.96008 7.74 5.77002 7.18L2.93005 4.34ZM9.93005 3.07H7.93005C7.93005 3.19522 7.91272 3.3161 7.89502 3.43835L7.89429 3.44348C7.8855 3.50504 7.87659 3.56697 7.87 3.63L9.55005 5.31C9.80005 4.61 9.93005 3.85 9.93005 3.07ZM13.9301 3.07H11.9301C11.9301 4.42 11.6201 5.7 11.0901 6.84L12.5801 8.33C13.4401 6.77 13.9301 4.98 13.9301 3.07ZM20.9301 12.07V10.07C19.02 10.07 17.23 10.56 15.66 11.42L17.15 12.91C18.3 12.38 19.5801 12.07 20.9301 12.07ZM20.9301 14.07V16.07C20.822 16.07 20.717 16.083 20.6118 16.096C20.532 16.1058 20.452 16.1157 20.3701 16.12L18.6901 14.44C19.39 14.2 20.14 14.07 20.9301 14.07Z" fill="black" fill-opacity="0.54"/>
</g>
</svg>
