<svg width="24" height="24" viewBox="0 0 24 24" fill="none" xmlns="http://www.w3.org/2000/svg">
<g id="list_alt_24px">
<path id="icon/communication/list_alt_24px" fill-rule="evenodd" clip-rule="evenodd" d="M20.1 3H3.90002C3.40002 3 3 3.39999 3 3.89999V20.1C3 20.5 3.40002 21 3.90002 21H20.1C20.5 21 21 20.5 21 20.1V3.89999C21 3.39999 20.5 3 20.1 3ZM9 7H7V9H9V7ZM17 7H11V9H17V7ZM17 11H11V13H17V11ZM11 15H17V17H11V15ZM7 11H9V13H7V11ZM9 15H7V17H9V15ZM5 19H19V5H5V19Z" fill="black" fill-opacity="0.54"/>
</g>
</svg>
