<svg width="24" height="24" viewBox="0 0 24 24" fill="none" xmlns="http://www.w3.org/2000/svg">
<g id="local_laundry_service_24px">
<path id="icon/maps/local_laundry_service_24px" fill-rule="evenodd" clip-rule="evenodd" d="M6 2L18 2.01001C19.11 2.01001 20 2.89001 20 4V20C20 21.11 19.11 22 18 22H6C4.89001 22 4 21.11 4 20V4C4 2.89001 4.89001 2 6 2ZM5.98999 4L6 20H18V4H5.98999ZM8 5C7.44775 5 7 5.44769 7 6C7 6.55231 7.44775 7 8 7C8.55225 7 9 6.55231 9 6C9 5.44769 8.55225 5 8 5ZM10 6C10 5.44769 10.4478 5 11 5C11.5522 5 12 5.44769 12 6C12 6.55231 11.5522 7 11 7C10.4478 7 10 6.55231 10 6ZM12 19C14.76 19 17 16.76 17 14C17 11.24 14.76 9 12 9C9.23999 9 7 11.24 7 14C7 16.76 9.23999 19 12 19ZM14.36 16.36C15.66 15.06 15.66 12.94 14.36 11.64L9.64001 16.36C10.9401 17.66 13.0601 17.66 14.36 16.36Z" fill="black" fill-opacity="0.54"/>
</g>
</svg>
