<svg width="24" height="24" viewBox="0 0 24 24" fill="none" xmlns="http://www.w3.org/2000/svg">
<g id="local_library_24px">
<path id="icon/maps/local_library_24px" fill-rule="evenodd" clip-rule="evenodd" d="M16 5.22498C16 7.435 14.21 9.22498 12 9.22498C9.78998 9.22498 8 7.435 8 5.22498C8 3.01495 9.78998 1.22498 12 1.22498C14.21 1.22498 16 3.01495 16 5.22498ZM14 5.22498C14 4.125 13.1 3.22498 12 3.22498C10.9 3.22498 10 4.125 10 5.22498C10 6.32495 10.9 7.22498 12 7.22498C13.1 7.22498 14 6.32495 14 5.22498ZM12 11.775C9.64001 9.57495 6.47998 8.22498 3 8.22498V19.225C6.47998 19.225 9.64001 20.575 12 22.775C14.36 20.585 17.52 19.225 21 19.225V8.22498C17.52 8.22498 14.36 9.57495 12 11.775ZM12 20.175C14.07 18.655 16.47 17.6949 19 17.355V10.405C16.9 10.785 14.95 11.7549 13.36 13.235L12 14.5049L10.64 13.225C9.04999 11.7449 7.09998 10.775 5 10.395V17.345C7.53003 17.6849 9.94 18.655 12 20.175Z" fill="black" fill-opacity="0.54"/>
</g>
</svg>
