<svg width="24" height="24" viewBox="0 0 24 24" fill="none" xmlns="http://www.w3.org/2000/svg">
<g id="local_drink_24px">
<path id="icon/maps/local_drink_24px" fill-rule="evenodd" clip-rule="evenodd" d="M3 2L5.01001 20.23C5.13 21.23 5.96997 22 7 22H17C18.03 22 18.87 21.23 18.99 20.23L21 2H3ZM7 20.01L5.89001 10H18.1L17 20L7 20.01ZM5.66998 8H18.33L18.76 4H5.22998L5.66998 8ZM12 19C13.66 19 15 17.66 15 16C15 14 12 10.6 12 10.6C12 10.6 9 14 9 16C9 17.66 10.34 19 12 19ZM13 16C13 15.64 12.59 14.8199 12 13.91C11.41 14.81 11 15.6299 11 16C11 16.55 11.45 17 12 17C12.55 17 13 16.55 13 16Z" fill="black" fill-opacity="0.54"/>
</g>
</svg>
