<svg width="24" height="24" viewBox="0 0 24 24" fill="none" xmlns="http://www.w3.org/2000/svg">
<g id="local_florist_24px">
<path id="icon/maps/local_florist_24px" fill-rule="evenodd" clip-rule="evenodd" d="M8.66003 13.57C8.81006 13.57 8.94995 13.56 9.08997 13.54C9.56006 14.69 10.6901 15.5 12 15.5C13.3101 15.5 14.4401 14.69 14.91 13.54C15.05 13.56 15.2 13.57 15.34 13.57C17.0701 13.57 18.48 12.16 18.48 10.43C18.48 9.71997 18.23 9.03998 17.8101 8.5C18.24 7.96002 18.48 7.28003 18.48 6.57001C18.48 4.84003 17.0701 3.42999 15.34 3.42999C15.1901 3.42999 15.05 3.44 14.91 3.46002C14.4401 2.31 13.3101 1.5 12 1.5C10.6901 1.5 9.56006 2.31 9.08997 3.46002C8.94995 3.44 8.80005 3.42999 8.66003 3.42999C6.93005 3.42999 5.52002 4.84003 5.52002 6.57001C5.52002 7.28003 5.77002 7.96002 6.19006 8.5C5.76001 9.03998 5.51001 9.71997 5.51001 10.43C5.51001 12.16 6.92004 13.57 8.66003 13.57ZM12 13.5C11.38 13.5 10.88 13.01 10.86 12.4L10.98 11.31C11.2999 11.43 11.64 11.5 12 11.5C12.36 11.5 12.71 11.43 13.03 11.31L13.14 12.4C13.12 13.01 12.62 13.5 12 13.5ZM14.7001 11.37C14.88 11.5 15.1 11.5699 15.34 11.5699C15.97 11.5699 16.49 11.06 16.49 10.42C16.49 9.97998 16.23 9.57996 15.83 9.38995L14.9501 8.96997C14.83 9.70996 14.4401 10.35 13.89 10.8L14.7001 11.37ZM14.6899 5.63C14.89 5.5 15.11 5.42999 15.34 5.42999C15.97 5.42999 16.48 5.94 16.48 6.57001C16.48 7.01001 16.23 7.39996 15.8199 7.59998L14.9399 8.02002C14.8199 7.27997 14.4301 6.64001 13.87 6.19L14.6899 5.63ZM13.14 4.59998C13.12 3.98999 12.62 3.5 12 3.5C11.38 3.5 10.88 3.98999 10.86 4.59998L10.98 5.69C11.2999 5.57001 11.64 5.5 12 5.5C12.36 5.5 12.71 5.57001 13.03 5.69L13.14 4.59998ZM8.66003 5.42999C8.90002 5.42999 9.12 5.5 9.30005 5.63L10.11 6.19C9.56006 6.64001 9.17004 7.27997 9.05005 8.02002L8.17004 7.59998C7.77002 7.39996 7.51001 7.01001 7.51001 6.57001C7.51001 5.94 8.03003 5.42999 8.66003 5.42999ZM9.05005 8.97998L8.17004 9.39996C7.77002 9.59998 7.51001 9.98999 7.52002 10.42C7.52002 11.05 8.03003 11.56 8.66003 11.56C8.89001 11.56 9.11011 11.49 9.31006 11.36L10.12 10.81C9.56006 10.36 9.17004 9.71997 9.05005 8.97998ZM12 22.5C16.97 22.5 21 18.47 21 13.5C16.03 13.5 12 17.53 12 22.5ZM3 13.5C3 18.47 7.03003 22.5 12 22.5C12 17.53 7.96997 13.5 3 13.5ZM14.4399 20.06C15.1499 18.16 16.6599 16.64 18.5599 15.94C17.85 17.84 16.34 19.35 14.4399 20.06ZM5.43994 15.94C7.33997 16.65 8.85999 18.16 9.55994 20.06C7.65991 19.35 6.1499 17.84 5.43994 15.94Z" fill="black" fill-opacity="0.54"/>
</g>
</svg>
