<svg width="24" height="24" viewBox="0 0 24 24" fill="none" xmlns="http://www.w3.org/2000/svg">
<g id="local_gas_station_24px">
<path id="icon/maps/local_gas_station_24px" fill-rule="evenodd" clip-rule="evenodd" d="M19.53 7.21997L19.52 7.22998C19.97 7.67999 20.25 8.31 20.25 9V18.5C20.25 19.88 19.13 21 17.75 21C16.37 21 15.25 19.88 15.25 18.5V13.5H13.75V21H3.75V5C3.75 3.90002 4.65002 3 5.75 3H11.75C12.85 3 13.75 3.90002 13.75 5V12H14.75C15.85 12 16.75 12.9 16.75 14V18.5C16.75 19.05 17.2 19.5 17.75 19.5C18.3 19.5 18.75 19.05 18.75 18.5V11.29C18.4399 11.42 18.11 11.5 17.75 11.5C16.37 11.5 15.25 10.38 15.25 9C15.25 7.92999 15.92 7.03003 16.86 6.66998L14.75 4.56L15.8101 3.5L19.53 7.21997ZM11.75 19V13.5V12H5.75V19H11.75ZM11.75 10H5.75V5H11.75V10ZM16.75 9C16.75 9.54999 17.2 10 17.75 10C18.3 10 18.75 9.54999 18.75 9C18.75 8.45001 18.3 8 17.75 8C17.2 8 16.75 8.45001 16.75 9Z" fill="black" fill-opacity="0.54"/>
</g>
</svg>
