<svg width="24" height="24" viewBox="0 0 24 24" fill="none" xmlns="http://www.w3.org/2000/svg">
<g id="local_atm_24px">
<path id="icon/maps/local_atm_24px" fill-rule="evenodd" clip-rule="evenodd" d="M20 4H4C2.89001 4 2.01001 4.89001 2.01001 6L2 18C2 19.11 2.89001 20 4 20H20C21.11 20 22 19.11 22 18V6C22 4.89001 21.11 4 20 4ZM11 17H13V16H14C14.55 16 15 15.55 15 15V12C15 11.45 14.55 11 14 11H11V10H15V8H13V7H11V8H10C9.44995 8 9 8.45001 9 9V12C9 12.55 9.44995 13 10 13H13V14H9V16H11V17ZM4 18H20V6H4V18Z" fill="black" fill-opacity="0.54"/>
</g>
</svg>
