<svg width="24" height="24" viewBox="0 0 24 24" fill="none" xmlns="http://www.w3.org/2000/svg">
<g id="local_car_wash_24px">
<path id="icon/maps/local_car_wash_24px" fill-rule="evenodd" clip-rule="evenodd" d="M7 5.10004C7.83002 5.10004 8.5 4.43005 8.5 3.60004C8.5 2.60004 7 0.900024 7 0.900024C7 0.900024 5.5 2.60004 5.5 3.60004C5.5 4.43005 6.16998 5.10004 7 5.10004ZM13.5 3.60004C13.5 4.43005 12.83 5.10004 12 5.10004C11.17 5.10004 10.5 4.43005 10.5 3.60004C10.5 2.60004 12 0.900024 12 0.900024C12 0.900024 13.5 2.60004 13.5 3.60004ZM18.5 3.60004C18.5 4.43005 17.83 5.10004 17 5.10004C16.17 5.10004 15.5 4.43005 15.5 3.60004C15.5 2.60004 17 0.900024 17 0.900024C17 0.900024 18.5 2.60004 18.5 3.60004ZM17.5 7.10004C18.16 7.10004 18.72 7.52002 18.92 8.11005L21 14.1V22.1C21 22.65 20.55 23.1 20 23.1H19C18.45 23.1 18 22.65 18 22.1V21.1H6V22.1C6 22.65 5.54999 23.1 5 23.1H4C3.45001 23.1 3 22.65 3 22.1V14.1L5.08002 8.11005C5.28998 7.52002 5.84003 7.10004 6.5 7.10004H17.5ZM6.84998 9.10004H17.14L18.18 12.1H5.81L6.84998 9.10004ZM5 14.4401V19.1H19V14.4401L18.89 14.1H5.12L5 14.4401ZM7.5 15.1C6.67157 15.1 6 15.7716 6 16.6C6 17.4285 6.67157 18.1 7.5 18.1C8.32843 18.1 9 17.4285 9 16.6C9 15.7716 8.32843 15.1 7.5 15.1ZM15 16.6C15 15.7716 15.6716 15.1 16.5 15.1C17.3284 15.1 18 15.7716 18 16.6C18 17.4285 17.3284 18.1 16.5 18.1C15.6716 18.1 15 17.4285 15 16.6Z" fill="black" fill-opacity="0.54"/>
</g>
</svg>
