<svg width="24" height="24" viewBox="0 0 24 24" fill="none" xmlns="http://www.w3.org/2000/svg">
<g id="local_pizza_24px">
<path id="icon/maps/local_pizza_24px" fill-rule="evenodd" clip-rule="evenodd" d="M3.01001 6C5.22998 3.53998 8.43005 2 12 2C15.5701 2 18.78 3.54999 20.99 6L12 22L3.01001 6ZM5.51001 6.35999L12 17.92L18.49 6.35999C16.6801 4.84998 14.38 4 12 4C9.62 4 7.32007 4.84998 5.51001 6.35999ZM9 5.5C8.17004 5.5 7.5 6.16998 7.5 7C7.5 7.83002 8.17004 8.5 9 8.5C9.82996 8.5 10.5 7.83002 10.5 7C10.5 6.16998 9.81995 5.5 9 5.5ZM12 14.5C11.17 14.5 10.5 13.83 10.5 13C10.5 12.17 11.1801 11.5 12 11.5C12.8199 11.5 13.5 12.17 13.5 13C13.5 13.83 12.8199 14.5 12 14.5Z" fill="black" fill-opacity="0.54"/>
</g>
</svg>
