<svg width="24" height="24" viewBox="0 0 24 24" fill="none" xmlns="http://www.w3.org/2000/svg">
<g id="local_see_24px">
<path id="icon/maps/local_see_24px" fill-rule="evenodd" clip-rule="evenodd" d="M16.83 5H20C21.1 5 22 5.90002 22 7V19C22 20.1 21.1 21 20 21H4C2.90002 21 2 20.1 2 19V7C2 5.90002 2.90002 5 4 5H7.16998L9 3H15L16.83 5ZM4 19H20V7H15.95L15.36 6.34998L14.12 5H9.88L8.64001 6.34998L8.04999 7H4V19ZM12 8C9.23999 8 7 10.24 7 13C7 15.76 9.23999 18 12 18C14.76 18 17 15.76 17 13C17 10.24 14.76 8 12 8ZM8.79999 13C8.79999 14.77 10.23 16.2 12 16.2C13.77 16.2 15.2 14.77 15.2 13C15.2 11.23 13.77 9.79999 12 9.79999C10.23 9.79999 8.79999 11.23 8.79999 13Z" fill="black" fill-opacity="0.54"/>
</g>
</svg>
