<svg width="24" height="24" viewBox="0 0 24 24" fill="none" xmlns="http://www.w3.org/2000/svg">
<g id="map_24px">
<path id="icon/maps/map_24px" fill-rule="evenodd" clip-rule="evenodd" d="M20.34 3.03003L20.5 3C20.78 3 21 3.21997 21 3.5V18.62C21 18.85 20.85 19.03 20.64 19.1L15 21L9 18.9L3.66003 20.97L3.5 21C3.21997 21 3 20.78 3 20.5V5.38C3 5.15002 3.15002 4.96997 3.35999 4.90002L9 3L15 5.09998L20.34 3.03003ZM14 6.87L10 5.46997V17.1299L14 18.53V6.87ZM5 6.46002L8 5.45001V17.15L5 18.31V6.46002ZM16 18.55L19 17.54V5.70001L16 6.85999V18.55Z" fill="black" fill-opacity="0.54"/>
</g>
</svg>
