<svg width="34" height="13" viewBox="0 0 34 13" fill="none" xmlns="http://www.w3.org/2000/svg">
<path id="Maps" d="M2.25391 0.046875L5.125 7.67578L7.98926 0.046875H10.2246V10H8.50195V6.71875L8.67285 2.33008L5.7334 10H4.49609L1.56348 2.33691L1.73438 6.71875V10H0.0117188V0.046875H2.25391ZM16.6842 10C16.6113 9.85872 16.5475 9.62858 16.4928 9.30957C15.9641 9.861 15.317 10.1367 14.5514 10.1367C13.8085 10.1367 13.2024 9.9248 12.733 9.50098C12.2636 9.07715 12.0289 8.55306 12.0289 7.92871C12.0289 7.1403 12.3206 6.53646 12.9039 6.11719C13.4918 5.69336 14.3303 5.48145 15.4195 5.48145H16.4381V4.99609C16.4381 4.61328 16.331 4.30794 16.1168 4.08008C15.9026 3.84766 15.5768 3.73145 15.1393 3.73145C14.761 3.73145 14.4511 3.82715 14.2096 4.01855C13.968 4.2054 13.8473 4.44466 13.8473 4.73633H12.1861C12.1861 4.33073 12.3206 3.95247 12.5895 3.60156C12.8583 3.24609 13.2229 2.9681 13.6832 2.76758C14.148 2.56706 14.6653 2.4668 15.235 2.4668C16.1008 2.4668 16.7913 2.68555 17.3062 3.12305C17.8212 3.55599 18.0855 4.16667 18.0992 4.95508V8.29102C18.0992 8.95638 18.1926 9.4873 18.3795 9.88379V10H16.6842ZM14.859 8.80371C15.1871 8.80371 15.4947 8.72396 15.7818 8.56445C16.0735 8.40495 16.2923 8.19076 16.4381 7.92188V6.52734H15.5426C14.9273 6.52734 14.4648 6.63444 14.1549 6.84863C13.845 7.06283 13.69 7.36589 13.69 7.75781C13.69 8.07682 13.7949 8.33203 14.0045 8.52344C14.2187 8.71029 14.5035 8.80371 14.859 8.80371ZM26.466 6.37695C26.466 7.52083 26.2062 8.43457 25.6867 9.11816C25.1672 9.7972 24.4699 10.1367 23.5949 10.1367C22.7837 10.1367 22.1343 9.87012 21.6467 9.33691V12.8438H19.9855V2.60352H21.5168L21.5852 3.35547C22.0728 2.76302 22.7359 2.4668 23.5744 2.4668C24.4768 2.4668 25.1831 2.80404 25.6936 3.47852C26.2085 4.14844 26.466 5.0804 26.466 6.27441V6.37695ZM24.8117 6.2334C24.8117 5.49512 24.6636 4.90951 24.3674 4.47656C24.0757 4.04362 23.6564 3.82715 23.1096 3.82715C22.4305 3.82715 21.9429 4.10742 21.6467 4.66797V7.94922C21.9475 8.52344 22.4396 8.81055 23.1232 8.81055C23.6519 8.81055 24.0643 8.59863 24.3605 8.1748C24.6613 7.74642 24.8117 7.09928 24.8117 6.2334ZM32.1736 7.99023C32.1736 7.69401 32.0506 7.46842 31.8045 7.31348C31.563 7.15853 31.1596 7.02181 30.5945 6.90332C30.0294 6.78483 29.5577 6.63444 29.1795 6.45215C28.3501 6.05111 27.9354 5.47005 27.9354 4.70898C27.9354 4.07096 28.2042 3.53776 28.742 3.10938C29.2798 2.68099 29.9633 2.4668 30.7928 2.4668C31.6769 2.4668 32.3901 2.68555 32.9324 3.12305C33.4793 3.56055 33.7527 4.12793 33.7527 4.8252H32.0916C32.0916 4.50618 31.9731 4.24186 31.7361 4.03223C31.4992 3.81803 31.1847 3.71094 30.7928 3.71094C30.4282 3.71094 30.1297 3.79525 29.8973 3.96387C29.6694 4.13249 29.5555 4.35807 29.5555 4.64062C29.5555 4.89583 29.6626 5.09408 29.8768 5.23535C30.0909 5.37663 30.5239 5.52018 31.1756 5.66602C31.8273 5.80729 32.3377 5.97819 32.7068 6.17871C33.0805 6.37467 33.3562 6.61165 33.534 6.88965C33.7163 7.16764 33.8074 7.50488 33.8074 7.90137C33.8074 8.56673 33.5317 9.10677 32.9803 9.52148C32.4288 9.93164 31.7065 10.1367 30.8133 10.1367C30.2072 10.1367 29.6671 10.0273 29.1932 9.80859C28.7192 9.58984 28.3501 9.28906 28.0857 8.90625C27.8214 8.52344 27.6893 8.111 27.6893 7.66895H29.3025C29.3253 8.06087 29.4734 8.36393 29.7469 8.57812C30.0203 8.78776 30.3826 8.89258 30.8338 8.89258C31.2713 8.89258 31.604 8.81055 31.8318 8.64648C32.0597 8.47786 32.1736 8.25911 32.1736 7.99023Z" fill="#5F6368"/>
</svg>
