<svg width="24" height="24" viewBox="0 0 24 24" fill="none" xmlns="http://www.w3.org/2000/svg">
<g id="money_off_24px">
<path id="icon/editor/money_off_24px" fill-rule="evenodd" clip-rule="evenodd" d="M14.925 9C14.865 7.75 14.205 6.89999 12.425 6.89999C12.025 6.89999 11.655 6.95 11.335 7.03L9.82501 5.52C10.175 5.37 10.535 5.24001 10.925 5.16V3H13.925V5.19C16.015 5.7 17.065 7.28 17.135 9H14.925ZM3.98499 5.33L5.39496 3.92L20.015 18.54L18.605 19.95L16.385 17.73C15.755 18.3 14.885 18.67 13.925 18.85V21H10.925V18.83C9.005 18.42 7.36499 17.19 7.245 15H9.44501C9.55499 16.18 10.365 17.1 12.425 17.1C13.795 17.1 14.505 16.68 14.845 16.19L11.335 12.68C8.98499 11.99 7.42499 10.85 7.42499 8.77L3.98499 5.33Z" fill="black" fill-opacity="0.54"/>
</g>
</svg>
