<svg width="24" height="24" viewBox="0 0 24 24" fill="none" xmlns="http://www.w3.org/2000/svg">
<g id="monetization_on_24px">
<path id="icon/editor/monetization_on_24px" fill-rule="evenodd" clip-rule="evenodd" d="M12 2C6.47998 2 2 6.48 2 12C2 17.52 6.47998 22 12 22C17.52 22 22 17.52 22 12C22 6.48 17.52 2 12 2ZM12 20C7.59003 20 4 16.41 4 12C4 7.59 7.59003 4 12 4C16.41 4 20 7.59 20 12C20 16.41 16.41 20 12 20ZM9.96997 9.47C9.96997 10.2 10.54 10.69 12.31 11.14C14.07 11.6 15.96 12.36 15.97 14.56C15.96 16.17 14.7599 17.04 13.24 17.33V19H10.9V17.3C9.39996 16.99 8.13995 16.03 8.03998 14.33H9.75995C9.84998 15.25 10.48 15.97 12.08 15.97C13.79 15.97 14.18 15.11 14.18 14.58C14.18 13.86 13.79 13.17 11.84 12.71C9.66998 12.19 8.17999 11.29 8.17999 9.5C8.17999 7.99001 9.38995 7.00999 10.9 6.69V5H13.23V6.71001C14.85 7.11 15.67 8.34 15.72 9.67999H14.0099C13.97 8.7 13.45 8.03999 12.07 8.03999C10.7599 8.03999 9.96997 8.63 9.96997 9.47Z" fill="black" fill-opacity="0.54"/>
</g>
</svg>
