<svg width="24" height="24" viewBox="0 0 24 24" fill="none" xmlns="http://www.w3.org/2000/svg">
<g id="monochrome_photos_24px">
<path id="icon/image/monochrome_photos_24px" fill-rule="evenodd" clip-rule="evenodd" d="M16.8 5H20C21.1 5 22 5.9 22 7V19C22 20.1 21.1 21 20 21H4C2.90002 21 2 20.1 2 19V7C2 5.9 2.90002 5 4 5H7.19995L9 3H15L16.8 5ZM12 19H20V7H12V8C9.19995 8 7 10.2 7 13C7 15.8 9.19995 18 12 18V19ZM12 16.2V18C14.8 18 17 15.8 17 13C17 10.2 14.8 8 12 8V9.8C10.2001 9.8 8.80005 11.2 8.80005 13C8.80005 14.8 10.2001 16.2 12 16.2ZM12 16.2C13.8 16.2 15.2 14.8 15.2 13C15.2 11.2 13.8 9.8 12 9.8V16.2Z" fill="black" fill-opacity="0.54"/>
</g>
</svg>
