<svg width="24" height="24" viewBox="0 0 24 24" fill="none" xmlns="http://www.w3.org/2000/svg">
<g id="mood_bad_24px">
<path id="icon/social/mood_bad_24px" fill-rule="evenodd" clip-rule="evenodd" d="M11.99 2C6.46997 2 2 6.48001 2 12C2 17.52 6.46997 22 11.99 22C17.52 22 22 17.52 22 12C22 6.48001 17.52 2 11.99 2ZM12 20C7.57996 20 4 16.42 4 12C4 7.57999 7.57996 4 12 4C16.42 4 20 7.57999 20 12C20 16.42 16.42 20 12 20ZM17 9.5C17 10.33 16.33 11 15.5 11C14.67 11 14 10.33 14 9.5C14 8.67001 14.67 8 15.5 8C16.33 8 17 8.67001 17 9.5ZM8.5 11C9.32996 11 10 10.33 10 9.5C10 8.67001 9.32996 8 8.5 8C7.67004 8 7 8.67001 7 9.5C7 10.33 7.67004 11 8.5 11ZM6.89001 17C7.69006 14.96 9.67004 13.5 12 13.5C14.33 13.5 16.3101 14.96 17.11 17H6.89001Z" fill="black" fill-opacity="0.54"/>
</g>
</svg>
