<svg width="24" height="24" viewBox="0 0 24 24" fill="none" xmlns="http://www.w3.org/2000/svg">
<g id="movie_filter_24px">
<path id="icon/image/movie_filter_24px" fill-rule="evenodd" clip-rule="evenodd" d="M20.005 8H17.005L15.005 4H13.005L15.005 8H12.005L10.005 4H8.005L10.005 8H7.005L5.005 4H4.005C2.90503 4 2.01501 4.9 2.01501 6L2.005 18C2.005 19.1 2.90503 20 4.005 20H20.005C21.105 20 21.995 19.1 21.995 18V4H18.005L20.005 8ZM9.995 11L9.05505 13.06L6.995 14L9.05505 14.94L9.995 17L10.9349 14.94L12.995 14L10.9349 13.06L9.995 11ZM4.005 18H20.005V10H15.995H5.76501L4.005 6.47V18ZM15.995 10L16.625 11.37L17.995 12L16.625 12.63L15.995 14L15.365 12.63L13.995 12L15.365 11.37L15.995 10Z" fill="black" fill-opacity="0.54"/>
</g>
</svg>
