<svg width="24" height="24" viewBox="0 0 24 24" fill="none" xmlns="http://www.w3.org/2000/svg">
<g id="nature_people_24px">
<path id="icon/image/nature_people_24px" fill-rule="evenodd" clip-rule="evenodd" d="M22.085 9.085C22.085 5.215 18.955 2.085 15.085 2.085C11.215 2.085 8.08496 5.215 8.08496 9.085C8.08496 12.555 10.605 15.425 13.915 15.975V19.915H5.91498V16.915H6.91498V12.915C6.91498 12.365 6.46497 11.915 5.91498 11.915H2.91498C2.36499 11.915 1.91498 12.365 1.91498 12.915V16.915H2.91498V21.915H18.915V19.915H15.915V16.035C19.3849 15.625 22.085 12.675 22.085 9.085ZM4.41498 7.915C3.58655 7.915 2.91498 8.58657 2.91498 9.415C2.91498 10.2434 3.58655 10.915 4.41498 10.915C5.24341 10.915 5.91498 10.2434 5.91498 9.415C5.91498 8.58657 5.24341 7.915 4.41498 7.915ZM10.085 9.085C10.085 11.845 12.325 14.085 15.085 14.085C17.845 14.085 20.085 11.845 20.085 9.085C20.085 6.325 17.845 4.085 15.085 4.085C12.325 4.085 10.085 6.325 10.085 9.085Z" fill="black" fill-opacity="0.54"/>
</g>
</svg>
