<svg width="67" height="14" viewBox="0 0 67 14" fill="none" xmlns="http://www.w3.org/2000/svg">
<path id="Navigation" d="M7.90723 11H6.17773L1.74121 3.93848V11H0.0117188V1.04688H1.74121L6.19141 8.13574V1.04688H7.90723V11ZM14.36 11C14.287 10.8587 14.2232 10.6286 14.1686 10.3096C13.6399 10.861 12.9928 11.1367 12.2271 11.1367C11.4843 11.1367 10.8782 10.9248 10.4088 10.501C9.93939 10.0771 9.70469 9.55306 9.70469 8.92871C9.70469 8.1403 9.99635 7.53646 10.5797 7.11719C11.1676 6.69336 12.0061 6.48145 13.0953 6.48145H14.1139V5.99609C14.1139 5.61328 14.0068 5.30794 13.7926 5.08008C13.5784 4.84766 13.2525 4.73145 12.815 4.73145C12.4368 4.73145 12.1269 4.82715 11.8854 5.01855C11.6438 5.2054 11.523 5.44466 11.523 5.73633H9.86191C9.86191 5.33073 9.99635 4.95247 10.2652 4.60156C10.5341 4.24609 10.8987 3.9681 11.359 3.76758C11.8238 3.56706 12.3411 3.4668 12.9107 3.4668C13.7766 3.4668 14.4671 3.68555 14.982 4.12305C15.497 4.55599 15.7613 5.16667 15.775 5.95508V9.29102C15.775 9.95638 15.8684 10.4873 16.0553 10.8838V11H14.36ZM12.5348 9.80371C12.8629 9.80371 13.1705 9.72396 13.4576 9.56445C13.7493 9.40495 13.968 9.19076 14.1139 8.92188V7.52734H13.2184C12.6031 7.52734 12.1406 7.63444 11.8307 7.84863C11.5208 8.06283 11.3658 8.36589 11.3658 8.75781C11.3658 9.07682 11.4706 9.33203 11.6803 9.52344C11.8945 9.71029 12.1793 9.80371 12.5348 9.80371ZM20.1633 8.89453L21.7287 3.60352H23.4445L20.8811 11H19.4387L16.8547 3.60352H18.5773L20.1633 8.89453ZM26.4041 11H24.743V3.60352H26.4041V11ZM24.6404 1.68262C24.6404 1.42741 24.7202 1.21549 24.8797 1.04688C25.0438 0.878255 25.2762 0.793945 25.577 0.793945C25.8777 0.793945 26.1102 0.878255 26.2742 1.04688C26.4383 1.21549 26.5203 1.42741 26.5203 1.68262C26.5203 1.93327 26.4383 2.1429 26.2742 2.31152C26.1102 2.47559 25.8777 2.55762 25.577 2.55762C25.2762 2.55762 25.0438 2.47559 24.8797 2.31152C24.7202 2.1429 24.6404 1.93327 24.6404 1.68262ZM28.0785 7.24707C28.0785 6.09863 28.3474 5.18262 28.8852 4.49902C29.4275 3.81087 30.1452 3.4668 31.0385 3.4668C31.8816 3.4668 32.5447 3.76074 33.0277 4.34863L33.1029 3.60352H34.6V10.7744C34.6 11.7451 34.2969 12.5107 33.6908 13.0713C33.0893 13.6318 32.2758 13.9121 31.2504 13.9121C30.7081 13.9121 30.1771 13.7982 29.6576 13.5703C29.1426 13.347 28.7507 13.0531 28.4818 12.6885L29.268 11.6904C29.7784 12.2965 30.4073 12.5996 31.1547 12.5996C31.7061 12.5996 32.1413 12.4492 32.4604 12.1484C32.7794 11.8522 32.9389 11.4147 32.9389 10.8359V10.3369C32.4604 10.8701 31.8223 11.1367 31.0248 11.1367C30.1589 11.1367 29.4503 10.7926 28.8988 10.1045C28.352 9.41634 28.0785 8.46387 28.0785 7.24707ZM29.7328 7.39062C29.7328 8.13346 29.8832 8.71908 30.184 9.14746C30.4893 9.57129 30.9109 9.7832 31.4486 9.7832C32.1186 9.7832 32.6153 9.49609 32.9389 8.92188V5.66797C32.6244 5.10742 32.1322 4.82715 31.4623 4.82715C30.9154 4.82715 30.4893 5.04362 30.184 5.47656C29.8832 5.90951 29.7328 6.54753 29.7328 7.39062ZM40.8818 11C40.8089 10.8587 40.7451 10.6286 40.6904 10.3096C40.1618 10.861 39.5146 11.1367 38.749 11.1367C38.0062 11.1367 37.4001 10.9248 36.9307 10.501C36.4613 10.0771 36.2266 9.55306 36.2266 8.92871C36.2266 8.1403 36.5182 7.53646 37.1016 7.11719C37.6895 6.69336 38.528 6.48145 39.6172 6.48145H40.6357V5.99609C40.6357 5.61328 40.5286 5.30794 40.3145 5.08008C40.1003 4.84766 39.7744 4.73145 39.3369 4.73145C38.9587 4.73145 38.6488 4.82715 38.4072 5.01855C38.1657 5.2054 38.0449 5.44466 38.0449 5.73633H36.3838C36.3838 5.33073 36.5182 4.95247 36.7871 4.60156C37.056 4.24609 37.4206 3.9681 37.8809 3.76758C38.3457 3.56706 38.863 3.4668 39.4326 3.4668C40.2985 3.4668 40.9889 3.68555 41.5039 4.12305C42.0189 4.55599 42.2832 5.16667 42.2969 5.95508V9.29102C42.2969 9.95638 42.3903 10.4873 42.5771 10.8838V11H40.8818ZM39.0566 9.80371C39.3848 9.80371 39.6924 9.72396 39.9795 9.56445C40.2712 9.40495 40.4899 9.19076 40.6357 8.92188V7.52734H39.7402C39.125 7.52734 38.6624 7.63444 38.3525 7.84863C38.0426 8.06283 37.8877 8.36589 37.8877 8.75781C37.8877 9.07682 37.9925 9.33203 38.2021 9.52344C38.4163 9.71029 38.7012 9.80371 39.0566 9.80371ZM46.2682 1.80566V3.60352H47.5738V4.83398H46.2682V8.96289C46.2682 9.24544 46.3229 9.45052 46.4322 9.57812C46.5462 9.70117 46.7467 9.7627 47.0338 9.7627C47.2252 9.7627 47.4189 9.73991 47.6148 9.69434V10.9795C47.2366 11.0843 46.872 11.1367 46.5211 11.1367C45.2451 11.1367 44.607 10.4326 44.607 9.02441V4.83398H43.3902V3.60352H44.607V1.80566H46.2682ZM50.7658 11H49.1047V3.60352H50.7658V11ZM49.0021 1.68262C49.0021 1.42741 49.0819 1.21549 49.2414 1.04688C49.4055 0.878255 49.6379 0.793945 49.9387 0.793945C50.2395 0.793945 50.4719 0.878255 50.6359 1.04688C50.8 1.21549 50.882 1.42741 50.882 1.68262C50.882 1.93327 50.8 2.1429 50.6359 2.31152C50.4719 2.47559 50.2395 2.55762 49.9387 2.55762C49.6379 2.55762 49.4055 2.47559 49.2414 2.31152C49.0819 2.1429 49.0021 1.93327 49.0021 1.68262ZM52.4197 7.2334C52.4197 6.50879 52.5633 5.8571 52.8504 5.27832C53.1375 4.69499 53.5408 4.24837 54.0604 3.93848C54.5799 3.62402 55.1769 3.4668 55.8514 3.4668C56.8494 3.4668 57.6583 3.78809 58.2781 4.43066C58.9025 5.07324 59.2397 5.92546 59.2898 6.9873L59.2967 7.37695C59.2967 8.10612 59.1554 8.75781 58.8729 9.33203C58.5949 9.90625 58.1938 10.3506 57.6697 10.665C57.1502 10.9795 56.5486 11.1367 55.865 11.1367C54.8214 11.1367 53.9852 10.7904 53.3563 10.0977C52.7319 9.40039 52.4197 8.47298 52.4197 7.31543V7.2334ZM54.0809 7.37695C54.0809 8.13802 54.2381 8.73503 54.5525 9.16797C54.867 9.59635 55.3045 9.81055 55.865 9.81055C56.4256 9.81055 56.8608 9.5918 57.1707 9.1543C57.4852 8.7168 57.6424 8.0765 57.6424 7.2334C57.6424 6.486 57.4806 5.89355 57.157 5.45605C56.838 5.01855 56.4028 4.7998 55.8514 4.7998C55.3091 4.7998 54.8784 5.01628 54.5594 5.44922C54.2404 5.8776 54.0809 6.52018 54.0809 7.37695ZM62.393 3.60352L62.4408 4.45801C62.9877 3.7972 63.7055 3.4668 64.5941 3.4668C66.1345 3.4668 66.9184 4.34863 66.9457 6.1123V11H65.2846V6.20801C65.2846 5.73861 65.182 5.39225 64.977 5.16895C64.7764 4.94108 64.446 4.82715 63.9857 4.82715C63.3158 4.82715 62.8168 5.13021 62.4887 5.73633V11H60.8275V3.60352H62.393Z" fill="#5F6368"/>
</svg>
