<svg width="24" height="24" viewBox="0 0 24 24" fill="none" xmlns="http://www.w3.org/2000/svg">
<g id="network_check_24px">
<path id="icon/notification/network_check_24px" fill-rule="evenodd" clip-rule="evenodd" d="M1 8.77108L3 10.7711C5.88 7.89108 9.79004 6.69108 13.53 7.15108L14.72 4.47108C9.89001 3.61108 4.73999 5.04108 1 8.77108ZM15.9 4.77108C15.73 4.77108 15.58 4.86108 15.49 5.00108L15.4199 5.15108L10.24 16.8011C10.08 17.0911 9.97998 17.4111 9.97998 17.7611C9.97998 18.8711 10.88 19.7711 11.99 19.7711C12.95 19.7711 13.76 19.0911 13.95 18.1811L13.96 18.1511L16.4 5.27108C16.4 4.99108 16.1799 4.77108 15.9 4.77108ZM23 8.77108L21 10.7711C19.78 9.55108 18.38 8.64108 16.88 8.02108L17.41 5.20108C19.45 5.95108 21.36 7.13108 23 8.77108ZM17 14.7711L19 12.7711C18.2001 11.9711 17.3 11.3511 16.3401 10.8811L15.79 13.8011C16.2101 14.0711 16.62 14.3911 17 14.7711ZM7 14.7711L5 12.7711C7.01001 10.7611 9.68005 9.81108 12.3101 9.89108L11.03 12.7711C9.56006 12.9811 8.13 13.6411 7 14.7711Z" fill="black" fill-opacity="0.54"/>
</g>
</svg>
