<svg width="24" height="24" viewBox="0 0 24 24" fill="none" xmlns="http://www.w3.org/2000/svg">
<g id="new_releases_24px">
<path id="icon/av/new_releases_24px" fill-rule="evenodd" clip-rule="evenodd" d="M20.56 9.215L23 11.995L20.56 14.775L20.9 18.455L17.29 19.275L15.4 22.455L12 20.995L8.59998 22.465L6.71002 19.285L3.09998 18.465L3.44 14.775L1 11.995L3.44 9.205L3.09998 5.525L6.71002 4.715L8.59998 1.535L12 2.995L15.4 1.535L17.29 4.715L20.9 5.535L20.56 9.215ZM18.75 16.895L18.49 14.105L20.34 11.995L18.49 9.885L18.75 7.095L16.0099 6.47501L14.58 4.065L12 5.175L9.41998 4.075L7.98999 6.485L5.25 7.095L5.50995 9.875L3.65997 11.995L5.50995 14.095L5.25 16.895L7.98999 17.515L9.41998 19.925L12 18.815L14.58 19.925L16.0099 17.515L18.75 16.895ZM13 14.995V16.995H11V14.995H13ZM13 6.995H11V12.995H13V6.995Z" fill="black" fill-opacity="0.54"/>
</g>
</svg>
