<svg width="24" height="24" viewBox="0 0 24 24" fill="none" xmlns="http://www.w3.org/2000/svg">
<g id="no_encryption_gmailerrorred_24px">
<path id="icon/notification/no_encryption_gmailerrorred_24px" fill-rule="evenodd" clip-rule="evenodd" d="M8.80505 6C8.80505 4.29 10.1951 2.9 11.905 2.9C13.6151 2.9 15.0051 4.29 15.0051 6V8H10.3451L12.3451 10H17.905V15.56L19.905 17.56V10C19.905 8.9 19.0051 8 17.905 8H16.905V6C16.905 3.24 14.665 1 11.905 1C9.58508 1 7.64514 2.59 7.08508 4.74L8.80505 6.46V6ZM4.31506 4.81L2.90503 6.22L4.94507 8.26C4.32507 8.6 3.90503 9.25 3.90503 10V20C3.90503 21.1 4.80505 22 5.90503 22H18.6851L19.6851 23L21.095 21.59L4.31506 4.81ZM5.90503 10V20H16.6851L6.68506 10H5.90503Z" fill="black" fill-opacity="0.54"/>
</g>
</svg>
