<svg width="24" height="24" viewBox="0 0 24 24" fill="none" xmlns="http://www.w3.org/2000/svg">
<g id="not_listed_location_24px">
<path id="icon/maps/not_listed_location_24px" fill-rule="evenodd" clip-rule="evenodd" d="M4 8.755C4 4.34503 7.58997 0.755005 12 0.755005C16.41 0.755005 20 4.34503 20 8.755C20 14.325 13.04 22.095 12.74 22.425L12 23.245L11.26 22.425C10.96 22.095 4 14.325 4 8.755ZM6 8.755C6 12.295 9.81995 17.615 12 20.225C13.75 18.115 18 12.585 18 8.755C18 5.44501 15.3101 2.755 12 2.755C8.68994 2.755 6 5.44501 6 8.755ZM11.13 13.755H12.88V15.505H11.13V13.755ZM8.5 8.255C8.5 6.32501 10.0699 4.755 12 4.755C13.9301 4.755 15.5 6.32501 15.5 8.255C15.5 9.37897 14.8099 9.98401 14.1381 10.5731C13.5009 11.1318 12.88 11.676 12.88 12.635H11.13C11.13 11.046 11.9502 10.4149 12.6729 9.85895C13.2417 9.42133 13.75 9.03021 13.75 8.255C13.75 7.29498 12.96 6.505 12 6.505C11.04 6.505 10.25 7.29498 10.25 8.255H8.5Z" fill="black" fill-opacity="0.54"/>
</g>
</svg>
