<svg width="24" height="24" viewBox="0 0 24 24" fill="none" xmlns="http://www.w3.org/2000/svg">
<g id="notifications_active_24px">
<path id="icon/social/notifications_active_24px" fill-rule="evenodd" clip-rule="evenodd" d="M18 15.75V10.75C18 7.67999 16.37 5.10999 13.5 4.42999V3.75C13.5 2.92001 12.83 2.25 12 2.25C11.17 2.25 10.5 2.92001 10.5 3.75V4.42999C7.64001 5.10999 6 7.67001 6 10.75V15.75L4 17.75V18.75H20V17.75L18 15.75ZM12 21.75C13.1 21.75 14 20.85 14 19.75H10C10 20.85 10.9 21.75 12 21.75ZM8 16.75H16V10.75C16 8.26999 14.49 6.25 12 6.25C9.51001 6.25 8 8.26999 8 10.75V16.75ZM7.58008 3.82999L6.15002 2.39999C3.75 4.22998 2.17004 7.04999 2.03003 10.25H4.03003C4.18005 7.60001 5.54004 5.28 7.58008 3.82999ZM21.9701 10.25H19.9701C19.8201 7.60001 18.4501 5.28 16.4301 3.82999L17.8501 2.39999C20.2401 4.22998 21.8201 7.04999 21.9701 10.25Z" fill="black" fill-opacity="0.54"/>
</g>
</svg>
