<svg width="24" height="24" viewBox="0 0 24 24" fill="none" xmlns="http://www.w3.org/2000/svg">
<g id="notifications_off_24px">
<path id="icon/social/notifications_off_24px" fill-rule="evenodd" clip-rule="evenodd" d="M15.3051 10.75C15.3051 8.27002 13.7952 6.25 11.3051 6.25C11.1619 6.25 11.0243 6.26709 10.8882 6.284L10.8867 6.28418C10.8428 6.28967 10.799 6.2951 10.7551 6.29999L9.11511 4.65997L9.22095 4.62115L9.22278 4.62048C9.40991 4.55164 9.604 4.48022 9.80505 4.42999V3.75C9.80505 2.91998 10.4751 2.25 11.3051 2.25C12.1351 2.25 12.8051 2.91998 12.8051 3.75V4.42999C15.6752 5.10999 17.3051 7.67999 17.3051 10.75V12.85L15.3051 10.85V10.75ZM13.3051 19.75C13.3051 20.85 12.405 21.75 11.3051 21.75C10.2051 21.75 9.30505 20.85 9.30505 19.75H13.3051ZM4.71509 3.09998L3.30505 4.50995L6.11511 7.31995C5.59509 8.31995 5.30505 9.48999 5.30505 10.75V15.75L3.30505 17.75V18.75H17.545L19.285 20.49L20.6951 19.08L4.71509 3.09998ZM7.30505 16.75H15.3051V16.5099L7.64502 8.84998C7.42505 9.42999 7.30505 10.0699 7.30505 10.75V16.75Z" fill="black" fill-opacity="0.54"/>
</g>
</svg>
