<svg width="73" height="12" viewBox="0 0 73 12" fill="none" xmlns="http://www.w3.org/2000/svg">
<path id="Notification" d="M7.90723 11H6.17773L1.74121 3.93848V11H0.0117188V1.04688H1.74121L6.19141 8.13574V1.04688H7.90723V11ZM9.62949 7.2334C9.62949 6.50879 9.77305 5.8571 10.0602 5.27832C10.3473 4.69499 10.7506 4.24837 11.2701 3.93848C11.7896 3.62402 12.3867 3.4668 13.0611 3.4668C14.0592 3.4668 14.8681 3.78809 15.4879 4.43066C16.1122 5.07324 16.4495 5.92546 16.4996 6.9873L16.5064 7.37695C16.5064 8.10612 16.3652 8.75781 16.0826 9.33203C15.8046 9.90625 15.4036 10.3506 14.8795 10.665C14.36 10.9795 13.7584 11.1367 13.0748 11.1367C12.0312 11.1367 11.1949 10.7904 10.566 10.0977C9.94167 9.40039 9.62949 8.47298 9.62949 7.31543V7.2334ZM11.2906 7.37695C11.2906 8.13802 11.4479 8.73503 11.7623 9.16797C12.0768 9.59635 12.5143 9.81055 13.0748 9.81055C13.6354 9.81055 14.0706 9.5918 14.3805 9.1543C14.6949 8.7168 14.8521 8.0765 14.8521 7.2334C14.8521 6.486 14.6904 5.89355 14.3668 5.45605C14.0478 5.01855 13.6126 4.7998 13.0611 4.7998C12.5188 4.7998 12.0882 5.01628 11.7691 5.44922C11.4501 5.8776 11.2906 6.52018 11.2906 7.37695ZM20.1428 1.80566V3.60352H21.4484V4.83398H20.1428V8.96289C20.1428 9.24544 20.1975 9.45052 20.3068 9.57812C20.4208 9.70117 20.6213 9.7627 20.9084 9.7627C21.0998 9.7627 21.2935 9.73991 21.4895 9.69434V10.9795C21.1112 11.0843 20.7466 11.1367 20.3957 11.1367C19.1197 11.1367 18.4816 10.4326 18.4816 9.02441V4.83398H17.2648V3.60352H18.4816V1.80566H20.1428ZM24.6404 11H22.9793V3.60352H24.6404V11ZM22.8768 1.68262C22.8768 1.42741 22.9565 1.21549 23.116 1.04688C23.2801 0.878255 23.5125 0.793945 23.8133 0.793945C24.1141 0.793945 24.3465 0.878255 24.5105 1.04688C24.6746 1.21549 24.7566 1.42741 24.7566 1.68262C24.7566 1.93327 24.6746 2.1429 24.5105 2.31152C24.3465 2.47559 24.1141 2.55762 23.8133 2.55762C23.5125 2.55762 23.2801 2.47559 23.116 2.31152C22.9565 2.1429 22.8768 1.93327 22.8768 1.68262ZM27.0463 11V4.83398H25.9184V3.60352H27.0463V3.09766C27.0508 2.51888 27.1739 2.02214 27.4154 1.60742C27.657 1.19271 27.9988 0.880534 28.4408 0.670898C28.8829 0.461263 29.4138 0.356445 30.0336 0.356445C30.3982 0.356445 30.7468 0.395182 31.0795 0.472656C31.4167 0.55013 31.7654 0.648112 32.1254 0.766602L31.8725 2.14062C31.2436 1.92188 30.6693 1.8125 30.1498 1.8125C29.6439 1.8125 29.2771 1.92415 29.0492 2.14746C28.8214 2.36621 28.7074 2.69661 28.7074 3.13867V3.60352H30.1635V4.83398H28.7074V11H27.0463ZM32.9115 11H31.2504V3.60352H32.9115V11ZM37.9424 9.81055C38.3571 9.81055 38.7012 9.68978 38.9746 9.44824C39.248 9.20671 39.3939 8.9082 39.4121 8.55273H40.9775C40.9593 9.01302 40.8158 9.44368 40.5469 9.84473C40.278 10.2412 39.9134 10.5557 39.4531 10.7881C38.9928 11.0205 38.4961 11.1367 37.9629 11.1367C36.9284 11.1367 36.1081 10.8018 35.502 10.1318C34.8958 9.46191 34.5928 8.53678 34.5928 7.35645V7.18555C34.5928 6.0599 34.8936 5.15983 35.4951 4.48535C36.0967 3.80632 36.917 3.4668 37.9561 3.4668C38.8356 3.4668 39.5511 3.72428 40.1025 4.23926C40.6585 4.74967 40.9502 5.42188 40.9775 6.25586H39.4121C39.3939 5.83203 39.248 5.4834 38.9746 5.20996C38.7057 4.93652 38.3617 4.7998 37.9424 4.7998C37.4046 4.7998 36.9899 4.99577 36.6982 5.3877C36.4066 5.77507 36.2585 6.36523 36.2539 7.1582V7.4248C36.2539 8.22689 36.3975 8.82617 36.6846 9.22266C36.9762 9.61458 37.3955 9.81055 37.9424 9.81055ZM46.8014 11C46.7284 10.8587 46.6646 10.6286 46.61 10.3096C46.0813 10.861 45.4342 11.1367 44.6686 11.1367C43.9257 11.1367 43.3196 10.9248 42.8502 10.501C42.3808 10.0771 42.1461 9.55306 42.1461 8.92871C42.1461 8.1403 42.4378 7.53646 43.0211 7.11719C43.609 6.69336 44.4475 6.48145 45.5367 6.48145H46.5553V5.99609C46.5553 5.61328 46.4482 5.30794 46.234 5.08008C46.0198 4.84766 45.6939 4.73145 45.2564 4.73145C44.8782 4.73145 44.5683 4.82715 44.3268 5.01855C44.0852 5.2054 43.9645 5.44466 43.9645 5.73633H42.3033C42.3033 5.33073 42.4378 4.95247 42.7066 4.60156C42.9755 4.24609 43.3401 3.9681 43.8004 3.76758C44.2652 3.56706 44.7825 3.4668 45.3521 3.4668C46.218 3.4668 46.9085 3.68555 47.4234 4.12305C47.9384 4.55599 48.2027 5.16667 48.2164 5.95508V9.29102C48.2164 9.95638 48.3098 10.4873 48.4967 10.8838V11H46.8014ZM44.9762 9.80371C45.3043 9.80371 45.6119 9.72396 45.899 9.56445C46.1907 9.40495 46.4094 9.19076 46.5553 8.92188V7.52734H45.6598C45.0445 7.52734 44.582 7.63444 44.2721 7.84863C43.9622 8.06283 43.8072 8.36589 43.8072 8.75781C43.8072 9.07682 43.912 9.33203 44.1217 9.52344C44.3359 9.71029 44.6207 9.80371 44.9762 9.80371ZM52.1877 1.80566V3.60352H53.4934V4.83398H52.1877V8.96289C52.1877 9.24544 52.2424 9.45052 52.3518 9.57812C52.4657 9.70117 52.6662 9.7627 52.9533 9.7627C53.1447 9.7627 53.3384 9.73991 53.5344 9.69434V10.9795C53.1561 11.0843 52.7915 11.1367 52.4406 11.1367C51.1646 11.1367 50.5266 10.4326 50.5266 9.02441V4.83398H49.3098V3.60352H50.5266V1.80566H52.1877ZM56.6854 11H55.0242V3.60352H56.6854V11ZM54.9217 1.68262C54.9217 1.42741 55.0014 1.21549 55.1609 1.04688C55.325 0.878255 55.5574 0.793945 55.8582 0.793945C56.159 0.793945 56.3914 0.878255 56.5555 1.04688C56.7195 1.21549 56.8016 1.42741 56.8016 1.68262C56.8016 1.93327 56.7195 2.1429 56.5555 2.31152C56.3914 2.47559 56.159 2.55762 55.8582 2.55762C55.5574 2.55762 55.325 2.47559 55.1609 2.31152C55.0014 2.1429 54.9217 1.93327 54.9217 1.68262ZM58.3393 7.2334C58.3393 6.50879 58.4828 5.8571 58.7699 5.27832C59.057 4.69499 59.4604 4.24837 59.9799 3.93848C60.4994 3.62402 61.0964 3.4668 61.7709 3.4668C62.7689 3.4668 63.5779 3.78809 64.1977 4.43066C64.822 5.07324 65.1592 5.92546 65.2094 6.9873L65.2162 7.37695C65.2162 8.10612 65.0749 8.75781 64.7924 9.33203C64.5144 9.90625 64.1133 10.3506 63.5893 10.665C63.0697 10.9795 62.4682 11.1367 61.7846 11.1367C60.7409 11.1367 59.9047 10.7904 59.2758 10.0977C58.6514 9.40039 58.3393 8.47298 58.3393 7.31543V7.2334ZM60.0004 7.37695C60.0004 8.13802 60.1576 8.73503 60.4721 9.16797C60.7865 9.59635 61.224 9.81055 61.7846 9.81055C62.3451 9.81055 62.7803 9.5918 63.0902 9.1543C63.4047 8.7168 63.5619 8.0765 63.5619 7.2334C63.5619 6.486 63.4001 5.89355 63.0766 5.45605C62.7576 5.01855 62.3223 4.7998 61.7709 4.7998C61.2286 4.7998 60.7979 5.01628 60.4789 5.44922C60.1599 5.8776 60.0004 6.52018 60.0004 7.37695ZM68.3125 3.60352L68.3604 4.45801C68.9072 3.7972 69.625 3.4668 70.5137 3.4668C72.054 3.4668 72.8379 4.34863 72.8652 6.1123V11H71.2041V6.20801C71.2041 5.73861 71.1016 5.39225 70.8965 5.16895C70.696 4.94108 70.3656 4.82715 69.9053 4.82715C69.2354 4.82715 68.7363 5.13021 68.4082 5.73633V11H66.7471V3.60352H68.3125Z" fill="#5F6368"/>
</svg>
