<svg width="24" height="24" viewBox="0 0 24 24" fill="none" xmlns="http://www.w3.org/2000/svg">
<g id="panorama_vertical_24px">
<path id="icon/image/panorama_vertical_24px" fill-rule="evenodd" clip-rule="evenodd" d="M18.295 12C18.295 15.09 18.835 18.18 19.9349 21.12C19.975 21.23 19.995 21.33 20.005 21.43C20.005 21.76 19.765 22 19.375 22H4.625C4.22498 22 3.995 21.76 3.995 21.43C3.995 21.34 4.01501 21.23 4.06494 21.12C5.15503 18.18 5.70496 15.09 5.70496 12C5.70496 8.91 5.15503 5.82 4.05505 2.88C4.01501 2.77 3.995 2.67 3.995 2.57C3.995 2.23 4.22498 2 4.625 2H19.365C19.765 2 19.995 2.23 19.995 2.57C19.995 2.66 19.975 2.77 19.9349 2.88C18.845 5.82 18.295 8.91 18.295 12ZM7.69507 12C7.69507 14.72 7.30505 17.4 6.53503 20H17.4451C16.675 17.4 16.285 14.72 16.285 12C16.285 9.28 16.675 6.6 17.4451 4H6.53503C7.30505 6.6 7.69507 9.28 7.69507 12Z" fill="black" fill-opacity="0.54"/>
</g>
</svg>
