<svg width="24" height="24" viewBox="0 0 24 24" fill="none" xmlns="http://www.w3.org/2000/svg">
<g id="party_mode_24px">
<path id="icon/social/party_mode_24px" fill-rule="evenodd" clip-rule="evenodd" d="M16.83 5H20C21.1 5 22 5.90002 22 7V19C22 20.1 21.1 21 20 21H4C2.90002 21 2 20.1 2 19V7C2 5.90002 2.90002 5 4 5H7.17004L9 3H15L16.83 5ZM4 19H20V7H15.95L15.36 6.34998L14.12 5H9.88L8.64001 6.34998L8.05005 7H4V19ZM9 13C9 11.34 10.34 10 12 10H15.98C15.0601 8.78998 13.63 8 12 8C9.23999 8 7 10.24 7 13C7 13.34 7.04004 13.68 7.09998 14H9.18005C9.06995 13.69 9 13.35 9 13ZM12 16C13.66 16 15 14.66 15 13C15 12.65 14.9301 12.31 14.8201 12H16.9C16.97 12.32 17 12.66 17 13C17 15.76 14.76 18 12 18C10.37 18 8.94006 17.21 8.02002 16H12Z" fill="black" fill-opacity="0.54"/>
</g>
</svg>
