<svg width="24" height="24" viewBox="0 0 24 24" fill="none" xmlns="http://www.w3.org/2000/svg">
<g id="perm_phone_msg_24px">
<path id="icon/action/perm_phone_msg_24px" fill-rule="evenodd" clip-rule="evenodd" d="M20 15.5C18.75 15.5 17.55 15.3 16.4301 14.93C16.33 14.9 16.22 14.88 16.12 14.88C15.86 14.88 15.61 14.98 15.41 15.17L13.21 17.37C10.38 15.93 8.06006 13.62 6.62 10.79L8.81995 8.57999C9.09998 8.31 9.18005 7.92001 9.06995 7.57001C8.69995 6.45001 8.5 5.25 8.5 4C8.5 3.45001 8.05005 3 7.5 3H4C3.44995 3 3 3.45001 3 4C3 13.39 10.61 21 20 21C20.55 21 21 20.55 21 20V16.5C21 15.95 20.55 15.5 20 15.5ZM5.03003 5H6.53003C6.59998 5.88 6.75 6.75 6.98999 7.59L5.79004 8.79999C5.38 7.59 5.12 6.32001 5.03003 5ZM15.2 18.21C16.3999 18.62 17.6799 18.88 19 18.97V17.46C18.12 17.4 17.25 17.25 16.3999 17.01L15.2 18.21ZM12 3V13L15 10H21V3H12ZM14 8H19V5H14V8Z" fill="black" fill-opacity="0.54"/>
</g>
</svg>
