<svg width="24" height="24" viewBox="0 0 24 24" fill="none" xmlns="http://www.w3.org/2000/svg">
<g id="person_add_disabled_24px">
<path id="icon/communication/person_add_disabled_24px" fill-rule="evenodd" clip-rule="evenodd" d="M1.90997 0.855011L0.5 2.26501L4.5 6.26501V9.14502H1.5V11.145H4.5V14.145H6.5V11.145H9.38L11.89 13.655C9.69 14.255 7.5 15.445 7.5 17.145V19.145H17.38L21.38 23.145L22.79 21.735L1.90997 0.855011ZM11.5 7.14502C11.5 4.93503 13.29 3.14502 15.5 3.14502C17.71 3.14502 19.5 4.93503 19.5 7.14502C19.5 9.35501 17.71 11.145 15.5 11.145C15.3636 11.145 15.233 11.1278 15.1038 11.1107L15.0988 11.1101C15.0591 11.1049 15.0195 11.0997 14.98 11.095L11.55 7.66501C11.5468 7.63742 11.5433 7.60983 11.5397 7.58218L11.5381 7.56979L11.5377 7.56671L11.536 7.55429L11.5342 7.54089C11.5172 7.41177 11.5 7.28125 11.5 7.14502ZM17.5 7.14502C17.5 6.04501 16.6 5.14502 15.5 5.14502C14.51 5.14502 13.69 5.86502 13.52 6.80502L15.83 9.11502C16.77 8.96503 17.5 8.13501 17.5 7.14502ZM17.19 13.305L23.03 19.145H23.5V17.145C23.5 15.005 19.94 13.645 17.19 13.305ZM15.38 17.145L13.51 15.275L12.41 15.575C10.38 16.135 9.58002 16.905 9.5 17.145H15.38ZM6.5 8.26501V9.14502H7.38L6.5 8.26501Z" fill="black" fill-opacity="0.54"/>
</g>
</svg>
