<svg width="24" height="24" viewBox="0 0 24 24" fill="none" xmlns="http://www.w3.org/2000/svg">
<g id="pets_24px">
<path id="icon/action/pets_24px" fill-rule="evenodd" clip-rule="evenodd" d="M9 2.4978C7.61926 2.4978 6.5 3.6171 6.5 4.9978C6.5 6.37851 7.61926 7.4978 9 7.4978C10.3807 7.4978 11.5 6.37851 11.5 4.9978C11.5 3.6171 10.3807 2.4978 9 2.4978ZM4.5 6.4978C3.11926 6.4978 2 7.6171 2 8.9978C2 10.3785 3.11926 11.4978 4.5 11.4978C5.88074 11.4978 7 10.3785 7 8.9978C7 7.6171 5.88074 6.4978 4.5 6.4978ZM12.5 4.9978C12.5 3.6171 13.6193 2.4978 15 2.4978C16.3807 2.4978 17.5 3.6171 17.5 4.9978C17.5 6.37851 16.3807 7.4978 15 7.4978C13.6193 7.4978 12.5 6.37851 12.5 4.9978ZM19.5 6.4978C18.1193 6.4978 17 7.6171 17 8.9978C17 10.3785 18.1193 11.4978 19.5 11.4978C20.8807 11.4978 22 10.3785 22 8.9978C22 7.6171 20.8807 6.4978 19.5 6.4978ZM16.4435 13.3032C16.7333 13.6447 17.0276 13.9915 17.34 14.3578C17.4178 14.4357 17.4968 14.5141 17.5764 14.5931C18.8347 15.8423 20.2416 17.2391 19.9501 19.1578C19.66 20.1678 18.9301 21.1878 17.62 21.4778C17.2841 21.5422 16.6093 21.4542 15.7369 21.3403C14.7137 21.2068 13.4187 21.0378 12.0801 21.0378H11.9C10.5726 21.0378 9.28821 21.2068 8.26904 21.3409C7.38416 21.4574 6.69922 21.5475 6.35999 21.4778C5.05005 21.1878 4.32007 20.1778 4.03003 19.1578C3.74792 17.2494 5.15393 15.8535 6.41187 14.6048C6.49207 14.5252 6.57153 14.4463 6.65002 14.3678C7.21448 13.7136 7.71716 13.1211 8.23462 12.5111C8.52405 12.1701 8.81799 11.8236 9.13 11.4578C9.59998 10.9178 10.1801 10.3778 10.88 10.1378C10.99 10.0978 11.1 10.0678 11.21 10.0478C11.47 9.9978 11.74 9.9978 12 9.9978C12.26 9.9978 12.53 9.9978 12.78 10.0378C12.89 10.0578 13 10.0878 13.11 10.1278C13.8101 10.3678 14.4 10.9078 14.86 11.4478C15.424 12.1016 15.9264 12.6937 16.4435 13.3032Z" fill="black" fill-opacity="0.54"/>
</g>
</svg>
