<svg width="24" height="24" viewBox="0 0 24 24" fill="none" xmlns="http://www.w3.org/2000/svg">
<g id="phone_missed_24px">
<path id="icon/notification/phone_missed_24px" fill-rule="evenodd" clip-rule="evenodd" d="M11.9351 11.5L6.99707 6.56V9.13H4.99792V3.13H10.9955V5.13H8.39648L11.9351 8.67L17.5927 3.01L19.0021 4.43L11.9351 11.5ZM11.995 12.13C16.5331 12.13 20.6514 13.91 23.7001 16.8C23.88 16.98 24 17.22 24 17.5C24 17.78 23.89 18.03 23.7101 18.21L21.2312 20.69C21.0513 20.87 20.8014 20.98 20.5215 20.98C20.2516 20.98 20.0017 20.88 19.8218 20.7C19.0221 19.97 18.1324 19.34 17.1528 18.85C16.823 18.69 16.5931 18.34 16.5931 17.95V14.85C15.1437 14.38 13.5944 14.13 11.995 14.13C10.3956 14.13 8.84631 14.38 7.39697 14.86V17.96C7.39697 18.36 7.16699 18.7 6.83716 18.86C5.86755 19.35 4.9679 19.97 4.17822 20.71C3.99829 20.88 3.74841 20.99 3.47852 20.99C3.19861 20.99 2.94873 20.88 2.7688 20.7L0.289917 18.22C0.109985 18.04 0 17.79 0 17.51C0 17.23 0.109985 16.98 0.289917 16.8C3.33862 13.91 7.45691 12.13 11.995 12.13ZM3.52856 18.63C4.10828 18.16 4.73804 17.73 5.39771 17.36H5.40771V15.66C4.35815 16.17 3.36865 16.81 2.45898 17.56L3.52856 18.63ZM20.4716 18.62C19.8717 18.14 19.252 17.72 18.5923 17.35V15.65C19.6418 16.16 20.6215 16.8 21.541 17.55L20.4716 18.62Z" fill="black" fill-opacity="0.54"/>
</g>
</svg>
