<svg width="24" height="24" viewBox="0 0 24 24" fill="none" xmlns="http://www.w3.org/2000/svg">
<g id="phone_locked_24px">
<path id="icon/notification/phone_locked_24px" fill-rule="evenodd" clip-rule="evenodd" d="M20 5V4.5C20 3.12 18.88 2 17.5 2C16.12 2 15 3.12 15 4.5V5C14.45 5 14 5.45 14 6V10C14 10.55 14.45 11 15 11H20C20.55 11 21 10.55 21 10V6C21 5.45 20.55 5 20 5ZM20 16.5C18.75 16.5 17.55 16.3 16.4301 15.93C16.33 15.9 16.22 15.88 16.12 15.88C15.86 15.88 15.61 15.98 15.41 16.17L13.21 18.37C10.38 16.93 8.06006 14.62 6.62 11.78L8.81995 9.57C9.09998 9.31 9.18005 8.92 9.06995 8.57C8.69995 7.45 8.5 6.25 8.5 5C8.5 4.45 8.05005 4 7.5 4H4C3.44995 4 3 4.45 3 5C3 14.39 10.61 22 20 22C20.55 22 21 21.55 21 21V17.5C21 16.95 20.55 16.5 20 16.5ZM6.53003 6C6.59998 6.88 6.75 7.75 6.97998 8.58L5.78003 9.79C5.38 8.58 5.12 7.32 5.03003 6H6.53003ZM15.2 19.21C16.3999 19.62 17.6799 19.88 19 19.97V18.46C18.12 18.4 17.25 18.25 16.3999 18.01L15.2 19.21ZM16 5H19V4.5C19 3.67 18.33 3 17.5 3C16.67 3 16 3.67 16 4.5V5Z" fill="black" fill-opacity="0.54"/>
</g>
</svg>
