<svg width="24" height="24" viewBox="0 0 24 24" fill="none" xmlns="http://www.w3.org/2000/svg">
<g id="phone_forwarded_24px">
<path id="icon/notification/phone_forwarded_24px" fill-rule="evenodd" clip-rule="evenodd" d="M22 7L17 12V9H13V5H17V2L22 7ZM15.4301 15.93C16.55 16.3 17.75 16.5 19 16.5C19.55 16.5 20 16.95 20 17.5V21C20 21.55 19.55 22 19 22C9.60999 22 2 14.39 2 5C2 4.45 2.44995 4 3 4H6.5C7.05005 4 7.5 4.45 7.5 5C7.5 6.25 7.69995 7.45 8.06995 8.57C8.18005 8.92 8.09998 9.31 7.81995 9.57L5.62 11.78C7.06006 14.62 9.38 16.93 12.21 18.37L14.41 16.17C14.61 15.98 14.86 15.88 15.12 15.88C15.22 15.88 15.33 15.9 15.4301 15.93ZM5.97998 8.58C5.75 7.75 5.59998 6.88 5.53003 6H4.03003C4.12 7.32 4.38 8.58 4.78003 9.79L5.97998 8.58ZM18 19.97C16.6799 19.88 15.3999 19.62 14.2 19.21L15.3999 18.01C16.25 18.25 17.12 18.4 18 18.46V19.97Z" fill="black" fill-opacity="0.54"/>
</g>
</svg>
