<svg width="24" height="24" viewBox="0 0 24 24" fill="none" xmlns="http://www.w3.org/2000/svg">
<g id="phone_in_talk_24px">
<path id="icon/notification/phone_in_talk_24px" fill-rule="evenodd" clip-rule="evenodd" d="M16.4301 14.93C17.55 15.3 18.75 15.5 20 15.5C20.55 15.5 21 15.95 21 16.5V20C21 20.55 20.55 21 20 21C10.61 21 3 13.39 3 4C3 3.45 3.44995 3 4 3H7.5C8.05005 3 8.5 3.45 8.5 4C8.5 5.25 8.69995 6.45 9.06995 7.57C9.18005 7.92 9.09998 8.31 8.81995 8.57L6.62 10.78C8.06006 13.62 10.38 15.93 13.21 17.37L15.41 15.17C15.61 14.98 15.86 14.88 16.12 14.88C16.22 14.88 16.33 14.9 16.4301 14.93ZM19 12H21C21 7.03 16.97 3 12 3V5C15.87 5 19 8.13 19 12ZM15 12H17C17 9.24 14.76 7 12 7V9C13.66 9 15 10.34 15 12ZM6.53003 5C6.59998 5.88 6.75 6.75 6.97998 7.58L5.78003 8.79C5.38 7.58 5.12 6.32 5.03003 5H6.53003ZM15.2 18.21C16.3999 18.62 17.6799 18.88 19 18.97V17.46C18.12 17.4 17.25 17.25 16.3999 17.01L15.2 18.21Z" fill="black" fill-opacity="0.54"/>
</g>
</svg>
