<svg width="24" height="24" viewBox="0 0 24 24" fill="none" xmlns="http://www.w3.org/2000/svg">
<g id="phonelink_off_24px">
<path id="icon/hardware/phonelink_off_24px" fill-rule="evenodd" clip-rule="evenodd" d="M2.06 1.57999L0.649994 2.98999L2.47 4.81C2.17999 5.14999 2 5.59 2 6.06998V17.07H0V20.07H17.73L20.08 22.42L21.49 21.01L2.06 1.57999ZM22 4.06998V6.06998H9.39001L7.39001 4.06998H22ZM24 9.06998V19.07C24 19.51 23.71 19.87 23.32 20L20.39 17.07H22V10.07H18V14.68L16 12.68V9.06998C16 8.51999 16.45 8.06998 17 8.06998H23C23.55 8.06998 24 8.51999 24 9.06998ZM4 6.34V17.07H14.73L4 6.34Z" fill="black" fill-opacity="0.54"/>
</g>
</svg>
