<svg width="24" height="24" viewBox="0 0 24 24" fill="none" xmlns="http://www.w3.org/2000/svg">
<g id="photo_size_select_actual_24px">
<path id="icon/image/photo_size_select_actual_24px" fill-rule="evenodd" clip-rule="evenodd" d="M21 3H3C2 3 1 4 1 5V19C1 20.1 1.90002 21 3 21H21C22 21 23 20 23 19V5C23 4 22 3 21 3ZM21 18.92C20.9861 18.9408 20.9626 18.9616 20.9429 18.9791C20.9341 18.9868 20.9261 18.9939 20.92 19H3V5.08L3.07996 5H20.91C20.9309 5.01392 20.9518 5.03754 20.9692 5.05734L20.9714 5.05981C20.9783 5.0675 20.9845 5.07449 20.99 5.08V18.92H21ZM8.5 12.5L11 15.51L14.5 11L19 17H5L8.5 12.5Z" fill="black" fill-opacity="0.54"/>
</g>
</svg>
