<svg width="24" height="24" viewBox="0 0 24 24" fill="none" xmlns="http://www.w3.org/2000/svg">
<g id="photo_filter_24px">
<path id="icon/image/photo_filter_24px" fill-rule="evenodd" clip-rule="evenodd" d="M19 10V19H4.97998V5H13.98V3H5C3.90002 3 3 3.89999 3 5V19C3 20.1 3.90002 21 5 21H19C20.1 21 21 20.1 21 19V10H19ZM16.0601 7.94L17 10L17.9399 7.94L20 7L17.9399 6.06L17 4L16.0601 6.06L14 7L16.0601 7.94ZM10.75 10.75L12 8L13.25 10.75L16 12L13.25 13.25L12 16L10.75 13.25L8 12L10.75 10.75Z" fill="black" fill-opacity="0.54"/>
</g>
</svg>
