<svg width="42" height="12" viewBox="0 0 42 12" fill="none" xmlns="http://www.w3.org/2000/svg">
<path id="Places" d="M1.74121 7.30176V11H0.0117188V1.04688H3.81934C4.93132 1.04688 5.81315 1.33626 6.46484 1.91504C7.12109 2.49382 7.44922 3.25944 7.44922 4.21191C7.44922 5.18717 7.12793 5.94596 6.48535 6.48828C5.84733 7.0306 4.95182 7.30176 3.79883 7.30176H1.74121ZM1.74121 5.91406H3.81934C4.43457 5.91406 4.90397 5.77051 5.22754 5.4834C5.55111 5.19173 5.71289 4.77246 5.71289 4.22559C5.71289 3.68783 5.54883 3.25944 5.2207 2.94043C4.89258 2.61686 4.44141 2.45052 3.86719 2.44141H1.74121V5.91406ZM10.7232 11H9.06211V0.5H10.7232V11ZM17.1076 11C17.0347 10.8587 16.9709 10.6286 16.9162 10.3096C16.3876 10.861 15.7404 11.1367 14.9748 11.1367C14.232 11.1367 13.6258 10.9248 13.1564 10.501C12.687 10.0771 12.4523 9.55306 12.4523 8.92871C12.4523 8.1403 12.744 7.53646 13.3273 7.11719C13.9152 6.69336 14.7538 6.48145 15.843 6.48145H16.8615V5.99609C16.8615 5.61328 16.7544 5.30794 16.5402 5.08008C16.326 4.84766 16.0002 4.73145 15.5627 4.73145C15.1844 4.73145 14.8745 4.82715 14.633 5.01855C14.3915 5.2054 14.2707 5.44466 14.2707 5.73633H12.6096C12.6096 5.33073 12.744 4.95247 13.0129 4.60156C13.2818 4.24609 13.6464 3.9681 14.1066 3.76758C14.5715 3.56706 15.0887 3.4668 15.6584 3.4668C16.5243 3.4668 17.2147 3.68555 17.7297 4.12305C18.2447 4.55599 18.509 5.16667 18.5227 5.95508V9.29102C18.5227 9.95638 18.6161 10.4873 18.8029 10.8838V11H17.1076ZM15.2824 9.80371C15.6105 9.80371 15.9182 9.72396 16.2053 9.56445C16.4969 9.40495 16.7157 9.19076 16.8615 8.92188V7.52734H15.966C15.3508 7.52734 14.8882 7.63444 14.5783 7.84863C14.2684 8.06283 14.1135 8.36589 14.1135 8.75781C14.1135 9.07682 14.2183 9.33203 14.4279 9.52344C14.6421 9.71029 14.927 9.80371 15.2824 9.80371ZM23.451 9.81055C23.8657 9.81055 24.2098 9.68978 24.4832 9.44824C24.7566 9.20671 24.9025 8.9082 24.9207 8.55273H26.4861C26.4679 9.01302 26.3243 9.44368 26.0555 9.84473C25.7866 10.2412 25.422 10.5557 24.9617 10.7881C24.5014 11.0205 24.0047 11.1367 23.4715 11.1367C22.437 11.1367 21.6167 10.8018 21.0105 10.1318C20.4044 9.46191 20.1014 8.53678 20.1014 7.35645V7.18555C20.1014 6.0599 20.4021 5.15983 21.0037 4.48535C21.6053 3.80632 22.4256 3.4668 23.4646 3.4668C24.3442 3.4668 25.0597 3.72428 25.6111 4.23926C26.1671 4.74967 26.4588 5.42188 26.4861 6.25586H24.9207C24.9025 5.83203 24.7566 5.4834 24.4832 5.20996C24.2143 4.93652 23.8702 4.7998 23.451 4.7998C22.9132 4.7998 22.4985 4.99577 22.2068 5.3877C21.9152 5.77507 21.7671 6.36523 21.7625 7.1582V7.4248C21.7625 8.22689 21.9061 8.82617 22.1932 9.22266C22.4848 9.61458 22.9041 9.81055 23.451 9.81055ZM31.1479 11.1367C30.0951 11.1367 29.2406 10.8063 28.5844 10.1455C27.9327 9.48014 27.6068 8.59603 27.6068 7.49316V7.28809C27.6068 6.5498 27.7481 5.89128 28.0307 5.3125C28.3178 4.72917 28.7188 4.27572 29.2338 3.95215C29.7488 3.62858 30.323 3.4668 30.9564 3.4668C31.9636 3.4668 32.7406 3.78809 33.2875 4.43066C33.8389 5.07324 34.1146 5.98242 34.1146 7.1582V7.82812H29.2816C29.3318 8.4388 29.5346 8.92188 29.89 9.27734C30.2501 9.63281 30.7012 9.81055 31.2436 9.81055C32.0046 9.81055 32.6244 9.50293 33.1029 8.8877L33.9984 9.74219C33.7022 10.1842 33.3057 10.5283 32.809 10.7744C32.3168 11.016 31.7631 11.1367 31.1479 11.1367ZM30.9496 4.7998C30.4939 4.7998 30.1247 4.95931 29.8422 5.27832C29.5642 5.59733 29.3865 6.04167 29.309 6.61133H32.474V6.48828C32.4376 5.93229 32.2895 5.51302 32.0297 5.23047C31.7699 4.94336 31.4099 4.7998 30.9496 4.7998ZM39.7061 8.99023C39.7061 8.69401 39.583 8.46842 39.3369 8.31348C39.0954 8.15853 38.6921 8.02181 38.127 7.90332C37.5618 7.78483 37.0902 7.63444 36.7119 7.45215C35.8825 7.05111 35.4678 6.47005 35.4678 5.70898C35.4678 5.07096 35.7367 4.53776 36.2744 4.10938C36.8122 3.68099 37.4958 3.4668 38.3252 3.4668C39.2093 3.4668 39.9225 3.68555 40.4648 4.12305C41.0117 4.56055 41.2852 5.12793 41.2852 5.8252H39.624C39.624 5.50618 39.5055 5.24186 39.2686 5.03223C39.0316 4.81803 38.7171 4.71094 38.3252 4.71094C37.9606 4.71094 37.6621 4.79525 37.4297 4.96387C37.2018 5.13249 37.0879 5.35807 37.0879 5.64062C37.0879 5.89583 37.195 6.09408 37.4092 6.23535C37.6234 6.37663 38.0563 6.52018 38.708 6.66602C39.3597 6.80729 39.8701 6.97819 40.2393 7.17871C40.613 7.37467 40.8887 7.61165 41.0664 7.88965C41.2487 8.16764 41.3398 8.50488 41.3398 8.90137C41.3398 9.56673 41.0641 10.1068 40.5127 10.5215C39.9613 10.9316 39.2389 11.1367 38.3457 11.1367C37.7396 11.1367 37.1995 11.0273 36.7256 10.8086C36.2516 10.5898 35.8825 10.2891 35.6182 9.90625C35.3538 9.52344 35.2217 9.111 35.2217 8.66895H36.835C36.8577 9.06087 37.0059 9.36393 37.2793 9.57812C37.5527 9.78776 37.915 9.89258 38.3662 9.89258C38.8037 9.89258 39.1364 9.81055 39.3643 9.64648C39.5921 9.47786 39.7061 9.25911 39.7061 8.99023Z" fill="#5F6368"/>
</svg>
