<svg width="24" height="24" viewBox="0 0 24 24" fill="none" xmlns="http://www.w3.org/2000/svg">
<g id="pool_24px">
<path id="icon/places/pool_24px" fill-rule="evenodd" clip-rule="evenodd" d="M10 8.00006L6.75 11.2501C7.02966 11.3583 7.2605 11.491 7.45715 11.604L7.52002 11.6401C7.89001 11.8701 8.10999 12.0001 8.67004 12.0001C9.22998 12.0001 9.44995 11.8701 9.81995 11.6401L9.83264 11.6326C10.2915 11.3633 10.9103 11.0001 12.01 11.0001C13.12 11.0001 13.74 11.3701 14.1899 11.6401L14.2009 11.6466C14.5646 11.8628 14.7954 12.0001 15.34 12.0001C15.89 12.0001 16.12 11.8701 16.49 11.6401C16.61 11.5701 16.75 11.4901 16.9 11.4101L10.48 5.00006C8.93005 3.45007 7.5 2.99008 5 3.00006V5.50006C6.81995 5.49008 7.89001 5.89008 9 7.00006L10 8.00006ZM6.48901 15.8535C6.12537 15.6373 5.89453 15.5001 5.34998 15.5001C4.80005 15.5001 4.56995 15.6301 4.19995 15.86L4.17078 15.8768C3.70422 16.1451 3.08716 16.5001 2 16.5001V14.5001C2.56006 14.5001 2.78003 14.3701 3.15002 14.1401C3.59998 13.8701 4.21997 13.5001 5.32996 13.5001C6.43994 13.5001 7.06006 13.8701 7.51001 14.1401L7.521 14.1466C7.88464 14.3628 8.11548 14.5001 8.66003 14.5001C9.21997 14.5001 9.43994 14.3701 9.81006 14.1401C10.26 13.8701 10.88 13.5001 11.99 13.5001C13.1 13.5001 13.72 13.8701 14.17 14.1401L14.181 14.1466C14.5447 14.3628 14.7755 14.5001 15.3199 14.5001C15.87 14.5001 16.1 14.3701 16.47 14.1401C16.92 13.8701 17.54 13.5001 18.65 13.5001C19.76 13.5001 20.38 13.8701 20.83 14.1401L20.8407 14.1464C21.2045 14.3627 21.4354 14.5001 21.98 14.5001V16.5001C20.88 16.4901 20.27 16.1301 19.8199 15.86L19.809 15.8535C19.4453 15.6373 19.2145 15.5001 18.67 15.5001C18.11 15.5001 17.89 15.6301 17.52 15.86C17.0699 16.1301 16.45 16.5001 15.34 16.5001C14.23 16.5001 13.61 16.1301 13.16 15.86L13.149 15.8535C12.7854 15.6373 12.5546 15.5001 12.01 15.5001C11.45 15.5001 11.23 15.6301 10.86 15.86C10.41 16.1301 9.79004 16.5001 8.68005 16.5001C7.56995 16.5001 6.94995 16.1301 6.5 15.86L6.48901 15.8535ZM18.67 18.0001C17.5601 18.0001 16.9399 18.3701 16.49 18.6401C16.12 18.8701 15.89 19.0001 15.34 19.0001C14.7955 19.0001 14.5647 18.8629 14.201 18.6467L14.1899 18.6401C13.74 18.3701 13.12 18.0001 12.01 18.0001C10.9103 18.0001 10.2915 18.3633 9.83264 18.6326L9.81995 18.6401C9.44995 18.8701 9.22998 19.0001 8.67004 19.0001C8.10999 19.0001 7.89001 18.8701 7.52002 18.6401C7.06995 18.3701 6.44995 18.0001 5.33997 18.0001C4.23999 18.0001 3.62122 18.3634 3.1626 18.6327L3.15002 18.6401C2.78003 18.8701 2.56006 19.0001 2 19.0001V21.0001C3.09998 21.0001 3.71875 20.6367 4.17737 20.3674L4.18994 20.36C4.56006 20.1301 4.79004 20.0001 5.33997 20.0001C5.89001 20.0001 6.12 20.1301 6.48999 20.36C6.93994 20.6301 7.56006 21.0001 8.67004 21.0001C9.77002 21.0001 10.3888 20.6367 10.8474 20.3674L10.86 20.36C11.23 20.1301 11.45 20.0001 12.01 20.0001C12.5546 20.0001 12.7854 20.1373 13.149 20.3535L13.16 20.36C13.61 20.6301 14.23 21.0001 15.34 21.0001C16.4307 21.0001 17.0387 20.6429 17.4958 20.3742L17.52 20.36C17.89 20.1301 18.11 20.0001 18.67 20.0001C19.2145 20.0001 19.4453 20.1373 19.809 20.3535L19.8199 20.36C20.27 20.6301 20.89 21.0001 22 21.0001V19.0001C21.4399 19.0001 21.22 18.8701 20.85 18.6401C20.4 18.3701 19.78 18.0001 18.67 18.0001ZM14 5.50006C14 4.11935 15.1193 3.00006 16.5 3.00006C17.8807 3.00006 19 4.11935 19 5.50006C19 6.88077 17.8807 8.00006 16.5 8.00006C15.1193 8.00006 14 6.88077 14 5.50006Z" fill="black" fill-opacity="0.54"/>
</g>
</svg>
