<svg width="24" height="24" viewBox="0 0 24 24" fill="none" xmlns="http://www.w3.org/2000/svg">
<g id="portable_wifi_off_24px">
<path id="icon/communication/portable_wifi_off_24px" fill-rule="evenodd" clip-rule="evenodd" d="M20 12.25C20 7.82999 16.42 4.25 12 4.25C10.8 4.25 9.65997 4.53 8.63995 5.01001L7.15997 3.53C8.59998 2.73001 10.24 2.25 12 2.25C17.52 2.25 22 6.73001 22 12.25C22 14.01 21.53 15.65 20.72 17.09L19.23 15.6C19.71 14.57 20 13.45 20 12.25ZM3.41998 2.60999L2.01001 4.03L4.09998 6.12C2.78998 7.81998 2 9.93997 2 12.25C2 15.95 4.01001 19.17 6.98999 20.9L7.98999 19.17C5.60999 17.78 4 15.21 4 12.25C4 10.49 4.57001 8.87 5.53003 7.56L6.96002 9C6.35999 9.92999 6 11.05 6 12.25C6 14.47 7.21002 16.4 9 17.44L10 15.7C8.81 15 8 13.73 8 12.25C8 11.6 8.16998 11 8.44 10.46L10.02 12.04L10 12.25C10 13.35 10.9 14.25 12 14.25L12.21 14.23L19.73 21.75L21.14 20.34L3.41998 2.60999ZM17.71 14.07C17.89 13.5 18 12.88 18 12.25C18 8.94 15.31 6.25 12 6.25C11.37 6.25 10.75 6.35999 10.18 6.54001L11.9 8.26001C11.9137 8.26001 11.9275 8.2579 11.9423 8.25565L11.9428 8.25555C11.96 8.25287 11.9786 8.25 12 8.25C14.21 8.25 16 10.04 16 12.25C16 12.27 15.9975 12.2875 15.995 12.305C15.9925 12.3225 15.99 12.34 15.99 12.36L17.71 14.07Z" fill="black" fill-opacity="0.54"/>
</g>
</svg>
