<svg width="24" height="24" viewBox="0 0 24 24" fill="none" xmlns="http://www.w3.org/2000/svg">
<g id="power_settings_new_24px">
<path id="icon/action/power_settings_new_24px" fill-rule="evenodd" clip-rule="evenodd" d="M11 3H13V13H11V3ZM16.41 6.59003L17.83 5.17001C19.77 6.82001 21 9.26001 21 12C21 16.97 16.97 21 12 21C7.03003 21 3 16.97 3 12C3 9.26001 4.22998 6.82001 6.17004 5.17001L7.57996 6.58002C6.01001 7.86002 5 9.81003 5 12C5 15.87 8.13 19 12 19C15.87 19 19 15.87 19 12C19 9.81003 17.99 7.86002 16.41 6.59003Z" fill="black" fill-opacity="0.54"/>
</g>
</svg>
