<svg width="24" height="24" viewBox="0 0 24 24" fill="none" xmlns="http://www.w3.org/2000/svg">
<g id="power_off_24px">
<path id="icon/notification/power_off_24px" fill-rule="evenodd" clip-rule="evenodd" d="M8.21509 2.505H10.2151V6.385L8.21509 4.385V2.505ZM16.2151 12.385V8.505H12.3351L10.3351 6.505H14.2151V2.505H16.2151V6.505C17.3151 6.505 18.2151 7.405 18.2151 8.505V13.985L18.0151 14.185L16.2151 12.385ZM4.33508 3.345L2.92505 4.755L6.21509 8.045V14.005L9.71509 17.505V20.505H14.7151V17.505L15.1951 17.025L19.665 21.495L21.0751 20.085L4.33508 3.345ZM12.7151 18.505V16.675L13.785 15.615L8.21509 10.045V13.155L11.7151 16.675V18.505H12.7151Z" fill="black" fill-opacity="0.54"/>
</g>
</svg>
