<svg width="24" height="24" viewBox="0 0 24 24" fill="none" xmlns="http://www.w3.org/2000/svg">
<g id="radio_button_checked_24px">
<path id="icon/toggle/radio_button_checked_24px" fill-rule="evenodd" clip-rule="evenodd" d="M12 2C6.47998 2 2 6.47998 2 12C2 17.52 6.47998 22 12 22C17.52 22 22 17.52 22 12C22 6.47998 17.52 2 12 2ZM12 20C7.57996 20 4 16.42 4 12C4 7.58002 7.57996 4 12 4C16.42 4 20 7.58002 20 12C20 16.42 16.42 20 12 20ZM7 12C7 9.23859 9.23853 7 12 7C14.7615 7 17 9.23859 17 12C17 14.7614 14.7615 17 12 17C9.23853 17 7 14.7614 7 12Z" fill="black" fill-opacity="0.54"/>
</g>
</svg>
