<svg width="24" height="24" viewBox="0 0 24 24" fill="none" xmlns="http://www.w3.org/2000/svg">
<g id="rate_review_24px">
<path id="icon/maps/rate_review_24px" fill-rule="evenodd" clip-rule="evenodd" d="M4 2H20C21.1 2 22 2.90002 22 4V16C22 17.1 21.1 18 20 18H6L2 22L2.01001 4C2.01001 2.90002 2.90002 2 4 2ZM5.17004 16H20V4H4V17.17L4.57996 16.59L5.17004 16ZM10.5 14H18V12H12.5L10.5 14ZM14.36 7.41998C14.5601 7.62 14.5601 7.92999 14.36 8.13L8.46997 14H6V11.53L11.88 5.65002C12.08 5.45001 12.39 5.45001 12.59 5.65002L14.36 7.41998Z" fill="black" fill-opacity="0.54"/>
</g>
</svg>
