<svg width="24" height="24" viewBox="0 0 24 24" fill="none" xmlns="http://www.w3.org/2000/svg">
<g id="recent_actors_24px">
<path id="icon/av/recent_actors_24px" fill-rule="evenodd" clip-rule="evenodd" d="M14 5H2C1.45001 5 1 5.45 1 6V18C1 18.55 1.45001 19 2 19H14C14.55 19 15 18.55 15 18V6C15 5.45 14.55 5 14 5ZM19 5H17V19H19V5ZM23 5H21V19H23V5ZM13 17V7H3V17H13ZM8 7.99C6.92303 7.99 6.04999 8.86304 6.04999 9.94C6.04999 11.017 6.92303 11.89 8 11.89C9.07697 11.89 9.95001 11.017 9.95001 9.94C9.95001 8.86304 9.07697 7.99 8 7.99ZM8 13.4C9.29999 13.4 11.89 14.05 11.89 15.35V16H4.10999V15.35C4.10999 14.05 6.70001 13.4 8 13.4Z" fill="black" fill-opacity="0.54"/>
</g>
</svg>
