<svg width="24" height="24" viewBox="0 0 24 24" fill="none" xmlns="http://www.w3.org/2000/svg">
<g id="remove_shopping_cart_24px">
<path id="icon/action/remove_shopping_cart_24px" fill-rule="evenodd" clip-rule="evenodd" d="M0.564941 1.97501L1.97498 0.565002L23.4349 22.025L22.0249 23.435L19.1849 20.595C18.825 21.105 18.235 21.435 17.5649 21.435C16.465 21.435 15.575 20.535 15.575 19.435C15.575 18.765 15.9049 18.175 16.4049 17.815L15.0249 16.435H7.56494C6.46497 16.435 5.56494 15.535 5.56494 14.435C5.56494 14.085 5.65491 13.755 5.81494 13.475L7.16492 11.025L4.95496 6.36499L0.564941 1.97501ZM8.66492 12.435L7.56494 14.435H13.0249L11.0249 12.435H8.66492ZM20.5649 3.435H7.68494L9.68494 5.435H18.8749L16.115 10.435H14.6749L16.615 12.375C17.1549 12.235 17.605 11.885 17.865 11.405L21.4449 4.91501C21.8149 4.255 21.325 3.435 20.5649 3.435ZM5.57495 19.435C5.57495 18.335 6.46497 17.435 7.56494 17.435C8.66492 17.435 9.56494 18.335 9.56494 19.435C9.56494 20.535 8.66492 21.435 7.56494 21.435C6.46497 21.435 5.57495 20.535 5.57495 19.435Z" fill="black" fill-opacity="0.54"/>
</g>
</svg>
