<svg width="24" height="24" viewBox="0 0 24 24" fill="none" xmlns="http://www.w3.org/2000/svg">
<g id="report_off_24px">
<path id="icon/content/report_off_24px" fill-rule="evenodd" clip-rule="evenodd" d="M2.70001 1.28999L1.29001 2.7L4.93002 6.34L3.29001 7.98V15.44L8.56 20.71H16.02L17.66 19.07L21.3 22.71L22.71 21.3L2.70001 1.28999ZM9.39001 4.70999H15.19L19.29 8.81V14.61L19.07 14.83L20.49 16.24L21.29 15.44V7.98L16.02 2.70999H8.56L7.76001 3.50999L9.17001 4.92999L9.39001 4.70999ZM12.29 14.71C11.7377 14.71 11.29 15.1577 11.29 15.71C11.29 16.2623 11.7377 16.71 12.29 16.71C12.8423 16.71 13.29 16.2623 13.29 15.71C13.29 15.1577 12.8423 14.71 12.29 14.71ZM13.29 6.70999V9.03999L11.29 7.03999V6.70999H13.29ZM9.39001 18.71H15.19L16.24 17.66L6.34 7.75999L5.29001 8.81V14.61L9.39001 18.71Z" fill="black" fill-opacity="0.54"/>
</g>
</svg>
