<svg width="24" height="24" viewBox="0 0 24 24" fill="none" xmlns="http://www.w3.org/2000/svg">
<g id="ring_volume_24px">
<path id="icon/communication/ring_volume_24px" fill-rule="evenodd" clip-rule="evenodd" d="M11 2.57001H13V7.57001H11V2.57001ZM19.75 5.42001L21.16 6.83002C21.05 6.86002 17.6 10.38 17.6 10.38L16.19 8.97L19.75 5.42001ZM12 12.57C16.54 12.57 20.66 14.35 23.71 17.24C23.89 17.42 24 17.67 24 17.94C24 18.22 23.89 18.47 23.71 18.65L21.23 21.13C21.05 21.31 20.8 21.42 20.52 21.42C20.25 21.42 20 21.32 19.82 21.14C19.03 20.41 18.14 19.78 17.16 19.29C16.83 19.13 16.6 18.78 16.6 18.39V15.29C15.15 14.82 13.6 14.57 12 14.57C10.4 14.57 8.84998 14.82 7.40002 15.3V18.4C7.40002 18.8 7.16998 19.14 6.84003 19.3C5.87 19.79 4.96997 20.41 4.17999 21.15C4 21.32 3.75 21.43 3.47998 21.43C3.20001 21.43 2.95001 21.32 2.77002 21.14L0.289978 18.66C0.109985 18.48 0 18.23 0 17.95C0 17.67 0.109985 17.42 0.289978 17.24C3.34003 14.35 7.46002 12.57 12 12.57ZM3.53003 19.07C4.11005 18.6 4.74005 18.17 5.40002 17.8H5.41003V16.1C4.36005 16.61 3.37 17.25 2.46002 18L3.53003 19.07ZM20.47 19.06C19.88 18.58 19.2599 18.16 18.6 17.79V16.09C19.64 16.6 20.63 17.24 21.54 17.99L20.47 19.06ZM7.81 8.97L6.40002 10.38C6.40002 10.38 2.95001 6.86002 2.84003 6.83002L4.26001 5.41L7.81 8.97Z" fill="black" fill-opacity="0.54"/>
</g>
</svg>
