<svg width="24" height="24" viewBox="0 0 24 24" fill="none" xmlns="http://www.w3.org/2000/svg">
<g id="room_service_24px">
<path id="icon/places/room_service_24px" fill-rule="evenodd" clip-rule="evenodd" d="M21 16C20.73 11.93 17.75 8.60001 13.84 7.79001C13.9399 7.54999 14 7.28 14 7C14 5.89999 13.1 5 12 5C10.9 5 10 5.89999 10 7C10 7.28 10.0601 7.54999 10.16 7.79001C6.25 8.60001 3.27002 11.93 3 16H21ZM18.98 17H2V19H22V17H18.98ZM18.5 13.99C17.47 11.41 14.95 9.57999 12 9.57999C9.05005 9.57999 6.53003 11.41 5.5 13.99H18.5Z" fill="black" fill-opacity="0.54"/>
</g>
</svg>
