<svg width="24" height="24" viewBox="0 0 24 24" fill="none" xmlns="http://www.w3.org/2000/svg">
<g id="rotate_90_degrees_ccw_24px">
<path id="icon/image/rotate_90_degrees_ccw_24px" fill-rule="evenodd" clip-rule="evenodd" d="M13.57 4.62001C15.87 4.62001 18.18 5.5 19.93 7.26001C23.45 10.77 23.45 16.47 19.93 19.98C18.18 21.74 15.87 22.62 13.57 22.62C12.08 22.62 10.59 22.24 9.23999 21.5L10.73 20.01C11.63 20.41 12.6 20.62 13.57 20.62C15.36 20.62 17.15 19.94 18.52 18.57C21.25 15.84 21.25 11.4 18.52 8.67C17.15 7.3 15.36 6.62001 13.57 6.62001V9.86L9.33002 5.62001L13.57 1.38V4.62001ZM7.90997 7.03L1.42999 13.52L7.91998 20L14.41 13.52L7.90997 7.03ZM4.26001 13.52L7.91998 9.86L11.57 13.52L7.91003 17.18L4.26001 13.52Z" fill="black" fill-opacity="0.54"/>
</g>
</svg>
