<svg width="24" height="24" viewBox="0 0 24 24" fill="none" xmlns="http://www.w3.org/2000/svg">
<g id="router_24px">
<path id="icon/hardware/router_24px" fill-rule="evenodd" clip-rule="evenodd" d="M16 4.20001C17.5 4.20001 19 4.79999 20.2 5.89999L21 5.10001C19.6 3.70001 17.8 3 16 3C14.2 3 12.4 3.70001 11 5.10001L11.8 5.89999C13 4.79999 14.5 4.20001 16 4.20001ZM12.7 6.69998L13.5 7.5C14.2 6.79999 15.1 6.5 16 6.5C16.9 6.5 17.8 6.79999 18.5 7.5L19.3 6.69998C18.4 5.79999 17.2 5.29999 16 5.29999C14.8 5.29999 13.6 5.79999 12.7 6.69998ZM17 13H19C20.1 13 21 13.9 21 15V19C21 20.1 20.1 21 19 21H5C3.90002 21 3 20.1 3 19V15C3 13.9 3.90002 13 5 13H15V9H17V13ZM19 19H5V15H19V19ZM8 16H6V18H8V16ZM9.5 16H11.5V18H9.5V16ZM15 16H13V18H15V16Z" fill="black" fill-opacity="0.54"/>
</g>
</svg>
