<svg width="24" height="24" viewBox="0 0 24 24" fill="none" xmlns="http://www.w3.org/2000/svg">
<g id="rss_feed_24px">
<path id="icon/communication/rss_feed_24px" fill-rule="evenodd" clip-rule="evenodd" d="M4.21997 4.22V7.04999C11.25 7.04999 16.95 12.75 16.95 19.78H19.78C19.78 11.19 12.81 4.22 4.21997 4.22ZM6.39996 15.42C5.19598 15.42 4.21997 16.396 4.21997 17.6C4.21997 18.804 5.19598 19.78 6.39996 19.78C7.60394 19.78 8.57996 18.804 8.57996 17.6C8.57996 16.396 7.60394 15.42 6.39996 15.42ZM4.21997 12.71V9.88C9.68994 9.88 14.12 14.31 14.12 19.78H11.29C11.29 15.88 8.12 12.71 4.21997 12.71Z" fill="black" fill-opacity="0.54"/>
</g>
</svg>
