<svg width="24" height="24" viewBox="0 0 24 24" fill="none" xmlns="http://www.w3.org/2000/svg">
<g id="rv_hookup_24px">
<path id="icon/places/rv_hookup_24px" fill-rule="evenodd" clip-rule="evenodd" d="M16 4V2L19 5L16 8V6H8V4H16ZM17 9C18.1 9 19 9.89999 19 11V17H21V19H13C13 20.66 11.66 22 10 22C8.33997 22 7 20.66 7 19H5C3.90002 19 3 18.1 3 17V14H10V11H6V13L3 10L6 7V9H17ZM9 19C9 19.55 9.44995 20 10 20C10.55 20 11 19.55 11 19C11 18.45 10.55 18 10 18C9.44995 18 9 18.45 9 19ZM17 14H13V11H17V14Z" fill="black" fill-opacity="0.54"/>
</g>
</svg>
