<svg width="24" height="24" viewBox="0 0 24 24" fill="none" xmlns="http://www.w3.org/2000/svg">
<g id="satellite_24px">
<path id="icon/maps/satellite_24px" fill-rule="evenodd" clip-rule="evenodd" d="M19 3H5C3.90002 3 3 3.90002 3 5V19C3 20.1 3.90002 21 5 21H19C20.1 21 21 20.1 21 19V5C21 3.90002 20.1 3 19 3ZM5 19V5H19V19H5ZM6 6H8.56995C8.56995 7.41998 7.42004 8.58002 6 8.58002V6ZM12 6H10.29C10.29 8.35999 8.37 10.29 6 10.29V12C9.31995 12 12 9.31 12 6ZM11.14 15.73L14.14 11.86L18 17H6L9 13.15L11.14 15.73Z" fill="black" fill-opacity="0.54"/>
</g>
</svg>
