<svg width="24" height="24" viewBox="0 0 24 24" fill="none" xmlns="http://www.w3.org/2000/svg">
<g id="sentiment_very_satisfied_24px">
<path id="icon/social/sentiment_very_satisfied_24px" fill-rule="evenodd" clip-rule="evenodd" d="M11.99 2C6.46997 2 2 6.46997 2 12C2 17.53 6.46997 22 11.99 22C17.51 22 22 17.53 22 12C22 6.46997 17.52 2 11.99 2ZM12 20C7.57996 20 4 16.42 4 12C4 7.58002 7.57996 4 12 4C16.42 4 20 7.58002 20 12C20 16.42 16.42 20 12 20ZM14.0601 11L13 9.94L15.12 7.82001L17.24 9.94L16.1801 11L15.12 9.94L14.0601 11ZM8.88 9.94L9.94006 11L11 9.94L8.88 7.82001L6.76001 9.94L7.82007 11L8.88 9.94ZM17.11 14C16.3101 16.04 14.33 17.5 12 17.5C9.67004 17.5 7.69006 16.04 6.89001 14H17.11Z" fill="black" fill-opacity="0.54"/>
</g>
</svg>
