<svg width="24" height="24" viewBox="0 0 24 24" fill="none" xmlns="http://www.w3.org/2000/svg">
<g id="sentiment_very_dissatisfied_24px">
<path id="icon/social/sentiment_very_dissatisfied_24px" fill-rule="evenodd" clip-rule="evenodd" d="M2 12C2 6.46997 6.46997 2 11.99 2C17.52 2 22 6.46997 22 12C22 17.53 17.51 22 11.99 22C6.46997 22 2 17.53 2 12ZM7.82007 12L8.88 10.94L9.94006 12L11 10.94L9.94006 9.88L11 8.82001L9.94006 7.76001L8.88 8.82001L7.82007 7.76001L6.76001 8.82001L7.82007 9.88L6.76001 10.94L7.82007 12ZM12 13.5C9.67004 13.5 7.69006 14.96 6.89001 17H17.11C16.3101 14.96 14.33 13.5 12 13.5ZM12 20C7.57996 20 4 16.42 4 12C4 7.58002 7.57996 4 12 4C16.42 4 20 7.58002 20 12C20 16.42 16.42 20 12 20ZM15.12 8.82001L16.1801 7.76001L17.24 8.82001L16.1801 9.88L17.24 10.94L16.1801 12L15.12 10.94L14.0601 12L13 10.94L14.0601 9.88L13 8.82001L14.0601 7.76001L15.12 8.82001Z" fill="black" fill-opacity="0.54"/>
</g>
</svg>
