<svg width="24" height="24" viewBox="0 0 24 24" fill="none" xmlns="http://www.w3.org/2000/svg">
<g id="sentiment_dissatisfied_24px">
<path id="icon/social/sentiment_dissatisfied_24px" fill-rule="evenodd" clip-rule="evenodd" d="M11.99 2C6.46997 2 2 6.47998 2 12C2 17.52 6.46997 22 11.99 22C17.52 22 22 17.52 22 12C22 6.47998 17.52 2 11.99 2ZM8.5 8C7.67163 8 7 8.67157 7 9.5C7 10.3284 7.67163 11 8.5 11C9.32837 11 10 10.3284 10 9.5C10 8.67157 9.32837 8 8.5 8ZM15.5 8C14.6716 8 14 8.67157 14 9.5C14 10.3284 14.6716 11 15.5 11C16.3284 11 17 10.3284 17 9.5C17 8.67157 16.3284 8 15.5 8ZM6.88 17.5C7.68005 15.45 9.67004 14 12 14C14.33 14 16.3199 15.45 17.12 17.5H15.45C14.75 16.31 13.48 15.5 12 15.5C10.52 15.5 9.23999 16.31 8.55005 17.5H6.88ZM4 12C4 16.42 7.57996 20 12 20C16.42 20 20 16.42 20 12C20 7.58002 16.42 4 12 4C7.57996 4 4 7.58002 4 12Z" fill="black" fill-opacity="0.54"/>
</g>
</svg>
