<svg width="24" height="24" viewBox="0 0 24 24" fill="none" xmlns="http://www.w3.org/2000/svg">
<g id="settings_remote_24px">
<path id="icon/action/settings_remote_24px" fill-rule="evenodd" clip-rule="evenodd" d="M4.22498 3.72C6.21497 1.73001 8.96497 0.5 12.005 0.5C15.0449 0.5 17.7949 1.73001 19.775 3.73001L18.365 5.14001C16.745 3.51001 14.495 2.5 12.005 2.5C9.51501 2.5 7.26501 3.51001 5.63501 5.13L4.22498 3.72ZM7.05493 6.54999L8.46497 7.95999C9.37488 7.06 10.6249 6.5 12.0049 6.5C13.3849 6.5 14.6349 7.06 15.5449 7.95999L16.955 6.54999C15.6849 5.28 13.9349 4.5 12.0049 4.5C10.075 4.5 8.32495 5.28 7.05493 6.54999ZM16.005 10.5C16.005 9.95001 15.5551 9.5 15.005 9.5H9.005C8.45496 9.5 8.005 9.95001 8.005 10.5V22.5C8.005 23.05 8.45496 23.5 9.005 23.5H15.005C15.5551 23.5 16.005 23.05 16.005 22.5V10.5ZM14.005 11.5V21.5H10.005V11.5H14.005ZM11.005 13.5C11.005 12.9477 11.4528 12.5 12.005 12.5C12.5573 12.5 13.005 12.9477 13.005 13.5C13.005 14.0523 12.5573 14.5 12.005 14.5C11.4528 14.5 11.005 14.0523 11.005 13.5Z" fill="black" fill-opacity="0.54"/>
</g>
</svg>
