<svg width="24" height="24" viewBox="0 0 24 24" fill="none" xmlns="http://www.w3.org/2000/svg">
<g id="settings_input_antenna_24px">
<path id="icon/action/settings_input_antenna_24px" fill-rule="evenodd" clip-rule="evenodd" d="M1 12.295C1 6.22501 5.93005 1.29501 12 1.29501C18.0699 1.29501 23 6.22501 23 12.295H21C21 7.32501 16.97 3.29501 12 3.29501C7.03003 3.29501 3 7.32501 3 12.295H1ZM12 5.29501C8.13 5.29501 5 8.42502 5 12.295H7C7 9.535 9.23999 7.29501 12 7.29501C14.76 7.29501 17 9.535 17 12.295H19C19 8.42502 15.87 5.29501 12 5.29501ZM13 14.585C13.88 14.195 14.5 13.325 14.5 12.295C14.5 10.915 13.38 9.79501 12 9.79501C10.62 9.79501 9.5 10.915 9.5 12.295C9.5 13.315 10.12 14.195 11 14.585V17.885L7.58997 21.295L9 22.705L12 19.705L15 22.705L16.4099 21.295L13 17.885V14.585Z" fill="black" fill-opacity="0.54"/>
</g>
</svg>
