<svg width="24" height="24" viewBox="0 0 24 24" fill="none" xmlns="http://www.w3.org/2000/svg">
<g id="settings_system_daydream_24px">
<path id="icon/device/settings_system_daydream_24px" fill-rule="evenodd" clip-rule="evenodd" d="M21 3H3C1.89999 3 1 3.89999 1 5V19C1 20.1 1.89999 21 3 21H21C22.1 21 23 20.1 23 19V5C23 3.89999 22.1 3 21 3ZM9 17H15.5C17.43 17 19 15.43 19 13.5C19 11.84 17.84 10.45 16.26 10.09C15.66 8.28 13.95 7 12 7C10.47 7 9.04001 7.8 8.22 9.08C6.35999 9.44 5 11.07 5 13C5 15.21 6.79001 17 9 17ZM7 13C7 11.99 7.73999 11.15 8.73999 11.02H9.47L9.73999 10.45C10.16 9.57001 11.04 9 12 9C13.23 9 14.29 9.92 14.46 11.14L14.63 12H15.5C16.33 12 17 12.67 17 13.5C17 14.33 16.33 15 15.5 15H9C7.89999 15 7 14.1 7 13ZM3 19.01H21V4.99001H3V19.01Z" fill="black" fill-opacity="0.54"/>
</g>
</svg>
