<svg width="24" height="24" viewBox="0 0 24 24" fill="none" xmlns="http://www.w3.org/2000/svg">
<g id="settings_brightness_24px">
<path id="icon/action/settings_brightness_24px" fill-rule="evenodd" clip-rule="evenodd" d="M3 3H21C22.1 3 23 3.89999 23 5V19C23 20.1 22.1 21 21 21H3C1.90002 21 1 20.1 1 19V5C1 3.89999 1.90002 3 3 3ZM3 19.01H21V4.98999H3V19.01ZM8 16H10.5L12 17.5L13.5 16H16V13.5L17.5 12L16 10.5V8H13.5L12 6.5L10.5 8H8V10.5L6.5 12L8 13.5V16ZM15 12C15 10.34 13.66 9 12 9V15C13.66 15 15 13.66 15 12Z" fill="black" fill-opacity="0.54"/>
</g>
</svg>
