<svg width="24" height="24" viewBox="0 0 24 24" fill="none" xmlns="http://www.w3.org/2000/svg">
<g id="settings_power_24px">
<path id="icon/action/settings_power_24px" fill-rule="evenodd" clip-rule="evenodd" d="M11 1H13V11H11V1ZM7 23H9V21H7V23ZM13 23V21H11V23H13ZM16.5601 3.44L15.11 4.89001C16.84 5.94 18 7.83002 18 10C18 13.31 15.3101 16 12 16C8.68994 16 6 13.31 6 10C6 7.83002 7.16003 5.94 8.88 4.88L7.43994 3.44C5.35999 4.88 4 7.28 4 10C4 14.42 7.57996 18 12 18C16.42 18 20 14.42 20 10C20 7.28 18.64 4.88 16.5601 3.44ZM17 23H15V21H17V23Z" fill="black" fill-opacity="0.54"/>
</g>
</svg>
