<svg width="24" height="24" viewBox="0 0 24 24" fill="none" xmlns="http://www.w3.org/2000/svg">
<g id="shopping_basket_24px">
<path id="icon/action/shopping_basket_24px" fill-rule="evenodd" clip-rule="evenodd" d="M17.21 9.49002H22C22.55 9.49002 23 9.94 23 10.49L22.97 10.76L20.4301 20.03C20.1899 20.87 19.42 21.49 18.5 21.49H5.5C4.57996 21.49 3.81006 20.87 3.57996 20.03L1.04004 10.76C1.01001 10.67 1 10.58 1 10.49C1 9.94 1.44995 9.49002 2 9.49002H6.79004L11.17 2.94C11.36 2.65002 11.6801 2.51001 12 2.51001C12.3199 2.51001 12.64 2.65002 12.83 2.93002L17.21 9.49002ZM14.7999 9.49002L12 5.29001L9.19995 9.49002H14.7999ZM18.5 19.49L5.51001 19.5L3.31006 11.49H20.7001L18.5 19.49ZM10 15.49C10 14.39 10.9 13.49 12 13.49C13.1 13.49 14 14.39 14 15.49C14 16.59 13.1 17.49 12 17.49C10.9 17.49 10 16.59 10 15.49Z" fill="black" fill-opacity="0.54"/>
</g>
</svg>
