<svg width="24" height="24" viewBox="0 0 24 24" fill="none" xmlns="http://www.w3.org/2000/svg">
<g id="shopping_cart_24px">
<path id="icon/action/shopping_cart_24px" fill-rule="evenodd" clip-rule="evenodd" d="M18.2964 11.97C17.9563 12.59 17.2964 13 16.5464 13H9.09631L7.99634 15H19.9963V17H7.99634C6.47632 17 5.51636 15.37 6.24634 14.03L7.59631 11.59L3.99634 4H1.99634V2H5.26636L6.2063 4H21.0063C21.7664 4 22.2463 4.82001 21.8763 5.48001L18.2964 11.97ZM19.3064 6H7.15637L9.52637 11H16.5464L19.3064 6ZM7.99634 18C6.89636 18 6.00635 18.9 6.00635 20C6.00635 21.1 6.89636 22 7.99634 22C9.09631 22 9.99634 21.1 9.99634 20C9.99634 18.9 9.09631 18 7.99634 18ZM16.0063 20C16.0063 18.9 16.8964 18 17.9963 18C19.0963 18 19.9963 18.9 19.9963 20C19.9963 21.1 19.0963 22 17.9963 22C16.8964 22 16.0063 21.1 16.0063 20Z" fill="black" fill-opacity="0.54"/>
</g>
</svg>
