<svg width="24" height="24" viewBox="0 0 24 24" fill="none" xmlns="http://www.w3.org/2000/svg">
<g id="shutter_speed_24px">
<path id="icon/image/shutter_speed_24px" fill-rule="evenodd" clip-rule="evenodd" d="M15 1.5H9V3.5H15V1.5ZM19.03 7.89L20.45 6.47C20.02 5.96001 19.55 5.48 19.04 5.06L17.62 6.48C16.0699 5.24001 14.12 4.5 12 4.5C7.03003 4.5 3 8.53 3 13.5C3 18.47 7.02002 22.5 12 22.5C16.98 22.5 21 18.47 21 13.5C21 11.38 20.26 9.42999 19.03 7.89ZM5 13.5C5 17.37 8.13 20.5 12 20.5C15.87 20.5 19 17.37 19 13.5C19 9.63 15.87 6.5 12 6.5C8.13 6.5 5 9.63 5 13.5ZM11.6799 15.5H6.34998C6.91992 17.12 8.16992 18.42 9.76001 19.06L9.65002 19L11.6799 15.5ZM14.3101 7.96001C15.87 8.61 17.08 9.90001 17.65 11.5H12.26L14.3101 7.96001ZM10.61 19.33C11.0599 19.44 11.52 19.5 12 19.5C13.34 19.5 14.5699 19.05 15.5699 18.31L13.46 14.41L10.61 19.33ZM6 13.5C6 11.96 6.58997 10.55 7.55005 9.49001L10.8101 14.5H6.08997C6.04004 14.17 6 13.84 6 13.5ZM16.34 17.63C17.37 16.56 18 15.1 18 13.5C18 13.16 17.96 12.83 17.9099 12.5H13.5699L16.34 17.63ZM12 7.5C12.4601 7.5 12.9 7.56 13.3301 7.64999L10.61 12.35L8.29004 8.78999C9.31006 7.99001 10.6001 7.5 12 7.5Z" fill="black" fill-opacity="0.54"/>
</g>
</svg>
