<svg width="24" height="24" viewBox="0 0 24 24" fill="none" xmlns="http://www.w3.org/2000/svg">
<g id="smoke_free_24px">
<path id="icon/places/smoke_free_24px" fill-rule="evenodd" clip-rule="evenodd" d="M16.03 8.17502H14.5C12.65 8.17502 11.15 6.67502 11.15 4.82501C11.15 2.97501 12.65 1.47501 14.5 1.47501V2.97501C13.48 2.97501 12.65 3.70502 12.65 4.72501C12.65 5.745 13.48 6.72501 14.5 6.72501H16.03C17.9 6.72501 19.5 8.07501 19.5 9.88501V11.525H18V10.225C18 8.91501 17.0801 8.17502 16.03 8.17502ZM17 12.525H14.66L17 14.865V12.525ZM19.5 12.525H18V15.525H19.5V12.525ZM22 12.525H20.5V15.525H22V12.525ZM18.85 4.255C19.47 3.64499 19.85 2.80499 19.85 1.875H18.35C18.35 2.89499 17.52 3.72501 16.5 3.72501V5.22501C18.74 5.22501 20.5 7.05499 20.5 9.29501V11.525H22V9.285C22 7.065 20.72 5.14499 18.85 4.255ZM2 5.52502L3.41003 4.11502L20.41 21.115L19 22.525L12 15.525H2V12.525H9L2 5.52502Z" fill="black" fill-opacity="0.54"/>
</g>
</svg>
