<svg width="24" height="24" viewBox="0 0 24 24" fill="none" xmlns="http://www.w3.org/2000/svg">
<g id="snooze_24px">
<path id="icon/av/snooze_24px" fill-rule="evenodd" clip-rule="evenodd" d="M2.05524 5.7487L3.33643 7.2845L7.94373 3.4409L6.66266 1.9051L2.05524 5.7487ZM16.0562 3.4414L17.3373 1.9056L21.9448 5.7492L20.6636 7.285L16.0562 3.4414ZM8.99976 11.0949H12.6298L8.99976 15.2949V17.0949H14.9998V15.0949H11.3698L14.9998 10.8949V9.0949H8.99976V11.0949ZM11.9998 6.0949C15.8597 6.0949 18.9998 9.2349 18.9998 13.0949C18.9998 16.9549 15.8597 20.0949 11.9998 20.0949C8.13977 20.0949 4.99976 16.9549 4.99976 13.0949C4.99976 9.2349 8.13977 6.0949 11.9998 6.0949ZM2.99976 13.0949C2.99976 8.1249 7.02979 4.0949 11.9998 4.0949C16.9697 4.0949 20.9998 8.1249 20.9998 13.0949C20.9998 18.0649 16.9697 22.0949 11.9998 22.0949C7.02979 22.0949 2.99976 18.0649 2.99976 13.0949Z" fill="black" fill-opacity="0.54"/>
</g>
</svg>
