<svg width="39" height="12" viewBox="0 0 39 12" fill="none" xmlns="http://www.w3.org/2000/svg">
<path id="Social" d="M6.21387 8.43652C6.21387 7.99902 6.05892 7.66178 5.74902 7.4248C5.44368 7.18783 4.88997 6.94857 4.08789 6.70703C3.28581 6.46549 2.64779 6.19661 2.17383 5.90039C1.26693 5.33073 0.813477 4.58789 0.813477 3.67188C0.813477 2.86979 1.13932 2.20898 1.79102 1.68945C2.44727 1.16992 3.2972 0.910156 4.34082 0.910156C5.03353 0.910156 5.65104 1.03776 6.19336 1.29297C6.73568 1.54818 7.16178 1.91276 7.47168 2.38672C7.78158 2.85612 7.93652 3.37793 7.93652 3.95215H6.21387C6.21387 3.43262 6.0498 3.02702 5.72168 2.73535C5.39811 2.43913 4.93327 2.29102 4.32715 2.29102C3.76204 2.29102 3.32227 2.41178 3.00781 2.65332C2.69792 2.89486 2.54297 3.2321 2.54297 3.66504C2.54297 4.02962 2.71159 4.33496 3.04883 4.58105C3.38607 4.82259 3.94206 5.05957 4.7168 5.29199C5.49154 5.51986 6.11361 5.7819 6.58301 6.07812C7.05241 6.36979 7.39648 6.70703 7.61523 7.08984C7.83398 7.4681 7.94336 7.91243 7.94336 8.42285C7.94336 9.25228 7.62435 9.91309 6.98633 10.4053C6.35286 10.8929 5.49154 11.1367 4.40234 11.1367C3.68229 11.1367 3.01921 11.0046 2.41309 10.7402C1.81152 10.4714 1.34212 10.1022 1.00488 9.63281C0.672201 9.16341 0.505859 8.61654 0.505859 7.99219H2.23535C2.23535 8.55729 2.4222 8.99479 2.7959 9.30469C3.1696 9.61458 3.70508 9.76953 4.40234 9.76953C5.00391 9.76953 5.45508 9.64876 5.75586 9.40723C6.0612 9.16113 6.21387 8.83757 6.21387 8.43652ZM9.13926 7.2334C9.13926 6.50879 9.28281 5.8571 9.56992 5.27832C9.85703 4.69499 10.2604 4.24837 10.7799 3.93848C11.2994 3.62402 11.8964 3.4668 12.5709 3.4668C13.5689 3.4668 14.3779 3.78809 14.9977 4.43066C15.622 5.07324 15.9592 5.92546 16.0094 6.9873L16.0162 7.37695C16.0162 8.10612 15.8749 8.75781 15.5924 9.33203C15.3144 9.90625 14.9133 10.3506 14.3893 10.665C13.8697 10.9795 13.2682 11.1367 12.5846 11.1367C11.541 11.1367 10.7047 10.7904 10.0758 10.0977C9.45143 9.40039 9.13926 8.47298 9.13926 7.31543V7.2334ZM10.8004 7.37695C10.8004 8.13802 10.9576 8.73503 11.2721 9.16797C11.5865 9.59635 12.024 9.81055 12.5846 9.81055C13.1451 9.81055 13.5803 9.5918 13.8902 9.1543C14.2047 8.7168 14.3619 8.0765 14.3619 7.2334C14.3619 6.486 14.2001 5.89355 13.8766 5.45605C13.5576 5.01855 13.1223 4.7998 12.5709 4.7998C12.0286 4.7998 11.5979 5.01628 11.2789 5.44922C10.9599 5.8776 10.8004 6.52018 10.8004 7.37695ZM20.6096 9.81055C21.0243 9.81055 21.3684 9.68978 21.6418 9.44824C21.9152 9.20671 22.0611 8.9082 22.0793 8.55273H23.6447C23.6265 9.01302 23.4829 9.44368 23.2141 9.84473C22.9452 10.2412 22.5806 10.5557 22.1203 10.7881C21.66 11.0205 21.1633 11.1367 20.6301 11.1367C19.5956 11.1367 18.7753 10.8018 18.1691 10.1318C17.563 9.46191 17.26 8.53678 17.26 7.35645V7.18555C17.26 6.0599 17.5607 5.15983 18.1623 4.48535C18.7639 3.80632 19.5842 3.4668 20.6232 3.4668C21.5028 3.4668 22.2183 3.72428 22.7697 4.23926C23.3257 4.74967 23.6174 5.42188 23.6447 6.25586H22.0793C22.0611 5.83203 21.9152 5.4834 21.6418 5.20996C21.3729 4.93652 21.0288 4.7998 20.6096 4.7998C20.0718 4.7998 19.6571 4.99577 19.3654 5.3877C19.0738 5.77507 18.9257 6.36523 18.9211 7.1582V7.4248C18.9211 8.22689 19.0646 8.82617 19.3518 9.22266C19.6434 9.61458 20.0627 9.81055 20.6096 9.81055ZM26.8162 11H25.1551V3.60352H26.8162V11ZM25.0525 1.68262C25.0525 1.42741 25.1323 1.21549 25.2918 1.04688C25.4559 0.878255 25.6883 0.793945 25.9891 0.793945C26.2898 0.793945 26.5223 0.878255 26.6863 1.04688C26.8504 1.21549 26.9324 1.42741 26.9324 1.68262C26.9324 1.93327 26.8504 2.1429 26.6863 2.31152C26.5223 2.47559 26.2898 2.55762 25.9891 2.55762C25.6883 2.55762 25.4559 2.47559 25.2918 2.31152C25.1323 2.1429 25.0525 1.93327 25.0525 1.68262ZM33.2006 11C33.1277 10.8587 33.0639 10.6286 33.0092 10.3096C32.4805 10.861 31.8334 11.1367 31.0678 11.1367C30.3249 11.1367 29.7188 10.9248 29.2494 10.501C28.78 10.0771 28.5453 9.55306 28.5453 8.92871C28.5453 8.1403 28.837 7.53646 29.4203 7.11719C30.0082 6.69336 30.8467 6.48145 31.9359 6.48145H32.9545V5.99609C32.9545 5.61328 32.8474 5.30794 32.6332 5.08008C32.419 4.84766 32.0932 4.73145 31.6557 4.73145C31.2774 4.73145 30.9675 4.82715 30.726 5.01855C30.4844 5.2054 30.3637 5.44466 30.3637 5.73633H28.7025C28.7025 5.33073 28.837 4.95247 29.1059 4.60156C29.3747 4.24609 29.7393 3.9681 30.1996 3.76758C30.6645 3.56706 31.1817 3.4668 31.7514 3.4668C32.6173 3.4668 33.3077 3.68555 33.8227 4.12305C34.3376 4.55599 34.602 5.16667 34.6156 5.95508V9.29102C34.6156 9.95638 34.709 10.4873 34.8959 10.8838V11H33.2006ZM31.3754 9.80371C31.7035 9.80371 32.0111 9.72396 32.2982 9.56445C32.5899 9.40495 32.8087 9.19076 32.9545 8.92188V7.52734H32.059C31.4437 7.52734 30.9812 7.63444 30.6713 7.84863C30.3614 8.06283 30.2064 8.36589 30.2064 8.75781C30.2064 9.07682 30.3113 9.33203 30.5209 9.52344C30.7351 9.71029 31.0199 9.80371 31.3754 9.80371ZM38.2725 11H36.6113V0.5H38.2725V11Z" fill="#5F6368"/>
</svg>
