<svg width="24" height="24" viewBox="0 0 24 24" fill="none" xmlns="http://www.w3.org/2000/svg">
<g id="spa_24px">
<path id="icon/places/spa_24px" fill-rule="evenodd" clip-rule="evenodd" d="M15.49 9.63C15.3101 6.84 14.1801 4.12 12.0601 2C9.92004 4.14001 8.73999 6.85999 8.51001 9.63C9.79004 10.31 10.97 11.19 12 12.26C13.03 11.2 14.21 10.32 15.49 9.63ZM12.05 5.19C12.6801 6.22 13.12 7.37 13.3501 8.57001C12.88 8.87 12.4401 9.20001 12.01 9.54999C11.5901 9.20999 11.14 8.88 10.6801 8.58002C10.9301 7.38 11.39 6.23001 12.05 5.19ZM8.93994 12.25C10.14 13.11 11.1801 14.2 12 15.45C14.15 12.17 17.8199 10 22 10C22 15.32 18.64 19.82 13.97 21.49C13.33 21.71 12.6801 21.88 12 22C11.3199 21.89 10.66 21.72 10.03 21.49C5.35999 19.82 2 15.32 2 10C4.58997 10 6.97998 10.83 8.93005 12.24C8.87939 12.2062 8.82507 12.1724 8.76953 12.1378L8.76501 12.1351L8.76404 12.1344C8.6897 12.0883 8.61328 12.0407 8.54004 11.99C8.61548 12.048 8.69421 12.0959 8.77234 12.1434C8.82898 12.1779 8.88538 12.2122 8.93994 12.25ZM13.3201 19.6C12.88 19.75 12.4401 19.87 11.99 19.97C11.55 19.88 11.12 19.76 10.71 19.61C7.42004 18.43 5.01001 15.62 4.26001 12.26C5.35999 12.52 6.41003 12.97 7.38 13.59L7.35999 13.6C7.48999 13.69 7.62 13.78 7.75 13.85L7.82007 13.89C8.81006 14.61 9.66003 15.5 10.33 16.54L12 19.1L13.67 16.55C14.36 15.5 15.22 14.6 16.2 13.89L16.27 13.84C16.3593 13.7904 16.4485 13.731 16.5378 13.6715L16.54 13.67L16.53 13.65C17.51 13 18.6 12.52 19.74 12.25C18.99 15.62 16.59 18.43 13.3201 19.6ZM8.93994 12.24C8.94263 12.2427 8.94604 12.2463 8.94995 12.25C8.95996 12.26 8.96997 12.27 8.98999 12.28C8.97534 12.2727 8.96069 12.2602 8.94995 12.25C8.94995 12.24 8.93994 12.24 8.93994 12.24Z" fill="black" fill-opacity="0.54"/>
</g>
</svg>
