<svg width="24" height="24" viewBox="0 0 24 24" fill="none" xmlns="http://www.w3.org/2000/svg">
<g id="speaker_24px">
<path id="icon/hardware/speaker_24px" fill-rule="evenodd" clip-rule="evenodd" d="M17 2H7C5.89999 2 5 2.89999 5 4V20C5 21.1 5.89999 21.99 7 21.99L17 22C18.1 22 19 21.1 19 20V4C19 2.89999 18.1 2 17 2ZM7 20V4H17V20H7ZM14 7C14 8.10001 13.1 9 12 9C10.89 9 10 8.10001 10 7C10 5.89999 10.89 5 12 5C13.1 5 14 5.89999 14 7ZM12 11C9.79001 11 8 12.79 8 15C8 17.21 9.79001 19 12 19C14.21 19 16 17.21 16 15C16 12.79 14.21 11 12 11ZM10 15C10 16.1 10.9 17 12 17C13.1 17 14 16.1 14 15C14 13.9 13.1 13 12 13C10.9 13 10 13.9 10 15Z" fill="black" fill-opacity="0.54"/>
</g>
</svg>
