<svg width="24" height="24" viewBox="0 0 24 24" fill="none" xmlns="http://www.w3.org/2000/svg">
<g id="speaker_group_24px">
<path id="icon/hardware/speaker_group_24px" fill-rule="evenodd" clip-rule="evenodd" d="M9.79999 1H18.2C19.19 1 20 1.81 20 2.79999V17.2C20 18.19 19.19 19 18.2 19L9.79999 18.99C8.81 18.99 8 18.19 8 17.2V2.79999C8 1.81 8.81 1 9.79999 1ZM18 17V3H10V16.99L18 17ZM14 8C15.1 8 16 7.10999 16 6C16 4.89001 15.1 4 14 4C12.9 4 12 4.89001 12 6C12 7.10999 12.9 8 14 8ZM17.5 12.5C17.5 14.43 15.93 16 14 16C12.07 16 10.5 14.43 10.5 12.5C10.5 10.57 12.07 9 14 9C15.93 9 17.5 10.57 17.5 12.5ZM14 11C14.83 11 15.5 11.67 15.5 12.5C15.5 13.33 14.83 14 14 14C13.17 14 12.5 13.33 12.5 12.5C12.5 11.67 13.17 11 14 11ZM4 5H6V21H16V23H6C4.89001 23 4 22.1 4 21V5Z" fill="black" fill-opacity="0.54"/>
</g>
</svg>
