<svg width="24" height="24" viewBox="0 0 24 24" fill="none" xmlns="http://www.w3.org/2000/svg">
<g id="speaker_notes_off_24px">
<path id="icon/action/speaker_notes_off_24px" fill-rule="evenodd" clip-rule="evenodd" d="M2.34009 0.929993L0.930054 2.34L2.94006 4.35001L2.93005 21.34L6.93005 17.34H15.9301L21.66 23.07L23.0701 21.66L2.34009 0.929993ZM20.9301 15.34V3.34H7.59009L5.59009 1.34H20.9301C22.03 1.34 22.9301 2.23999 22.9301 3.34V15.34C22.9301 16.24 22.3201 17 21.5001 17.25L19.5901 15.34H20.9301ZM8.93005 11.34H6.93005V13.34H8.93005V11.34ZM18.9301 8.34H12.5901L14.5901 10.34H18.9301V8.34ZM10.9301 5.34H18.9301V7.34H11.5901L10.9301 6.67999V5.34ZM4.93005 16.51L6.1001 15.34H13.9301L8.93005 10.34H6.93005V8.34L4.93005 6.34V16.51Z" fill="black" fill-opacity="0.54"/>
</g>
</svg>
