<svg width="24" height="24" viewBox="0 0 24 24" fill="none" xmlns="http://www.w3.org/2000/svg">
<g id="speaker_notes_24px">
<path id="icon/action/speaker_notes_24px" fill-rule="evenodd" clip-rule="evenodd" d="M4 2H20C21.1 2 22 2.89999 22 4V16C22 17.1 21.1 18 20 18H6L2 22L2.01001 4C2.01001 2.89999 2.90002 2 4 2ZM5.17004 16H20V4H4V17.17L4.57996 16.59L5.17004 16ZM6 12H8V14H6V12ZM8 9H6V11H8V9ZM6 6H8V8H6V6ZM15 12H10V14H15V12ZM10 9H18V11H10V9ZM18 6H10V8H18V6Z" fill="black" fill-opacity="0.54"/>
</g>
</svg>
