<svg width="24" height="24" viewBox="0 0 24 24" fill="none" xmlns="http://www.w3.org/2000/svg">
<g id="speaker_phone_24px">
<path id="icon/communication/speaker_phone_24px" fill-rule="evenodd" clip-rule="evenodd" d="M4.25 4.715C6.23999 2.73502 8.97998 1.505 12 1.505C15.02 1.505 17.76 2.73502 19.75 4.715L18.34 6.125C16.72 4.505 14.47 3.505 12 3.505C9.53003 3.505 7.28003 4.505 5.65997 6.125L4.25 4.715ZM8.42999 9.005L7 7.57501C8.28003 6.29501 10.05 5.505 12 5.505C13.95 5.505 15.72 6.29501 17 7.57501L15.57 9.005C14.66 8.095 13.39 7.52499 12 7.52499C10.61 7.52499 9.34003 8.095 8.42999 9.005ZM9.14001 10.505C8.51001 10.505 8 11.015 8 11.645V21.355C8 21.985 8.51001 22.495 9.14001 22.495H14.85C15.48 22.495 15.99 21.985 15.99 21.355V11.645C16 11.015 15.49 10.515 14.86 10.515L9.14001 10.505ZM9 12.505V20.505H15V12.505H9Z" fill="black" fill-opacity="0.54"/>
</g>
</svg>
