<svg width="24" height="24" viewBox="0 0 24 24" fill="none" xmlns="http://www.w3.org/2000/svg">
<g id="streetview_24px">
<path id="icon/maps/streetview_24px" fill-rule="evenodd" clip-rule="evenodd" d="M17 2C14.2385 2 12 4.23859 12 7C12 9.76141 14.2385 12 17 12C19.7615 12 22 9.76141 22 7C22 4.23859 19.7615 2 17 2ZM11.5601 15.33C11.22 15.6 11 16.03 11 16.5V22H18C19.1 22 20 21.1 20 20V14.02C19.0601 13.69 18.05 13.5 17 13.5C14.97 13.5 13.0699 14.2 11.5601 15.33ZM11.24 4C10.77 4.90002 10.5 5.91998 10.5 7C10.5 8.79999 11.23 10.42 12.41 11.59L2.58997 21.41C2.22998 21.05 2 20.55 2 20V6C2 4.90002 2.90002 4 4 4H11.24Z" fill="black" fill-opacity="0.54"/>
</g>
</svg>
