<svg width="24" height="24" viewBox="0 0 24 24" fill="none" xmlns="http://www.w3.org/2000/svg">
<g id="strikethrough_s_24px">
<path id="icon/editor/strikethrough_s_24px" fill-rule="evenodd" clip-rule="evenodd" d="M6.84998 8.575C6.84998 9.215 6.97998 9.765 7.23999 10.245C7.27148 10.3081 7.31549 10.3774 7.35718 10.4431C7.36835 10.4607 7.37939 10.4781 7.38995 10.495H12C11.36 10.275 10.97 10.045 10.59 9.79501C10.1 9.465 9.84998 9.065 9.84998 8.58501C9.84998 8.355 9.89996 8.135 10 7.925C10.1 7.715 10.25 7.535 10.44 7.375C10.63 7.22501 10.87 7.105 11.16 7.015C11.45 6.925 11.8 6.885 12.19 6.885C12.59 6.885 12.95 6.945 13.25 7.04501C13.55 7.15501 13.8 7.29501 14 7.485C14.2 7.675 14.35 7.895 14.44 8.165C14.54 8.425 14.59 8.705 14.59 9.015H17.6C17.6 8.355 17.47 7.755 17.22 7.205C16.97 6.65501 16.61 6.175 16.14 5.775C15.68 5.375 15.11 5.055 14.45 4.835C13.78 4.605 13.05 4.495 12.24 4.495C11.45 4.495 10.72 4.595 10.06 4.785C9.40997 4.985 8.83997 5.265 8.35999 5.61501C7.88 5.97501 7.50995 6.40501 7.25 6.90501C6.97998 7.415 6.84998 7.965 6.84998 8.575ZM21 11.495V13.495V13.515H17.13C17.19 13.615 17.25 13.735 17.3 13.845C17.51 14.315 17.61 14.855 17.61 15.455C17.61 16.095 17.48 16.665 17.23 17.165C16.98 17.665 16.62 18.095 16.16 18.435C15.7 18.775 15.14 19.035 14.49 19.225C13.84 19.415 13.11 19.505 12.31 19.505C11.83 19.505 11.35 19.455 10.87 19.375C10.39 19.285 9.92999 19.155 9.48999 18.985C9.04999 18.815 8.64001 18.595 8.27002 18.335C7.89001 18.075 7.57001 17.765 7.28998 17.415C7.01001 17.055 6.79999 16.655 6.64001 16.205C6.47998 15.755 6.40002 15.175 6.40002 14.625H9.37C9.37 15.075 9.47998 15.525 9.62 15.835C9.76001 16.145 9.96002 16.395 10.21 16.585C10.46 16.775 10.77 16.915 11.12 17.005C11.47 17.095 11.87 17.135 12.3 17.135C12.68 17.135 13.02 17.085 13.31 17.005C13.6 16.915 13.83 16.805 14.02 16.655C14.21 16.505 14.35 16.325 14.44 16.125C14.53 15.915 14.58 15.695 14.58 15.465C14.58 15.205 14.54 14.975 14.47 14.775C14.39 14.565 14.25 14.375 14.04 14.205C13.83 14.035 13.54 13.865 13.17 13.695C13.0936 13.6645 12.9991 13.6313 12.9009 13.5969C12.8063 13.5637 12.7083 13.5294 12.62 13.495H3V11.495H21Z" fill="black" fill-opacity="0.54"/>
</g>
</svg>
