<svg width="24" height="24" viewBox="0 0 24 24" fill="none" xmlns="http://www.w3.org/2000/svg">
<g id="style_24px">
<path id="icon/image/style_24px" fill-rule="evenodd" clip-rule="evenodd" d="M22.2923 15.7L17.3324 3.73C17.0223 2.98 16.2923 2.52 15.5223 2.5C15.2623 2.5 14.9923 2.53999 14.7323 2.64999L7.36229 5.7C6.61229 6.00999 6.15233 6.73 6.13231 7.5C6.1223 7.77 6.17235 8.03999 6.28234 8.3L11.2423 20.27C11.5524 21.03 12.2923 21.49 13.0724 21.5C13.3324 21.5 13.5924 21.45 13.8424 21.35L21.2024 18.3C22.2224 17.88 22.7124 16.71 22.2923 15.7ZM2.79235 19.4L4.13231 19.96V10.93L1.70226 16.79C1.29235 17.81 1.78234 18.98 2.79235 19.4ZM8.13231 7.53999L13.0923 19.5L20.4424 16.45L15.4923 4.5H15.4823L8.13231 7.53999ZM11.2623 7.75C10.7101 7.75 10.2623 8.19771 10.2623 8.75C10.2623 9.30229 10.7101 9.75 11.2623 9.75C11.8146 9.75 12.2623 9.30229 12.2623 8.75C12.2623 8.19771 11.8146 7.75 11.2623 7.75ZM8.14232 21.5C7.04235 21.5 6.14232 20.6 6.14232 19.5V13.16L9.59227 21.5H8.14232Z" fill="black" fill-opacity="0.54"/>
</g>
</svg>
