<svg width="24" height="24" viewBox="0 0 24 24" fill="none" xmlns="http://www.w3.org/2000/svg">
<g id="surround_sound_24px">
<path id="icon/av/surround_sound_24px" fill-rule="evenodd" clip-rule="evenodd" d="M4 4H20C21.1 4 22 4.9 22 6V18C22 19.1 21.1 20 20 20H4C2.90002 20 2 19.1 2 18V6C2 4.9 2.90002 4 4 4ZM4 6V18H20V6H4ZM8.28998 15.71C7.27002 14.69 6.75 13.35 6.75 12C6.75 10.65 7.27002 9.31001 8.28003 8.28001L7.04999 7.05C5.67999 8.41 5 10.21 5 12C5 13.79 5.67999 15.59 7.06 16.94L8.28998 15.71ZM15.5 12C15.5 13.93 13.93 15.5 12 15.5C10.07 15.5 8.5 13.93 8.5 12C8.5 10.07 10.07 8.5 12 8.5C13.93 8.5 15.5 10.07 15.5 12ZM12 10.5C12.83 10.5 13.5 11.17 13.5 12C13.5 12.83 12.83 13.5 12 13.5C11.17 13.5 10.5 12.83 10.5 12C10.5 11.17 11.17 10.5 12 10.5ZM16.95 16.95L15.72 15.72C16.73 14.69 17.25 13.35 17.25 12C17.25 10.65 16.73 9.31 15.71 8.29L16.94 7.06C18.32 8.41 19 10.21 19 12C19 13.79 18.32 15.59 16.95 16.95Z" fill="black" fill-opacity="0.54"/>
</g>
</svg>
