<svg width="24" height="24" viewBox="0 0 24 24" fill="none" xmlns="http://www.w3.org/2000/svg">
<g id="sync_disabled_24px">
<path id="icon/notification/sync_disabled_24px" fill-rule="evenodd" clip-rule="evenodd" d="M3.31995 4.73L4.72998 3.32L20.6799 19.27L19.2699 20.68L16.6899 18.1C16.0099 18.52 15.2599 18.85 14.46 19.06V16.97C14.72 16.87 14.97 16.76 15.22 16.63L7.13989 8.55C6.70996 9.38 6.45996 10.32 6.45996 11.32C6.45996 12.98 7.13989 14.47 8.21997 15.56L10.46 13.32V19.32H4.45996L6.81995 16.96C5.37 15.52 4.45996 13.53 4.45996 11.32C4.45996 9.76 4.90991 8.31 5.67993 7.09L3.31995 4.73ZM20.46 11.32C20.46 9.11 19.5499 7.12 18.1 5.68L20.46 3.32H14.46V9.32L16.7 7.08C17.7799 8.17 18.46 9.66 18.46 11.32C18.46 12.17 18.27 12.97 17.95 13.7L19.45 15.2C20.09 14.06 20.46 12.73 20.46 11.32ZM10.46 5.67V3.58C9.79993 3.75 9.16992 4.01 8.57996 4.33L10.08 5.83C10.145 5.805 10.2075 5.7775 10.27 5.75C10.3325 5.7225 10.395 5.695 10.46 5.67Z" fill="black" fill-opacity="0.54"/>
</g>
</svg>
