<svg width="24" height="24" viewBox="0 0 24 24" fill="none" xmlns="http://www.w3.org/2000/svg">
<g id="tag_faces_24px">
<path id="icon/image/tag_faces_24px" fill-rule="evenodd" clip-rule="evenodd" d="M11.99 2C6.46997 2 2 6.48001 2 12C2 17.52 6.46997 22 11.99 22C17.52 22 22 17.52 22 12C22 6.48001 17.52 2 11.99 2ZM12 20C7.58002 20 4 16.42 4 12C4 7.57999 7.58002 4 12 4C16.42 4 20 7.57999 20 12C20 16.42 16.42 20 12 20ZM17 9.5C17 10.33 16.33 11 15.5 11C14.67 11 14 10.33 14 9.5C14 8.67001 14.67 8 15.5 8C16.33 8 17 8.67001 17 9.5ZM8.5 11C9.33002 11 10 10.33 10 9.5C10 8.67001 9.33002 8 8.5 8C7.66998 8 7 8.67001 7 9.5C7 10.33 7.66998 11 8.5 11ZM17.11 14C16.31 16.04 14.33 17.5 12 17.5C9.67004 17.5 7.69 16.04 6.89001 14H17.11Z" fill="black" fill-opacity="0.54"/>
</g>
</svg>
