<svg width="24" height="24" viewBox="0 0 24 24" fill="none" xmlns="http://www.w3.org/2000/svg">
<g id="time_to_leave_24px">
<path id="icon/notification/time_to_leave_24px" fill-rule="evenodd" clip-rule="evenodd" d="M18.92 5.01C18.72 4.42 18.16 4 17.5 4H6.5C5.83997 4 5.29004 4.42 5.07996 5.01L3 11V19C3 19.55 3.44995 20 4 20H5C5.55005 20 6 19.55 6 19V18H18V19C18 19.55 18.45 20 19 20H20C20.55 20 21 19.55 21 19V11L18.92 5.01ZM6.8501 6H17.14L18.1801 9H5.81006L6.8501 6ZM5 16H19V11.34L18.89 11H5.12L5 11.34V16ZM7.5 12C6.67163 12 6 12.6716 6 13.5C6 14.3284 6.67163 15 7.5 15C8.32837 15 9 14.3284 9 13.5C9 12.6716 8.32837 12 7.5 12ZM15 13.5C15 12.6716 15.6716 12 16.5 12C17.3284 12 18 12.6716 18 13.5C18 14.3284 17.3284 15 16.5 15C15.6716 15 15 14.3284 15 13.5Z" fill="black" fill-opacity="0.54"/>
</g>
</svg>
