<svg width="24" height="24" viewBox="0 0 24 24" fill="none" xmlns="http://www.w3.org/2000/svg">
<g id="timer_10_24px">
<path id="icon/image/timer_10_24px" fill-rule="evenodd" clip-rule="evenodd" d="M13.8086 7.04498C13.4689 6.64499 13.0592 6.345 12.5796 6.16498C12.11 5.98499 11.5704 5.89499 10.9908 5.89499C10.4114 5.89499 9.88184 5.98499 9.40222 6.16498C8.92261 6.345 8.51294 6.63498 8.17322 7.04498C7.8335 7.45499 7.57373 7.97498 7.38391 8.63498C7.2041 9.285 7.10413 10.085 7.10413 11.025V12.945C7.10413 13.885 7.19409 14.685 7.38391 15.335C7.57373 15.995 7.8335 16.525 8.18323 16.935C8.52295 17.345 8.93262 17.645 9.41223 17.825C9.89185 18.005 10.4214 18.105 11.0009 18.105C11.5903 18.105 12.12 18.015 12.5896 17.825C13.0692 17.645 13.4689 17.345 13.8086 16.935C14.1483 16.525 14.4081 15.995 14.5879 15.335C14.7677 14.685 14.8677 13.885 14.8677 12.945V11.025C14.8677 10.085 14.7777 9.285 14.5879 8.63498C14.4081 7.97498 14.1483 7.44498 13.8086 7.04498ZM0 9.39499V7.715L4.74609 5.995H4.99585V17.995H2.99756V8.39499L0 9.39499ZM23.1306 13.625C23.4104 13.835 23.6202 14.085 23.7601 14.365C23.91 14.645 23.98 14.985 24 15.385C24 15.775 23.92 16.125 23.7501 16.445C23.5803 16.765 23.3505 17.045 23.0408 17.275C22.731 17.505 22.3613 17.685 21.9316 17.815C21.5021 17.945 21.0225 18.005 20.4929 18.005C19.8933 18.005 19.3738 17.925 18.9142 17.755C18.4546 17.585 18.0748 17.365 17.7651 17.095C17.4554 16.815 17.2256 16.505 17.0657 16.165C16.9059 15.825 16.8259 15.475 16.8259 15.115H18.7144C18.7244 15.375 18.7843 15.605 18.8942 15.785C19.0042 15.965 19.134 16.115 19.3038 16.225C19.4637 16.335 19.6536 16.415 19.8634 16.465C20.0732 16.525 20.2831 16.545 20.5028 16.545C21.0125 16.545 21.4021 16.455 21.6719 16.255C21.9417 16.055 22.0715 15.805 22.0715 15.485C22.0715 15.345 22.0515 15.215 22.0016 15.095C21.9517 14.975 21.8617 14.855 21.7318 14.755C21.5919 14.655 21.4021 14.555 21.1624 14.465C20.9225 14.375 20.6028 14.285 20.2131 14.205C19.7535 14.105 19.3239 13.985 18.9442 13.845C18.5645 13.695 18.2347 13.525 17.965 13.315C17.6852 13.105 17.4753 12.865 17.3256 12.585C17.1757 12.315 17.0957 11.985 17.0957 11.625C17.0957 11.265 17.1656 10.935 17.3256 10.615C17.4854 10.295 17.7052 10.015 17.995 9.77499C18.2847 9.535 18.6444 9.345 19.0541 9.20499C19.4637 9.065 19.9333 8.995 20.4429 8.995C20.9824 8.995 21.472 9.065 21.9017 9.215C22.3313 9.36499 22.691 9.55499 22.9908 9.80499C23.2905 10.055 23.5204 10.345 23.6802 10.685C23.8401 11.025 23.92 11.385 23.92 11.775H21.9717C21.9717 11.605 21.9316 11.445 21.8717 11.285C21.8018 11.125 21.7119 10.985 21.5819 10.865C21.452 10.745 21.2922 10.645 21.1024 10.575C20.9125 10.505 20.6927 10.465 20.4429 10.465C20.2031 10.465 19.9833 10.495 19.8035 10.555C19.6237 10.615 19.4738 10.695 19.3539 10.795C19.2339 10.885 19.144 11.005 19.0841 11.135C19.024 11.265 18.9941 11.405 18.9941 11.545C18.9941 11.695 19.024 11.825 19.0741 11.935C19.124 12.045 19.214 12.145 19.3539 12.235C19.4937 12.325 19.6736 12.405 19.9033 12.485C20.1332 12.565 20.423 12.645 20.7726 12.715C21.2722 12.825 21.7218 12.955 22.1215 13.095C22.5212 13.235 22.851 13.415 23.1306 13.625ZM12.7693 14.745C12.8492 14.325 12.8892 13.815 12.8892 13.215H12.8992V10.705C12.8992 10.105 12.8492 9.59497 12.7693 9.18497C12.6893 8.77496 12.5594 8.44498 12.3997 8.19498C12.2397 7.93497 12.0399 7.75497 11.8002 7.64499C11.5703 7.53497 11.3005 7.47498 10.9908 7.47498C10.691 7.47498 10.4213 7.53497 10.1815 7.64499C9.94165 7.76498 9.74182 7.94498 9.58191 8.19498C9.41211 8.45499 9.29224 8.78497 9.20227 9.19498C9.1123 9.60498 9.07239 10.115 9.07239 10.715V13.215C9.07239 13.815 9.1123 14.325 9.20227 14.745C9.29224 15.165 9.42212 15.505 9.58191 15.765C9.74182 16.025 9.94165 16.215 10.1815 16.335C10.4213 16.455 10.701 16.515 11.0007 16.515C11.3105 16.515 11.5903 16.455 11.8201 16.335C12.0499 16.215 12.2498 16.025 12.4095 15.765C12.5695 15.505 12.6893 15.165 12.7693 14.745Z" fill="black" fill-opacity="0.54"/>
</g>
</svg>
