<svg width="24" height="24" viewBox="0 0 24 24" fill="none" xmlns="http://www.w3.org/2000/svg">
<g id="timer_3_24px">
<path id="icon/image/timer_3_24px" fill-rule="evenodd" clip-rule="evenodd" d="M10.3401 12.33C10.6001 12.52 10.8 12.74 10.9601 12.98C11.12 13.23 11.23 13.49 11.3101 13.74C11.38 14.02 11.42 14.31 11.42 14.6C11.42 15.15 11.3201 15.65 11.12 16.08C10.92 16.52 10.64 16.88 10.28 17.18C9.93005 17.48 9.51001 17.71 9.02002 17.86C8.53003 18.01 8.01001 18.09 7.44006 18.09C6.92004 18.09 6.43005 18.02 5.96008 17.88C5.48999 17.74 5.08008 17.53 4.72009 17.25C4.35999 16.97 4.07007 16.62 3.85999 16.2C3.65002 15.78 3.54004 15.3 3.54004 14.75H5.53003C5.53003 15.01 5.58008 15.25 5.67004 15.47C5.76001 15.69 5.89001 15.87 6.06006 16.03C6.22998 16.19 6.43005 16.31 6.67004 16.39C6.91003 16.48 7.18005 16.52 7.47009 16.52C8.08008 16.52 8.57007 16.36 8.92004 16.03C9.27002 15.7 9.45007 15.23 9.45007 14.61C9.45007 14.28 9.39001 13.98 9.29004 13.74C9.19006 13.49 9.04004 13.29 8.8501 13.13C8.66003 12.97 8.43005 12.86 8.16003 12.78C7.89001 12.71 7.59009 12.67 7.25 12.67H6.07007V11.1H7.23999C7.58008 11.1 7.88 11.06 8.13 10.97C8.38 10.88 8.59009 10.76 8.76001 10.6C8.93005 10.44 9.06006 10.25 9.14001 10.03C9.22009 9.81 9.26001 9.56 9.26001 9.29001C9.26001 8.72 9.12 8.28 8.82007 7.97C8.52002 7.66 8.07007 7.5 7.46008 7.5C7.19006 7.5 6.95007 7.54001 6.72998 7.62C6.51001 7.70001 6.32007 7.81 6.15002 7.95001C5.98999 8.09 5.85999 8.26999 5.77002 8.47C5.68005 8.67001 5.63 8.89999 5.63 9.16H3.65002C3.65002 8.70001 3.73999 8.26001 3.94006 7.87C4.12 7.47 4.39001 7.13 4.72009 6.84C5.05005 6.55002 5.45007 6.32001 5.92004 6.14999C6.38 5.98999 6.89001 5.91 7.44006 5.91C8 5.91 8.52002 5.98001 8.97009 6.11002C9.44006 6.25 9.84009 6.47 10.17 6.75C10.51 7.04001 10.77 7.39001 10.9501 7.81C11.14 8.23001 11.23 8.72 11.23 9.26999C11.23 9.51001 11.2001 9.76001 11.12 10C11.05 10.25 10.9301 10.48 10.78 10.71C10.63 10.94 10.4401 11.15 10.2101 11.35C9.97998 11.55 9.71008 11.71 9.41003 11.85C9.78003 11.98 10.0901 12.14 10.3401 12.33ZM19.5901 13.64C19.87 13.85 20.0801 14.1 20.22 14.38C20.37 14.66 20.4401 15 20.4601 15.4C20.4601 15.79 20.38 16.14 20.2101 16.46C20.04 16.78 19.8101 17.06 19.5 17.29C19.1901 17.52 18.8201 17.7 18.39 17.83C17.9601 17.96 17.48 18.02 16.9501 18.02C16.35 18.02 15.8301 17.94 15.37 17.77C14.91 17.6 14.53 17.38 14.22 17.11C13.91 16.83 13.6801 16.52 13.52 16.18C13.36 15.84 13.28 15.49 13.28 15.13H15.17C15.1801 15.39 15.24 15.62 15.35 15.8C15.4601 15.98 15.5901 16.13 15.76 16.24C15.92 16.35 16.11 16.43 16.3201 16.48C16.53 16.54 16.74 16.56 16.9601 16.56C17.47 16.56 17.86 16.47 18.13 16.27C18.4 16.07 18.53 15.82 18.53 15.5C18.53 15.36 18.51 15.23 18.4601 15.11C18.41 14.99 18.3201 14.87 18.1901 14.77C18.05 14.67 17.86 14.57 17.62 14.48C17.38 14.39 17.0601 14.3 16.67 14.22C16.2101 14.12 15.78 14 15.4 13.86C15.02 13.71 14.6901 13.54 14.42 13.33C14.15 13.12 13.9301 12.88 13.78 12.6C13.63 12.32 13.55 12 13.55 11.64C13.55 11.28 13.62 10.95 13.78 10.63C13.9401 10.31 14.16 10.03 14.4501 9.79001C14.74 9.55002 15.1 9.36002 15.51 9.22C15.92 9.08002 16.39 9.01001 16.9 9.01001C17.4401 9.01001 17.9301 9.08002 18.36 9.23001C18.79 9.38 19.15 9.57001 19.4501 9.82001C19.75 10.07 19.98 10.36 20.14 10.7C20.3 11.04 20.38 11.4 20.38 11.79H18.4301C18.4301 11.62 18.39 11.46 18.3301 11.3C18.26 11.14 18.17 11 18.04 10.88C17.91 10.76 17.75 10.66 17.5601 10.59C17.37 10.52 17.15 10.48 16.9 10.48C16.66 10.48 16.4401 10.51 16.26 10.57C16.0801 10.63 15.9301 10.71 15.8101 10.81C15.6901 10.9 15.6 11.02 15.54 11.15C15.48 11.28 15.4501 11.41 15.4501 11.56C15.4501 11.71 15.48 11.84 15.53 11.95C15.5801 12.06 15.67 12.16 15.8101 12.25C15.9501 12.34 16.13 12.42 16.36 12.5C16.5901 12.58 16.88 12.66 17.23 12.73C17.73 12.84 18.1801 12.97 18.5801 13.11C18.98 13.25 19.3101 13.43 19.5901 13.64Z" fill="black" fill-opacity="0.54"/>
</g>
</svg>
