<svg width="24" height="24" viewBox="0 0 24 24" fill="none" xmlns="http://www.w3.org/2000/svg">
<g id="timelapse_24px">
<path id="icon/image/timelapse_24px" fill-rule="evenodd" clip-rule="evenodd" d="M12 2C6.47998 2 2 6.48001 2 12C2 17.52 6.47998 22 12 22C17.52 22 22 17.52 22 12C22 6.48001 17.52 2 12 2ZM16.24 7.76001C15.07 6.59 13.54 6 12 6V12L7.76001 16.24C10.1 18.58 13.9 18.58 16.25 16.24C18.59 13.9 18.59 10.1 16.24 7.76001ZM4 12C4 16.42 7.58002 20 12 20C16.42 20 20 16.42 20 12C20 7.57999 16.42 4 12 4C7.58002 4 4 7.57999 4 12Z" fill="black" fill-opacity="0.54"/>
</g>
</svg>
