<svg width="24" height="24" viewBox="0 0 24 24" fill="none" xmlns="http://www.w3.org/2000/svg">
<g id="toggle_off_24px">
<path id="icon/toggle/toggle_off_24px" fill-rule="evenodd" clip-rule="evenodd" d="M17 6H7C3.68994 6 1 8.69 1 12C1 15.31 3.68994 18 7 18H17C20.3101 18 23 15.31 23 12C23 8.69 20.3101 6 17 6ZM17 16H7C4.79004 16 3 14.21 3 12C3 9.78998 4.79004 8 7 8H17C19.21 8 21 9.78998 21 12C21 14.21 19.21 16 17 16ZM4 12C4 10.34 5.33997 9 7 9C8.66003 9 10 10.34 10 12C10 13.66 8.66003 15 7 15C5.33997 15 4 13.66 4 12Z" fill="black" fill-opacity="0.54"/>
</g>
</svg>
