<svg width="43" height="14" viewBox="0 0 43 14" fill="none" xmlns="http://www.w3.org/2000/svg">
<path id="Toggle" d="M8.20312 2.44141H5.09961V11H3.38379V2.44141H0.307617V1.04688H8.20312V2.44141ZM7.77207 7.2334C7.77207 6.50879 7.91563 5.8571 8.20273 5.27832C8.48984 4.69499 8.89316 4.24837 9.4127 3.93848C9.93223 3.62402 10.5292 3.4668 11.2037 3.4668C12.2018 3.4668 13.0107 3.78809 13.6305 4.43066C14.2548 5.07324 14.5921 5.92546 14.6422 6.9873L14.649 7.37695C14.649 8.10612 14.5077 8.75781 14.2252 9.33203C13.9472 9.90625 13.5462 10.3506 13.0221 10.665C12.5025 10.9795 11.901 11.1367 11.2174 11.1367C10.1738 11.1367 9.3375 10.7904 8.70859 10.0977C8.08424 9.40039 7.77207 8.47298 7.77207 7.31543V7.2334ZM9.4332 7.37695C9.4332 8.13802 9.59043 8.73503 9.90488 9.16797C10.2193 9.59635 10.6568 9.81055 11.2174 9.81055C11.7779 9.81055 12.2132 9.5918 12.523 9.1543C12.8375 8.7168 12.9947 8.0765 12.9947 7.2334C12.9947 6.486 12.8329 5.89355 12.5094 5.45605C12.1904 5.01855 11.7551 4.7998 11.2037 4.7998C10.6614 4.7998 10.2307 5.01628 9.91172 5.44922C9.59271 5.8776 9.4332 6.52018 9.4332 7.37695ZM15.9133 7.24707C15.9133 6.09863 16.1822 5.18262 16.7199 4.49902C17.2622 3.81087 17.98 3.4668 18.8732 3.4668C19.7163 3.4668 20.3794 3.76074 20.8625 4.34863L20.9377 3.60352H22.4348V10.7744C22.4348 11.7451 22.1317 12.5107 21.5256 13.0713C20.924 13.6318 20.1105 13.9121 19.0852 13.9121C18.5428 13.9121 18.0119 13.7982 17.4924 13.5703C16.9774 13.347 16.5855 13.0531 16.3166 12.6885L17.1027 11.6904C17.6132 12.2965 18.2421 12.5996 18.9895 12.5996C19.5409 12.5996 19.9761 12.4492 20.2951 12.1484C20.6141 11.8522 20.7736 11.4147 20.7736 10.8359V10.3369C20.2951 10.8701 19.6571 11.1367 18.8596 11.1367C17.9937 11.1367 17.285 10.7926 16.7336 10.1045C16.1867 9.41634 15.9133 8.46387 15.9133 7.24707ZM17.5676 7.39062C17.5676 8.13346 17.718 8.71908 18.0187 9.14746C18.3241 9.57129 18.7456 9.7832 19.2834 9.7832C19.9533 9.7832 20.4501 9.49609 20.7736 8.92188V5.66797C20.4592 5.10742 19.967 4.82715 19.2971 4.82715C18.7502 4.82715 18.3241 5.04362 18.0187 5.47656C17.718 5.90951 17.5676 6.54753 17.5676 7.39062ZM24.0066 7.24707C24.0066 6.09863 24.2755 5.18262 24.8133 4.49902C25.3556 3.81087 26.0734 3.4668 26.9666 3.4668C27.8097 3.4668 28.4728 3.76074 28.9559 4.34863L29.0311 3.60352H30.5281V10.7744C30.5281 11.7451 30.2251 12.5107 29.6189 13.0713C29.0174 13.6318 28.2039 13.9121 27.1785 13.9121C26.6362 13.9121 26.1053 13.7982 25.5857 13.5703C25.0708 13.347 24.6788 13.0531 24.41 12.6885L25.1961 11.6904C25.7065 12.2965 26.3354 12.5996 27.0828 12.5996C27.6342 12.5996 28.0695 12.4492 28.3885 12.1484C28.7075 11.8522 28.867 11.4147 28.867 10.8359V10.3369C28.3885 10.8701 27.7505 11.1367 26.9529 11.1367C26.087 11.1367 25.3784 10.7926 24.827 10.1045C24.2801 9.41634 24.0066 8.46387 24.0066 7.24707ZM25.6609 7.39062C25.6609 8.13346 25.8113 8.71908 26.1121 9.14746C26.4174 9.57129 26.839 9.7832 27.3768 9.7832C28.0467 9.7832 28.5434 9.49609 28.867 8.92188V5.66797C28.5525 5.10742 28.0604 4.82715 27.3904 4.82715C26.8436 4.82715 26.4174 5.04362 26.1121 5.47656C25.8113 5.90951 25.6609 6.54753 25.6609 7.39062ZM34.1576 11H32.4965V0.5H34.1576V11ZM39.3799 11.1367C38.3271 11.1367 37.4727 10.8063 36.8164 10.1455C36.1647 9.48014 35.8389 8.59603 35.8389 7.49316V7.28809C35.8389 6.5498 35.9801 5.89128 36.2627 5.3125C36.5498 4.72917 36.9508 4.27572 37.4658 3.95215C37.9808 3.62858 38.555 3.4668 39.1885 3.4668C40.1956 3.4668 40.9727 3.78809 41.5195 4.43066C42.071 5.07324 42.3467 5.98242 42.3467 7.1582V7.82812H37.5137C37.5638 8.4388 37.7666 8.92188 38.1221 9.27734C38.4821 9.63281 38.9333 9.81055 39.4756 9.81055C40.2367 9.81055 40.8564 9.50293 41.335 8.8877L42.2305 9.74219C41.9342 10.1842 41.5378 10.5283 41.041 10.7744C40.5488 11.016 39.9951 11.1367 39.3799 11.1367ZM39.1816 4.7998C38.7259 4.7998 38.3568 4.95931 38.0742 5.27832C37.7962 5.59733 37.6185 6.04167 37.541 6.61133H40.7061V6.48828C40.6696 5.93229 40.5215 5.51302 40.2617 5.23047C40.002 4.94336 39.6419 4.7998 39.1816 4.7998Z" fill="#5F6368"/>
</svg>
