<svg width="24" height="24" viewBox="0 0 24 24" fill="none" xmlns="http://www.w3.org/2000/svg">
<g id="toll_24px">
<path id="icon/action/toll_24px" fill-rule="evenodd" clip-rule="evenodd" d="M15 4C10.58 4 7 7.58002 7 12C7 16.42 10.58 20 15 20C19.42 20 23 16.42 23 12C23 7.58002 19.42 4 15 4ZM15 18C11.6899 18 9 15.31 9 12C9 8.69 11.6899 6 15 6C18.3101 6 21 8.69 21 12C21 15.31 18.3101 18 15 18ZM7 6.35004C4.67004 7.16998 3 9.39001 3 12C3 14.61 4.67004 16.83 7 17.65V19.74C3.55005 18.85 1 15.73 1 12C1 8.27002 3.55005 5.15002 7 4.26001V6.35004Z" fill="black" fill-opacity="0.54"/>
</g>
</svg>
