<svg width="24" height="24" viewBox="0 0 24 24" fill="none" xmlns="http://www.w3.org/2000/svg">
<g id="touch_app_24px">
<path id="icon/action/touch_app_24px" fill-rule="evenodd" clip-rule="evenodd" d="M18.2638 12.94L15.0238 11.32C16.3138 10.32 17.1438 8.76001 17.1438 7C17.1438 3.96997 14.6738 1.5 11.6438 1.5C8.61389 1.5 6.1438 3.96997 6.1438 7C6.1438 9.13 7.36389 10.98 9.1438 11.89V15.15L7.30383 14.76L7.20386 14.74C7.10388 14.72 7.00391 14.71 6.88391 14.71C6.35388 14.71 5.85388 14.92 5.47388 15.3L4.07385 16.72L9.16382 21.81C9.59387 22.25 10.1938 22.5 10.8138 22.5H17.1139C18.0939 22.5 18.9238 21.8 19.0839 20.83L19.8839 16.12C20.1039 14.82 19.4539 13.54 18.2638 12.94ZM17.9138 15.79L17.1138 20.5H10.8138C10.7238 20.5 10.6438 20.46 10.5739 20.4L6.8938 16.72L11.1438 17.61V7C11.1438 6.71997 11.3638 6.5 11.6438 6.5C11.9238 6.5 12.1438 6.71997 12.1438 7V13H13.9038L17.3638 14.73C17.7638 14.93 17.9838 15.36 17.9138 15.79ZM11.6438 3.5C9.71375 3.5 8.1438 5.07001 8.1438 7C8.1438 7.95001 8.5238 8.81 9.1438 9.44V7C9.1438 5.62 10.2638 4.5 11.6438 4.5C13.0238 4.5 14.1438 5.62 14.1438 7V9.44C14.7638 8.81 15.1438 7.95001 15.1438 7C15.1438 5.07001 13.5739 3.5 11.6438 3.5Z" fill="black" fill-opacity="0.54"/>
</g>
</svg>
