<svg width="24" height="24" viewBox="0 0 24 24" fill="none" xmlns="http://www.w3.org/2000/svg">
<g id="tv_off_24px">
<path id="icon/notification/tv_off_24px" fill-rule="evenodd" clip-rule="evenodd" d="M21 17.88V7H10.12L8.12 5H10.5801L7.30005 1.7L8 1L12 5L16 1L16.7101 1.7L13.42 5H21C22.1101 5 23 5.89 23 7V19C23 19.26 22.9401 19.5 22.8501 19.73L21 17.88ZM21.72 21.73L20.46 23V22.99L21.72 21.73ZM2.41003 2.13L2.27002 2.27L1 3.54L2.53003 5.07C1.65002 5.28 1 6.06 1 7V19C1 20.1 1.90002 21 3 21H18.46L20.45 22.99L21.71 21.73L21.86 21.58L2.41003 2.13ZM3 7V19H16.46L4.45996 7H3Z" fill="black" fill-opacity="0.54"/>
</g>
</svg>
