<svg width="24" height="24" viewBox="0 0 24 24" fill="none" xmlns="http://www.w3.org/2000/svg">
<g id="unsubscribe_24px">
<path id="icon/communication/unsubscribe_24px" fill-rule="evenodd" clip-rule="evenodd" d="M20.4884 5.49817V14.5381C21.2684 15.3282 21.6784 16.4781 21.4284 17.7181C21.1584 19.0582 20.0684 20.1581 18.7284 20.4282C16.6484 20.8481 14.8284 19.4182 14.5484 17.4982H4.49841C3.39844 17.4982 2.49841 16.5981 2.49841 15.4982V5.49817C2.49841 4.39819 3.39844 3.49817 4.49841 3.49817H18.4884C19.5884 3.49817 20.4884 4.39819 20.4884 5.49817ZM11.4984 8.99817L18.4884 5.49817H4.49841L11.4984 8.99817ZM14.8484 15.4982H4.49841V7.49817L11.4984 10.9982L18.4984 7.49817V13.5482C18.4625 13.5437 18.4261 13.5387 18.3893 13.5336L18.3885 13.5335C18.2615 13.5162 18.13 13.4982 17.9984 13.4982C16.6084 13.4982 15.4084 14.3182 14.8484 15.4982ZM15.9984 16.4982V17.4982H19.9984V16.4982H15.9984Z" fill="black" fill-opacity="0.54"/>
</g>
</svg>
