<svg width="24" height="24" viewBox="0 0 24 24" fill="none" xmlns="http://www.w3.org/2000/svg">
<g id="update_24px">
<path id="icon/action/update_24px" fill-rule="evenodd" clip-rule="evenodd" d="M21 3V10H14L16.95 7.04999C15.6801 5.78998 13.9301 5 12 5C8.14001 5 5 8.14001 5 12C5 15.86 8.14001 19 12 19C15.86 19 19 15.86 19 12H21C21 16.97 16.97 21 12 21C7.03003 21 3 16.97 3 12C3 7.03003 7.03003 3 12 3C14.49 3 16.74 4.01001 18.36 5.64001L21 3ZM11 13V8H12.5V12.15L16.02 14.24L15.25 15.52L11 13Z" fill="black" fill-opacity="0.54"/>
</g>
</svg>
