<svg width="24" height="24" viewBox="0 0 24 24" fill="none" xmlns="http://www.w3.org/2000/svg">
<g id="usb_24px">
<path id="icon/device/usb_24px" d="M15.1 7.39999V11.4H16.1V13.4H13.1V5.39999H15.1L12.1 1.39999L9.09999 5.39999H11.1V13.4H8.09999V11.33C8.79999 10.96 9.29999 10.25 9.29999 9.39999C9.29999 8.18999 8.30999 7.19999 7.09999 7.19999C5.88999 7.19999 4.89999 8.18999 4.89999 9.39999C4.89999 10.25 5.39999 10.96 6.09999 11.33V13.4C6.09999 14.51 6.98999 15.4 8.09999 15.4H11.1V18.45C10.39 18.82 9.89999 19.55 9.89999 20.4C9.89999 21.62 10.89 22.6 12.1 22.6C13.31 22.6 14.3 21.62 14.3 20.4C14.3 19.55 13.81 18.82 13.1 18.45V15.4H16.1C17.21 15.4 18.1 14.51 18.1 13.4V11.4H19.1V7.39999H15.1Z" fill="black" fill-opacity="0.54"/>
</g>
</svg>
