<svg width="24" height="24" viewBox="0 0 24 24" fill="none" xmlns="http://www.w3.org/2000/svg">
<g id="voice_over_off_24px">
<path id="icon/action/voice_over_off_24px" fill-rule="evenodd" clip-rule="evenodd" d="M18.4423 4.13L20.0723 2.5C23.9323 6.48999 23.9623 12.44 20.2223 16.33L18.5823 14.69C21.2023 11.52 21.1622 7.09998 18.4423 4.13ZM15.0823 7.54999L16.7623 5.85999C18.7423 8.01001 18.7722 10.97 16.8723 12.99L15.1722 11.29C15.9122 10.13 15.8823 8.67999 15.0823 7.54999ZM9.43237 5.53998L12.9624 9.07001C12.7623 7.20996 11.2924 5.73999 9.43237 5.53998ZM3.00232 4.76996L4.41235 3.35999L21.1423 20.09L19.7323 21.5L16.7123 18.48C16.8923 18.8 17.0023 19.13 17.0023 19.5V21.5H1.00232V19.5C1.00232 16.84 6.33228 15.5 9.00232 15.5C10.7823 15.5 13.7423 16.1 15.5123 17.28L11.1123 12.88C10.5023 13.27 9.78235 13.5 9.00232 13.5C6.79236 13.5 5.00232 11.71 5.00232 9.5C5.00232 8.71997 5.2323 8 5.62231 7.39001L3.00232 4.76996ZM3.00232 19.5C3.22229 18.78 6.31238 17.5 9.00232 17.5C11.7023 17.5 14.8024 18.79 15.0023 19.5H3.00232ZM7.00232 9.5C7.00232 10.6 7.90234 11.5 9.00232 11.5C9.22229 11.5 9.42236 11.46 9.62231 11.39L7.1123 8.88C7.04236 9.08002 7.00232 9.28003 7.00232 9.5Z" fill="black" fill-opacity="0.54"/>
</g>
</svg>
