<svg width="24" height="24" viewBox="0 0 24 24" fill="none" xmlns="http://www.w3.org/2000/svg">
<g id="waves_24px">
<path id="icon/content/waves_24px" fill-rule="evenodd" clip-rule="evenodd" d="M19.95 4.46001C19.2 4.08 18.37 3.66 17 3.66C15.63 3.66 14.8 4.08 14.05 4.46001L13.9703 4.49931C13.3558 4.80258 12.8342 5.06 12 5.06C11.1 5.06 10.6 4.81 9.95001 4.46001L9.87183 4.42137C9.14255 4.06073 8.33221 3.66 7 3.66C5.62881 3.66 4.81049 4.07466 4.06436 4.45273L4.04999 4.46001L4.02454 4.47293C3.38632 4.79703 2.8685 5.06 2 5.06V6.99001C3.32907 6.99001 4.17355 6.57323 4.91507 6.20724L4.95001 6.19L4.97552 6.17705C5.61371 5.85297 6.13153 5.59 7 5.59C7.88 5.59 8.39999 5.84 9.04999 6.19L9.06436 6.19728C9.81049 6.57535 10.6288 6.99001 12 6.99001C13.3322 6.99001 14.1425 6.58931 14.8717 6.22868L14.95 6.19L15.0298 6.15068C15.6443 5.84741 16.1658 5.59 17 5.59C17.9 5.59 18.4 5.84 19.05 6.19C19.8 6.57001 20.63 6.99001 22 6.99001V5.04001C21.1 5.04001 20.6 4.79001 19.95 4.46001ZM14.0848 13.3228C14.8264 12.9568 15.6709 12.54 17 12.54C18.35 12.54 19.2 12.96 19.95 13.34C20.6 13.69 21.1 13.94 22 13.94V15.89C20.63 15.89 19.8 15.47 19.05 15.09C18.4 14.74 17.9 14.49 17 14.49C16.1 14.49 15.6 14.74 14.95 15.09L14.8717 15.1287C14.1425 15.4893 13.3322 15.89 12 15.89C10.6289 15.89 9.81055 15.4754 9.06445 15.0973L9.04999 15.09C8.39999 14.74 7.89999 14.49 7 14.49C6.10001 14.49 5.60001 14.74 4.95001 15.09L4.91507 15.1073C4.17355 15.4732 3.32907 15.89 2 15.89V13.94C2.83575 13.94 3.34677 13.6875 3.95282 13.388L4.04999 13.34L4.12817 13.3014C4.85745 12.9407 5.66779 12.54 7 12.54C8.37119 12.54 9.18951 12.9547 9.93564 13.3327L9.95001 13.34C10.6 13.69 11.1 13.94 12 13.94C12.8342 13.94 13.3558 13.6826 13.9703 13.3793L14.05 13.34L14.0848 13.3228ZM14.05 17.79C14.8 17.41 15.65 16.99 17 16.99C18.35 16.99 19.2 17.41 19.95 17.79C20.6 18.14 21.1 18.39 22 18.39V20.34C20.63 20.34 19.8 19.92 19.05 19.54C18.4 19.19 17.9 18.94 17 18.94C16.1318 18.94 15.6022 19.2089 14.9541 19.5379L14.95 19.54L14.9355 19.5473C14.1895 19.9254 13.3711 20.34 12 20.34C10.6289 20.34 9.81055 19.9254 9.06445 19.5473L9.04999 19.54C8.39999 19.19 7.88 18.94 7 18.94C6.13153 18.94 5.61371 19.203 4.97552 19.5271L4.95001 19.54C4.20001 19.92 3.35001 20.34 2 20.34V18.39C2.8685 18.39 3.38632 18.127 4.02454 17.8029L4.04999 17.79L4.06436 17.7827C4.81049 17.4047 5.62881 16.99 7 16.99C8.37119 16.99 9.18951 17.4047 9.93564 17.7827L9.95001 17.79C10.6 18.14 11.1 18.39 12 18.39C12.8682 18.39 13.3978 18.1211 14.046 17.792L14.05 17.79ZM14.0848 8.8728C14.8264 8.50681 15.6709 8.09 17 8.09C18.35 8.09 19.2 8.50999 19.95 8.89C20.6 9.23999 21.1 9.48999 22 9.48999V11.44C20.63 11.44 19.8 11.02 19.05 10.64C18.4 10.29 17.9 10.04 17 10.04C16.1658 10.04 15.6442 10.2974 15.0297 10.6007L14.95 10.64L14.8717 10.6787C14.1425 11.0393 13.3322 11.44 12 11.44C10.6289 11.44 9.81055 11.0254 9.06445 10.6473L9.04999 10.64C8.39999 10.29 7.87 10.04 7 10.04C6.1658 10.04 5.6442 10.2974 5.02966 10.6007L4.95001 10.64L4.91507 10.6572C4.17355 11.0232 3.32907 11.44 2 11.44V9.48999C2.89999 9.48999 3.39999 9.23999 4.04999 8.89L4.12817 8.85136C4.85745 8.49072 5.66779 8.09 7 8.09C8.37119 8.09 9.18951 8.50465 9.93564 8.88272L9.95001 8.89C10.6 9.23999 11.1 9.48999 12 9.48999C12.9 9.48999 13.4 9.23999 14.05 8.89L14.0848 8.8728Z" fill="black" fill-opacity="0.54"/>
</g>
</svg>
