<svg width="24" height="24" viewBox="0 0 24 24" fill="none" xmlns="http://www.w3.org/2000/svg">
<g id="wb_auto_24px">
<path id="icon/image/wb_auto_24px" fill-rule="evenodd" clip-rule="evenodd" d="M22.1 7L20.9 13.29L19.4 7H17.7999L16.3099 13.29L15.1 7H14.34L14.33 7.01001C12.86 5.17999 10.63 4 8.09998 4C3.67993 4 0.0999756 7.57999 0.0999756 12C0.0999756 16.42 3.67993 20 8.09998 20C11.0599 20 13.65 18.39 15.03 16C15.0442 15.9715 15.0562 15.9431 15.068 15.9146L15.0697 15.9106C15.0823 15.8804 15.0948 15.8502 15.11 15.82C15.135 15.78 15.1575 15.7375 15.1799 15.6951L15.1818 15.6917C15.2037 15.6503 15.2256 15.6089 15.25 15.57L15.35 16H17.1L18.6 9.89999L20.1 16H21.85L23.9 7H22.1ZM3.90002 16L7.09998 7H9.09998L12.3 16H10.4L9.70007 14H6.5L5.80005 16H3.90002ZM8.09998 9L6.94995 12.65H9.25L8.09998 9ZM8.09998 18C10.45 18 12.48 16.64 13.47 14.67C13.87 13.86 14.1 12.96 14.1 12C14.1 8.69 11.41 6 8.09998 6C4.78992 6 2.09998 8.69 2.09998 12C2.09998 15.31 4.78992 18 8.09998 18Z" fill="black" fill-opacity="0.54"/>
</g>
</svg>
