<svg width="24" height="24" viewBox="0 0 24 24" fill="none" xmlns="http://www.w3.org/2000/svg">
<g id="wb_cloudy_24px">
<path id="icon/image/wb_cloudy_24px" fill-rule="evenodd" clip-rule="evenodd" d="M5.34277 8.04001C6.59229 5.64001 9.11121 4 12 4C15.6385 4 18.6672 6.59 19.3569 10.04C21.9459 10.22 23.995 12.36 23.995 15C23.995 17.76 21.756 20 18.9971 20H6.00256C2.69385 20 0.00500488 17.31 0.00500488 14C0.00500488 10.91 2.34399 8.35999 5.34277 8.04001ZM17.3977 10.43C16.8879 7.85999 14.6089 6 12 6C9.9408 6 8.07166 7.14001 7.13196 8.97L6.6322 9.92001L5.56262 10.03C3.53357 10.24 2.00415 11.95 2.00415 14C2.00415 16.21 3.79346 18 6.00244 18H18.9971C20.6464 18 21.9958 16.65 21.9958 15C21.9958 13.45 20.7764 12.15 19.2169 12.04L17.6976 11.93L17.3977 10.43Z" fill="black" fill-opacity="0.54"/>
</g>
</svg>
