<svg width="24" height="24" viewBox="0 0 24 24" fill="none" xmlns="http://www.w3.org/2000/svg">
<g id="wb_iridescent_24px">
<path id="icon/image/wb_iridescent_24px" fill-rule="evenodd" clip-rule="evenodd" d="M10.995 1H12.995V4H10.995V1ZM18.995 15H4.995V9H18.995V15ZM16.995 11H6.995V13H16.995V11ZM19.035 3.60001L20.455 5.01001L18.655 6.80002L17.245 5.39001L19.035 3.60001ZM10.995 20H12.995V23H10.995V20ZM19.025 20.51L17.235 18.71L18.645 17.3L20.4449 19.09L19.025 20.51ZM4.95422 3.59491L6.74316 5.38391L5.33606 6.79092L3.547 5.00201L4.95422 3.59491ZM4.95508 20.5L3.54504 19.08L5.33508 17.29L6.745 18.7L4.95508 20.5Z" fill="black" fill-opacity="0.54"/>
</g>
</svg>
