<svg width="24" height="24" viewBox="0 0 24 24" fill="none" xmlns="http://www.w3.org/2000/svg">
<g id="wb_incandescent_24px">
<path id="icon/image/wb_incandescent_24px" fill-rule="evenodd" clip-rule="evenodd" d="M9 1.52499H15V6.33499C16.79 7.375 18 9.30499 18 11.525C18 14.835 15.3101 17.525 12 17.525C8.68994 17.525 6 14.835 6 11.525C6 9.30499 7.20996 7.375 9 6.33499V1.52499ZM13 3.52499V7.48499L14 8.065C15.24 8.785 16 10.105 16 11.525C16 13.735 14.21 15.525 12 15.525C9.79004 15.525 8 13.735 8 11.525C8 10.105 8.77002 8.785 10 8.065L11 7.48499V3.52499H13ZM4 10.475H1V12.475H4V10.475ZM3.55005 18.565L4.96008 19.975L6.75 18.175L5.34009 16.765L3.55005 18.565ZM13 19.475V22.475H11V19.475H13ZM20 10.475H23V12.475H20V10.475ZM19.03 19.985L17.24 18.185L18.64 16.785L20.4399 18.575L19.03 19.985Z" fill="black" fill-opacity="0.54"/>
</g>
</svg>
