<svg width="24" height="24" viewBox="0 0 24 24" fill="none" xmlns="http://www.w3.org/2000/svg">
<g id="wifi_off_24px">
<path id="icon/notification/wifi_off_24px" fill-rule="evenodd" clip-rule="evenodd" d="M2 4.22L3.41003 2.81L20.38 19.78L18.97 21.19L11.89 14.11C10.11 14.13 8.34998 14.82 7 16.17L5 14.17C6.27002 12.91 7.79004 12.06 9.41003 11.63L7.17004 9.39C5.65002 10.01 4.22998 10.94 3 12.17L1 10.17C2.21997 8.96 3.58997 8 5.05005 7.27L2 4.22ZM23 10.17L21 12.17C18.49 9.66 15.1801 8.42 11.88 8.44L9.30005 5.86C14.13 5.02 19.27 6.44 23 10.17ZM15.28 11.84C16.64 12.32 17.92 13.09 19 14.17L18.3 14.86L15.28 11.84ZM9 18.17L12 21.17L15 18.17C13.35 16.51 10.66 16.51 9 18.17Z" fill="black" fill-opacity="0.54"/>
</g>
</svg>
