<svg width="24" height="24" viewBox="0 0 24 24" fill="none" xmlns="http://www.w3.org/2000/svg">
<g id="work_off_24px">
<path id="icon/action/work_off_24px" fill-rule="evenodd" clip-rule="evenodd" d="M2.83008 1.41998L1.42004 2.82996L4.17004 5.57996H3.43005C2.32007 5.57996 1.44006 6.46997 1.44006 7.57996L1.43005 18.58C1.43005 19.69 2.32007 20.58 3.43005 20.58H19.17L21.17 22.58L22.5801 21.17L2.83008 1.41998ZM9.43005 3.57996H13.4301V5.57996H9.83008L11.8301 7.57996H19.4301V15.1799L21.4301 17.1799V7.57996C21.4301 6.46997 20.54 5.57996 19.4301 5.57996H15.4301V3.57996C15.4301 2.46997 14.54 1.57996 13.4301 1.57996H9.43005C8.44006 1.57996 7.63013 2.27997 7.47009 3.21997L9.43005 5.17993V3.57996ZM3.43005 7.57996V18.58H17.17L6.17004 7.57996H3.43005Z" fill="black" fill-opacity="0.54"/>
</g>
</svg>
