<svg width="24" height="24" viewBox="0 0 24 24" fill="none" xmlns="http://www.w3.org/2000/svg">
<g id="publicon/social/24px">
<path id="icon/social/publicon/social/24px" fill-rule="evenodd" clip-rule="evenodd" d="M12 2C6.47998 2 2 6.47998 2 12C2 17.52 6.47998 22 12 22C17.52 22 22 17.52 22 12C22 6.47998 17.52 2 12 2ZM4 12C4 11.39 4.07996 10.79 4.20996 10.22L8.98999 15V16C8.98999 17.1 9.89001 18 10.99 18V19.93C7.06006 19.43 4 16.0699 4 12ZM15.99 16C16.89 16 17.63 16.59 17.89 17.4C19.1899 15.98 20 14.08 20 12C20 8.65002 17.92 5.77002 14.99 4.59003V5C14.99 6.10004 14.09 7 12.99 7H10.99V9C10.99 9.55005 10.54 10 9.98999 10H7.98999V12H13.99C14.54 12 14.99 12.45 14.99 13V16H15.99Z" fill="black" fill-opacity="0.54"/>
</g>
</svg>
