<svg width="24" height="24" viewBox="0 0 24 24" fill="none" xmlns="http://www.w3.org/2000/svg">
<g id="trafficon/maps/24px">
<path id="icon/maps/trafficon/maps/24px" fill-rule="evenodd" clip-rule="evenodd" d="M20 10H17V8.85999C18.72 8.40997 20 6.85999 20 5H17V4C17 3.45001 16.55 3 16 3H8C7.45001 3 7 3.45001 7 4V5H4C4 6.85999 5.28003 8.40997 7 8.85999V10H4C4 11.86 5.28003 13.41 7 13.86V15H4C4 16.86 5.28003 18.41 7 18.86V20C7 20.55 7.45001 21 8 21H16C16.55 21 17 20.55 17 20V18.86C18.72 18.41 20 16.86 20 15H17V13.86C18.72 13.41 20 11.86 20 10ZM15 5V19H9V5H15ZM13.5 16.5C13.5 17.33 12.83 18 12 18C11.17 18 10.5 17.33 10.5 16.5C10.5 15.67 11.17 15 12 15C12.83 15 13.5 15.67 13.5 16.5ZM12 13.5C12.83 13.5 13.5 12.83 13.5 12C13.5 11.17 12.83 10.5 12 10.5C11.17 10.5 10.5 11.17 10.5 12C10.5 12.83 11.17 13.5 12 13.5ZM13.5 7.5C13.5 8.33002 12.83 9 12 9C11.17 9 10.5 8.33002 10.5 7.5C10.5 6.66998 11.17 6 12 6C12.83 6 13.5 6.66998 13.5 7.5Z" fill="black" fill-opacity="0.54"/>
</g>
</svg>
